<svg width="283" height="159" viewBox="0 0 283 159" fill="none" xmlns="http://www.w3.org/2000/svg">
<mask id="mask0_2_6546" style="mask-type:alpha" maskUnits="userSpaceOnUse" x="0" y="0" width="283" height="159">
<path d="M198.893 121.859C186.783 121.746 175.518 118.1 166.078 111.902C159.855 138.709 135.941 158.73 107.305 158.997V159H45.7937V106.842C31.9122 114.922 14.0215 110.585 5.42192 96.8769C-3.35698 82.8827 0.870992 64.4215 14.8654 55.6427C28.6996 46.9644 46.8992 50.9968 55.7948 64.6095C66.6887 48.0614 85.431 37.1387 106.724 37.1387C119.054 37.1387 130.529 40.8012 140.12 47.0976C146.385 20.1106 170.581 0 199.474 0C233.125 0 260.404 27.2796 260.404 60.9307C260.404 61.1243 260.403 61.3177 260.402 61.511H260.404V66.8084L267.062 59.3457C267.647 58.6963 268.661 58.5767 269.502 59.0555L269.597 59.1227C270.238 59.4935 270.476 60.2816 270.125 60.8712L263.874 71.4148L274.146 61.2569C274.888 60.5171 276.142 60.4005 277.147 61.0034L277.389 61.1581C278.03 61.5289 278.231 62.3331 277.812 62.8657L268.287 75.2201L277.623 66.8456C278.437 66.0736 279.756 66.103 280.689 66.8897C281.347 67.4488 281.434 68.3901 280.906 68.9709L269.629 81.3996L279.542 75.5791C280.453 75.0261 281.721 75.3386 282.399 76.2377C282.849 76.8667 282.783 77.6577 282.243 78.113L270.386 88.2284L264.09 93.0135C263.71 96.9188 263.269 101.957 263.317 103.899C263.434 109.782 263.298 116.033 262.716 121.861L198.893 121.861V121.859Z" fill="#89471E"/>
<path d="M198.893 121.859C186.783 121.746 175.518 118.1 166.078 111.902C159.855 138.709 135.941 158.73 107.305 158.997V159H45.7937V106.842C31.9122 114.922 14.0215 110.585 5.42192 96.8769C-3.35698 82.8827 0.870992 64.4215 14.8654 55.6427C28.6996 46.9644 46.8992 50.9968 55.7948 64.6095C66.6887 48.0614 85.431 37.1387 106.724 37.1387C119.054 37.1387 130.529 40.8012 140.12 47.0976C146.385 20.1106 170.581 0 199.474 0C233.125 0 260.404 27.2796 260.404 60.9307C260.404 61.1243 260.403 61.3177 260.402 61.511H260.404V66.8084L267.062 59.3457C267.647 58.6963 268.661 58.5767 269.502 59.0555L269.597 59.1227C270.238 59.4935 270.476 60.2816 270.125 60.8712L263.874 71.4148L274.146 61.2569C274.888 60.5171 276.142 60.4005 277.147 61.0034L277.389 61.1581C278.03 61.5289 278.231 62.3331 277.812 62.8657L268.287 75.2201L277.623 66.8456C278.437 66.0736 279.756 66.103 280.689 66.8897C281.347 67.4488 281.434 68.3901 280.906 68.9709L269.629 81.3996L279.542 75.5791C280.453 75.0261 281.721 75.3386 282.399 76.2377C282.849 76.8667 282.783 77.6577 282.243 78.113L270.386 88.2284L264.09 93.0135C263.71 96.9188 263.269 101.957 263.317 103.899C263.434 109.782 263.298 116.033 262.716 121.861L198.893 121.861V121.859Z" fill="url(#paint0_linear_2_6546)"/>
</mask>
<g mask="url(#mask0_2_6546)">
<path fill-rule="evenodd" clip-rule="evenodd" d="M107.304 158.997C140.688 158.686 167.655 131.527 167.655 98.0693C167.655 64.4183 140.375 37.1387 106.724 37.1387C73.0732 37.1387 45.7936 64.4183 45.7936 98.0693C45.7936 98.263 45.7945 98.4564 45.7963 98.6496L45.7935 98.6496L45.7935 159L107.304 159L107.304 158.997Z" fill="#9288EE"/>
<path fill-rule="evenodd" clip-rule="evenodd" d="M198.893 121.859C165.509 121.547 138.543 94.3881 138.543 60.9307C138.543 27.2796 165.823 -9.33807e-07 199.474 -6.0157e-07C233.125 -2.69332e-07 260.404 27.2796 260.404 60.9307C260.404 61.1243 260.403 61.3177 260.402 61.5109L260.404 61.5109L260.404 121.861L199.474 121.861L198.893 121.861L198.893 121.859Z" fill="#E2E0FD"/>
<path fill-rule="evenodd" clip-rule="evenodd" d="M166.078 111.902C149.494 101.015 138.543 82.2517 138.543 60.9308C138.543 56.1727 139.088 51.542 140.12 47.0978C156.704 57.9854 167.655 76.7486 167.655 98.0695C167.655 102.828 167.11 107.458 166.078 111.902Z" fill="#B1ABF4"/>
<mask id="mask1_2_6546" style="mask-type:alpha" maskUnits="userSpaceOnUse" x="46" y="37" width="122" height="122">
<path fill-rule="evenodd" clip-rule="evenodd" d="M107.618 158.997C141.002 158.686 167.969 131.527 167.969 98.0693C167.969 64.4183 140.689 37.1387 107.038 37.1387C73.3869 37.1387 46.1074 64.4183 46.1074 98.0693C46.1074 98.263 46.1083 98.4564 46.1101 98.6496L46.1074 98.6496L46.1074 159L107.038 159L107.618 159L107.618 158.997Z" fill="#F2F1FE"/>
</mask>
<g mask="url(#mask1_2_6546)">
<g filter="url(#filter0_di_2_6546)">
<path d="M139.669 133.035C142.355 134.065 144.72 135.79 146.52 138.034C148.32 140.277 149.493 142.958 149.916 145.802L157.783 198.692H40.2781V151.958C40.2785 149.315 40.9834 146.72 42.3203 144.44C43.6572 142.159 45.5778 140.276 47.8845 138.984L91.5066 114.546L139.669 133.035Z" fill="#595959"/>
</g>
<g filter="url(#filter1_i_2_6546)">
<path d="M157.448 196.449H133.371C128.707 190.957 127.634 183.267 130.617 176.709L137.382 161.834C141.012 151.86 140.248 141.104 133.371 130.739C135.144 131.344 138.396 132.522 141.188 133.704C143.247 134.746 145.066 136.219 146.519 138.029C148.319 140.272 149.491 142.953 149.915 145.797L157.448 196.449Z" fill="#595959"/>
</g>
<g filter="url(#filter2_di_2_6546)">
<path d="M110.875 108.782L115.654 120.957C116.266 122.514 116.282 124.241 115.699 125.809C115.116 127.377 113.976 128.675 112.496 129.456L107.358 132.156L95.5849 129.844C94.1881 129.57 92.8708 128.985 91.7301 128.134C90.5895 127.283 89.6545 126.186 88.9942 124.926C88.3339 123.665 87.9651 122.273 87.915 120.851C87.865 119.429 88.1349 118.014 88.7049 116.71C88.7219 116.671 88.7389 116.632 88.7535 116.593C90.3301 112.725 87.2545 103.18 87.2545 103.18L110.875 108.782Z" fill="#F5CB9D"/>
</g>
<path d="M112.624 112.147L116.315 122.319C116.748 123.512 116.735 124.822 116.277 126.006C115.819 127.189 114.948 128.168 113.824 128.759L107.357 132.159C101.119 125.372 90.5946 110.062 90.5946 110.062L112.624 112.147Z" fill="#E0A961"/>
<g filter="url(#filter3_di_2_6546)">
<path d="M124.246 103.677C124.246 105.863 123.114 106.263 122.388 109.413C121.662 112.562 117.459 116.115 117.459 116.115C117.459 116.115 117.379 117.652 114.301 122.013C111.223 126.374 105.897 123.47 105.897 123.47C105.897 123.47 93.6945 115.071 92.079 113.779C90.4634 112.487 88.2818 103.682 88.2818 103.682C78.8267 80.1814 94.4209 70.568 106.259 70.568C118.098 70.568 122.381 82.2794 122.381 82.2794L123.109 93.7311L123.263 96.0889C123.263 96.0889 124.246 101.497 124.246 103.677Z" fill="#F5CB9D"/>
</g>
<path d="M123.222 95.2634C128.566 77.3381 121.949 74.2154 120.35 72.7317C120.35 72.7317 119.114 67.7319 114.058 66.105C113.227 63.9196 112.775 62.7395 111.449 62.4626C111.592 63.3999 111.097 65.7529 111.097 65.7529C111.097 65.7529 110.545 60.4399 108.65 59.9251C108.629 60.6754 108.557 61.4235 108.434 62.164C108.434 62.164 106.777 59.3788 107.159 58.4949C105.975 58.4949 104.243 61.841 104.243 61.841C104.243 61.841 101.041 59.6337 99.2582 63.077C97.4168 61.7706 92.779 63.5626 93.2989 66.5445C85.6221 64.9613 82.2282 76.209 82.2282 76.209C80.0612 85.9924 83.4648 95.8292 83.4648 95.8292L90.199 101.723C90.199 101.723 90.7359 90.7178 92.7912 89.8703C94.8465 89.0228 98.3788 87.8961 98.3788 85.2761C101.343 84.5476 104.153 85.2979 106.172 83.5908C109.33 83.5908 112.076 82.7507 113.669 81.0485C114.109 83.6151 114.112 84.244 114.112 84.244C114.112 84.244 116.072 82.4204 116.07 81.573C117.527 81.522 119.75 80.2374 120.965 79.3875C120.962 79.3803 123.214 92.4977 123.222 95.2634Z" fill="#2D2D2D"/>
<g filter="url(#filter4_di_2_6546)">
<path d="M89.7883 105.758C89.7883 105.758 85.0971 105.758 83.9383 103.607C82.7795 101.455 78.9702 96.4894 81.5648 92.1938C84.1594 87.8982 87.6893 93.4638 87.6893 93.4638L89.7883 105.758Z" fill="#F5CB9D"/>
</g>
<path d="M107.754 98.0717C107.972 97.7748 108.089 97.4155 108.087 97.047C108.091 96.6428 107.95 96.2506 107.688 95.9421C107.016 95.964 106.34 95.9737 105.66 95.9761C105.421 96.2808 105.292 96.6565 105.292 97.0434C105.292 97.4302 105.421 97.8059 105.66 98.1106C106.352 98.1251 107.054 98.096 107.754 98.0717Z" fill="#735324"/>
<path d="M108.891 98.2216C107.404 97.9626 105.9 97.81 104.392 97.7651C103.034 97.7319 101.685 97.9971 100.441 98.5421C100.373 98.5689 100.307 98.6014 100.245 98.6393C100.245 98.6393 108.942 99.2488 108.891 98.2216Z" fill="#F5CB9D"/>
<path d="M99.9853 97.734C99.9853 97.734 103.629 95.4927 105.221 95.1285C106.812 94.7643 109.166 95.9954 108.712 98.0618C108.712 98.0618 108.767 94.3296 99.9853 97.734Z" fill="#735324"/>
<path d="M124.246 103.684C124.246 105.87 123.114 106.27 122.388 109.42C122.045 110.906 120.93 112.479 119.847 113.73C118.551 115.209 117.425 116.828 116.489 118.557C115.831 119.756 115.101 120.914 114.303 122.025C116.504 118.429 112.243 111.069 112.243 111.069C112.243 111.069 111.004 107.764 113.079 107.625C114.939 107.625 116.064 106.168 116.064 106.168C116.064 106.168 116.793 106.654 117.386 105.773C117.979 104.891 116.31 102.451 115.87 101.472C115.627 100.96 115.141 99.447 114.714 98.126C114.427 97.2576 114.374 96.3289 114.561 95.4336C114.748 94.5384 115.167 93.7081 115.778 93.0267C117.612 91.0112 119.635 91.8271 121.46 92.6916C121.613 92.7801 121.752 92.8905 121.873 93.0194C122.703 93.8383 123.201 94.9348 123.272 96.0984V96.0984C123.272 96.0984 124.246 101.504 124.246 103.684Z" fill="#E0A961"/>
<path d="M112.245 111.48L107.629 110.917L102.222 110.052L103.606 111.531L108.225 114.078L113.584 114.297L117.14 110.89L112.245 111.48Z" fill="#89471E"/>
<path d="M107.559 104.053C107.513 103.995 107.197 104.488 107.175 104.539C106.954 105.143 107.321 105.915 107.698 106.386C107.869 106.618 108.093 106.805 108.351 106.931C108.61 107.058 108.894 107.121 109.182 107.115C109.321 107.115 109.911 106.981 109.986 107.091L107.559 104.053Z" fill="#E0A961"/>
<path d="M112.534 107.037C112.534 107.037 112.94 104.871 108.941 105.823C110.16 106.162 111.36 106.567 112.534 107.037V107.037Z" fill="#C08A38"/>
<path d="M117.041 106.124C117.041 106.124 116.048 105.039 115.183 106.947C115.847 106.788 116.477 106.509 117.041 106.124V106.124Z" fill="#C08A38"/>
<path d="M114.998 111.091C114.998 111.091 114.848 112.534 114.199 112.891C113.55 113.248 112.367 113.672 111.405 113.532C110.866 113.558 108.235 113.25 108.235 113.25C108.235 113.25 102.611 112.407 102.701 110.154C104.151 110.409 112.367 111.271 114.998 111.091Z" fill="#FAF9F8"/>
<path d="M117.14 110.89C117.14 110.89 112.355 110.547 111.92 111.014C111.266 110.771 110.489 110.671 107.661 110.487C104.833 110.302 102.222 110.052 102.222 110.052C102.222 110.052 109.806 111.74 111.485 111.781C113.164 111.822 117.14 110.89 117.14 110.89Z" fill="#B4602B"/>
<path d="M102.221 110.062C102.221 110.062 104.911 115.027 110.744 115.311C115.36 115.537 117.233 112.453 117.14 110.899C115.991 111.302 114.687 112.903 114.687 112.903C114.026 113.314 113.29 113.59 112.521 113.715C111.752 113.84 110.967 113.812 110.209 113.631C107.661 113.005 103.028 110.984 102.221 110.062Z" fill="#C08A38"/>
<path d="M111.787 93.0604C111.787 93.0604 106.442 88.3909 97.6261 95.8092C101.622 94.6291 103.797 92.6525 109.239 93.5072C111.119 93.8011 110.847 93.8788 111.199 93.8035C111.374 93.7798 111.533 93.6891 111.643 93.5506C111.753 93.412 111.804 93.2363 111.787 93.0604Z" fill="#2D2D2D"/>
<path d="M117.511 91.5843C122.764 90.7053 123.123 95.4816 123.123 95.4816C122.78 94.7693 122.229 94.1769 121.544 93.7819C120.456 93.2234 118.808 93.2525 117.684 93.4978C115.463 93.9834 115.417 94.7993 115.415 94.8017C115.412 94.8042 115.93 91.8466 117.511 91.5843Z" fill="#2D2D2D"/>
<path d="M119.005 96.5035C118.782 96.8011 118.662 97.1636 118.665 97.5355C118.665 97.8283 118.738 98.1165 118.879 98.3733H119.039C119.768 98.3927 120.48 98.4291 121.199 98.4656C121.373 98.1885 121.465 97.8676 121.464 97.5404C121.467 97.1453 121.332 96.7615 121.082 96.455C120.391 96.4663 119.698 96.4825 119.005 96.5035Z" fill="#735324"/>
<path d="M122.704 98.0053C122.704 98.0053 121.489 96.5484 118.962 96.6747C116.436 96.8009 115.525 98.3137 115.525 98.3137C115.525 98.3137 116.227 95.4703 118.887 95.4945C121.547 95.5188 122.704 98.0053 122.704 98.0053Z" fill="#735324"/>
<path d="M116.204 97.9505C116.204 97.9505 120.771 97.8874 121.777 97.7805C122.002 97.9797 122.212 98.1956 122.404 98.4264C122.404 98.4264 116.981 98.577 115.526 98.8295C115.526 98.577 116.204 97.9505 116.204 97.9505Z" fill="#E0A961"/>
</g>
<mask id="mask2_2_6546" style="mask-type:alpha" maskUnits="userSpaceOnUse" x="138" y="0" width="152" height="122">
<path fill-rule="evenodd" clip-rule="evenodd" d="M198.894 121.859C165.511 121.547 138.544 94.3881 138.544 60.9307C138.544 27.2796 165.824 -1.22027e-06 199.475 -8.88032e-07C229.767 -5.88955e-07 254.896 22.1058 259.611 51.0657L289.42 51.0657L289.42 121.861L199.475 121.861L198.894 121.861L198.894 121.859Z" fill="#F2F1FE"/>
</mask>
<g mask="url(#mask2_2_6546)">
<path d="M212.037 78.6238L213.843 96.0134L188.927 93.2012C188.927 93.2012 185.543 74.9221 184.97 68.236C184.97 68.236 203.435 79.8003 212.037 78.6238Z" fill="#623721"/>
<g filter="url(#filter5_di_2_6546)">
<path d="M153.257 97.7405L141.616 112.174L156.64 120.181L159.737 99.4622C160.712 93.0057 165.758 87.9553 172.181 86.9796L166.418 88.0987C161.17 88.644 156.612 93.6083 153.257 97.7405Z" fill="#001D26"/>
<path d="M153.257 97.7405L141.616 112.174L156.64 120.181L159.737 99.4622C160.712 93.0057 165.758 87.9553 172.181 86.9796L166.418 88.0987C161.17 88.644 156.612 93.6083 153.257 97.7405Z" fill="url(#paint1_linear_2_6546)"/>
</g>
<g filter="url(#filter6_di_2_6546)">
<path fill-rule="evenodd" clip-rule="evenodd" d="M183.077 84.8526L166.447 88.0665C161.171 88.6404 156.612 93.6048 153.258 97.7083L141.617 112.142L141.634 112.151L153.258 97.7383C156.612 93.6061 161.171 88.6417 166.419 88.0965L170.981 87.2105C165.138 88.5969 160.651 93.4115 159.738 99.46L156.641 120.178L156.637 120.176C155.874 125.351 155.221 128.71 154.767 131.043C153.757 136.239 153.737 136.342 155.695 140.063L155.733 140.136C157.442 143.382 161.083 150.302 164.612 149.504L179.694 144.798C192.74 141.842 217.399 145.028 228.983 151.685L230.875 165.746L248.652 146.147L236.954 91.4813C230.187 71.6525 202.26 89.4152 202.26 89.4152L183.077 84.8526ZM172.182 86.9774L170.981 87.2105C171.376 87.1169 171.776 87.039 172.182 86.9774Z" fill="#2C2071"/>
<path fill-rule="evenodd" clip-rule="evenodd" d="M183.077 84.8526L166.447 88.0665C161.171 88.6404 156.612 93.6048 153.258 97.7083L141.617 112.142L141.634 112.151L153.258 97.7383C156.612 93.6061 161.171 88.6417 166.419 88.0965L170.981 87.2105C165.138 88.5969 160.651 93.4115 159.738 99.46L156.641 120.178L156.637 120.176C155.874 125.351 155.221 128.71 154.767 131.043C153.757 136.239 153.737 136.342 155.695 140.063L155.733 140.136C157.442 143.382 161.083 150.302 164.612 149.504L179.694 144.798C192.74 141.842 217.399 145.028 228.983 151.685L230.875 165.746L248.652 146.147L236.954 91.4813C230.187 71.6525 202.26 89.4152 202.26 89.4152L183.077 84.8526ZM172.182 86.9774L170.981 87.2105C171.376 87.1169 171.776 87.039 172.182 86.9774Z" fill="url(#paint2_linear_2_6546)"/>
</g>
<path d="M164.697 132.949C162.977 126.751 168.769 96.7064 169.486 93.4925C170.088 90.7664 171.206 88.5855 172.783 87.0072L172.926 86.8638L168.195 87.782C164.353 89.7333 162.747 93.4064 162.117 96.1899C161.4 99.3464 155.579 128.788 157.328 134.987C158.619 139.578 163.808 145.518 166.79 148.646L166.848 148.703L167.622 148.474L167.45 148.301C165.041 145.776 159.307 139.377 157.988 134.786C156.267 128.76 162.059 99.4612 162.776 96.3334C163.35 93.7507 164.755 90.422 168.023 88.5568C166.647 90.1638 165.672 92.2586 165.099 94.7838C164.382 98.0264 158.561 128.272 160.31 134.585C161.543 139.033 166.389 144.858 169.141 147.9L169.199 147.957L169.973 147.727L169.83 147.555C167.048 144.485 162.203 138.688 160.998 134.384C159.278 128.157 165.07 98.1412 165.787 94.9273C166.475 91.7707 167.851 89.3316 169.887 87.7246C170.346 87.5812 170.833 87.4664 171.349 87.3516L171.378 87.3516C170.088 88.9299 169.17 90.9386 168.654 93.349C167.937 96.5916 162.117 126.808 163.866 133.15C165.127 137.713 170.088 143.624 172.955 146.752L173.012 146.809L173.786 146.58L173.643 146.407C170.891 143.251 165.901 137.34 164.697 132.949Z" fill="#2C2071"/>
<path d="M172.698 131.997C171.265 125.799 176.11 95.726 176.684 92.512C177.057 90.5033 177.917 87.6911 179.924 85.5964L180.067 85.4529L178.863 85.6824C177.114 87.8346 176.311 90.5033 175.967 92.3686C175.365 95.5825 170.519 125.828 171.981 132.141C172.899 136.158 176.282 141.295 178.978 144.91L179.035 144.997L179.264 144.939C179.293 144.939 179.322 144.939 179.322 144.939L179.723 144.824C179.752 144.824 179.752 144.824 179.78 144.824L179.666 144.681C177.458 141.697 173.645 136.13 172.698 131.997Z" fill="#2C2071"/>
<path d="M168.828 132.951C167.108 126.753 172.9 96.7087 173.617 93.4948C174.133 91.1704 175.337 87.9852 178.204 85.9765L178.462 85.8043L176.943 86.0913C174.477 88.2435 173.387 91.2278 172.9 93.3513C172.183 96.5939 166.362 126.811 168.111 133.152C169.23 137.17 173.186 142.22 176.312 145.778L176.369 145.836L177.143 145.606L177 145.434C173.875 141.847 169.918 136.825 168.828 132.951Z" fill="#2C2071"/>
<path d="M228.38 88.7279C228.266 87.0635 228.008 84.6531 227.549 82.5009C227.291 82.4435 227.033 82.3861 226.775 82.3574L226.775 82.4148C227.147 84.1079 227.434 86.2314 227.635 88.7853C227.893 92.2001 230.129 124.196 229.871 130.968C229.613 137.539 227.577 147.296 227.577 147.382L227.549 147.525L228.266 147.669L228.294 147.525C228.323 147.439 230.33 137.625 230.617 130.997C230.903 124.225 228.667 92.1427 228.38 88.7279Z" fill="#2C2071"/>
<path d="M177.429 130.995C175.995 124.366 180.841 92.3131 181.415 88.8697C181.615 87.6644 181.988 86.3444 182.504 85.0531L182.533 84.967L181.673 85.1392C181.214 86.3731 180.87 87.607 180.669 88.7549C180.067 92.1984 175.221 124.395 176.684 131.138C177.572 135.242 180.755 140.493 183.278 144.195C183.536 144.166 183.823 144.138 184.081 144.109L184.024 144.023C181.529 140.292 178.289 135.041 177.429 130.995Z" fill="#2C2071"/>
<path d="M216.797 83.3331L216.768 83.1896L216.625 83.2183C216.482 83.247 216.367 83.3044 216.224 83.3331L216.052 83.3904L216.08 83.5339C216.568 85.2844 216.912 87.6948 217.141 90.7078C217.399 94.1226 219.636 126.204 219.378 132.891C219.206 137.511 218.145 143.68 217.514 146.98L217.485 147.124L218.202 147.296L218.231 147.152C218.833 143.852 219.894 137.625 220.095 132.948C220.381 126.176 218.116 94.1226 217.858 90.7078C217.743 88.5557 217.428 85.5713 216.797 83.3331Z" fill="#2C2071"/>
<path d="M220.094 82.5548L220.065 82.4401L219.95 82.4688C219.893 82.4688 219.835 82.4974 219.778 82.4974C219.692 82.4974 219.606 82.5261 219.52 82.5548L219.377 82.5835L219.434 82.727C220.008 84.4488 220.466 87.2035 220.753 90.7044C221.011 94.1479 223.248 126.23 222.989 132.887C222.789 138.024 221.498 145.083 220.954 147.895L220.925 148.01L221.04 148.039C221.154 148.067 221.24 148.096 221.355 148.125L221.613 148.211L221.642 148.067C222.187 145.226 223.477 138.081 223.678 132.887C223.964 126.144 221.699 94.0618 221.441 90.647C221.24 88.2079 220.868 84.8505 220.094 82.5548Z" fill="#2C2071"/>
<path d="M225.4 88.7277C225.256 86.9199 224.998 84.2799 224.482 82.099C224.224 82.099 223.995 82.099 223.737 82.099L223.737 82.1564C224.138 83.8494 224.453 86.059 224.654 88.7564C224.912 92.1712 227.149 124.253 226.891 130.939C226.633 137.51 224.597 147.267 224.597 147.353L224.568 147.497L225.285 147.64L225.314 147.497C225.342 147.41 227.349 137.597 227.636 130.968C227.894 124.196 225.658 92.1425 225.4 88.7277Z" fill="#2C2071"/>
<path d="M215.249 83.5355C214.619 83.679 214.016 83.8512 213.414 84.0234L204.067 87.926L203.35 87.8112C202.662 88.1268 202.261 88.3277 202.261 88.3277L188.068 85.5729L183.91 84.9703C184.025 85.1425 184.139 85.3147 184.254 85.5155C184.225 85.6303 184.225 85.7164 184.197 85.8312C184.139 86.1181 184.082 86.4338 184.053 86.7208C183.681 90.1642 180.555 122.361 181.473 129.047C182.19 134.126 185.229 141.07 186.519 143.854C186.777 143.825 187.035 143.825 187.293 143.797L187.265 143.739C185.974 140.984 182.907 133.983 182.19 128.961C181.272 122.303 184.369 90.2216 184.77 86.8068C184.77 86.6921 184.799 86.5773 184.828 86.4625C185.716 87.8973 186.691 89.3608 187.695 90.7095C187.179 100.351 186.032 123.423 186.462 129.047C186.835 133.868 188.412 140.324 189.301 143.739C189.559 143.739 189.788 143.739 190.046 143.71L190.046 143.682C189.157 140.267 187.58 133.782 187.207 128.99C186.777 123.623 187.867 101.671 188.383 91.599C189.673 93.206 191.021 94.6408 192.397 95.6451C192.139 106.923 191.766 124.341 191.938 129.047C192.11 133.868 192.856 140.324 193.257 143.739C193.515 143.739 193.745 143.739 194.003 143.739L194.003 143.71C193.659 140.956 192.856 134.04 192.684 128.99C192.512 124.341 192.856 107.296 193.114 96.0756C193.888 96.5347 194.662 96.9077 195.436 97.0512C195.809 97.1086 196.153 97.166 196.497 97.2521C196.755 108.759 197.071 124.57 196.899 129.018C196.727 134.069 195.895 141.042 195.58 143.797L195.58 143.825C195.838 143.825 196.067 143.854 196.325 143.854C196.755 140.41 197.472 133.897 197.673 129.047C197.845 124.657 197.53 108.874 197.272 97.3956C198.906 97.6825 200.368 97.8834 201.716 98.0269C201.945 108.3 202.289 124.456 202.117 129.018C201.917 134.212 201.085 141.329 200.741 144.141L200.741 144.17C200.999 144.198 201.228 144.198 201.486 144.227L201.486 144.198C201.831 141.357 202.662 134.212 202.863 129.018C203.035 124.456 202.719 108.386 202.461 98.0556C203.895 98.1704 205.157 98.2277 206.275 98.2277C206.533 109.276 206.877 126.407 206.705 131.027C206.533 135.503 205.873 141.501 205.501 144.657L205.501 144.715C205.73 144.744 205.988 144.801 206.217 144.83L206.217 144.744C206.59 141.558 207.25 135.561 207.422 131.056C207.594 126.378 207.25 109.333 206.992 98.2277C208.053 98.1991 208.97 98.0843 209.802 97.9121C210.06 108.845 210.461 127.096 210.26 131.974C210.117 136.106 209.544 141.444 209.113 145.203L209.113 145.317C209.343 145.375 209.601 145.404 209.83 145.461L209.859 145.317C210.289 141.558 210.862 136.192 211.006 132.003C211.178 127.067 210.805 108.673 210.547 97.7399C211.78 97.4243 212.698 96.9651 213.386 96.3912C213.644 106.492 214.131 128.416 213.93 133.753C213.787 137.57 213.3 142.477 212.898 145.891L212.898 146.035L213.042 146.064C213.128 146.092 213.214 146.092 213.328 146.121L213.644 146.178L213.672 146.064C214.074 142.62 214.561 137.684 214.705 133.81C214.905 128.358 214.389 105.516 214.131 95.7312C216.74 92.5747 214.561 87.2086 215.249 83.5355Z" fill="#2C2071"/>
<g filter="url(#filter7_di_2_6546)">
<path d="M216.967 52.6565C216.967 51.767 216.852 50.8487 216.68 49.9591C214.788 41.2356 211.949 39.313 208.021 36.5295C203.06 33.0287 194.401 33.6887 190.014 37.9069C186.574 41.2356 183.649 45.6261 183.047 54.6365C182.989 55.4687 182.875 56.3296 182.473 57.047C181.412 58.9696 184.022 62.6713 184.882 69.0705C186.029 77.7366 191.935 81.1514 199.992 82.5288C199.992 82.5288 201.053 83.6766 205.756 83.4758C205.784 83.4758 205.813 83.4758 205.842 83.4758C205.87 83.4758 205.899 83.4758 205.928 83.4758C210.601 82.9592 211.49 81.6679 211.49 81.6679C217.827 77.6792 219.777 75.3549 219.605 66.6314C219.461 59.5722 216.967 60.0313 216.967 52.6565Z" fill="#89471E"/>
<path d="M216.967 52.6565C216.967 51.767 216.852 50.8487 216.68 49.9591C214.788 41.2356 211.949 39.313 208.021 36.5295C203.06 33.0287 194.401 33.6887 190.014 37.9069C186.574 41.2356 183.649 45.6261 183.047 54.6365C182.989 55.4687 182.875 56.3296 182.473 57.047C181.412 58.9696 184.022 62.6713 184.882 69.0705C186.029 77.7366 191.935 81.1514 199.992 82.5288C199.992 82.5288 201.053 83.6766 205.756 83.4758C205.784 83.4758 205.813 83.4758 205.842 83.4758C205.87 83.4758 205.899 83.4758 205.928 83.4758C210.601 82.9592 211.49 81.6679 211.49 81.6679C217.827 77.6792 219.777 75.3549 219.605 66.6314C219.461 59.5722 216.967 60.0313 216.967 52.6565Z" fill="url(#paint3_linear_2_6546)"/>
</g>
<path d="M217.108 55.5523C216.965 54.4619 216.736 54.5193 216.793 52.8836C216.793 52.8836 216.076 50.3584 212.291 50.1288C208.937 49.928 206.786 51.1332 207.704 54.3758C207.704 54.4045 207.732 54.4332 207.732 54.4619C208.277 58.4506 209.08 59.2828 210.37 61.4637C211.575 63.5011 209.74 65.2515 208.593 66.0837C208.076 66.4567 207.876 67.1167 208.048 67.7193C208.478 69.1828 207.704 71.7367 209.166 73.3437C214.012 78.5376 210.37 81.522 208.994 82.8994C210.772 82.4115 211.345 81.8376 211.46 81.6942C211.46 81.6655 211.489 81.6655 211.489 81.6655C217.825 77.6768 219.775 75.3524 219.603 66.6289C219.488 61.2341 217.481 59.2541 217.108 55.5523Z" fill="#623721"/>
<path d="M217.108 55.5523C216.965 54.4619 216.736 54.5193 216.793 52.8836C216.793 52.8836 216.076 50.3584 212.291 50.1288C208.937 49.928 206.786 51.1332 207.704 54.3758C207.704 54.4045 207.732 54.4332 207.732 54.4619C208.277 58.4506 209.08 59.2828 210.37 61.4637C211.575 63.5011 209.74 65.2515 208.593 66.0837C208.076 66.4567 207.876 67.1167 208.048 67.7193C208.478 69.1828 207.704 71.7367 209.166 73.3437C214.012 78.5376 210.37 81.522 208.994 82.8994C210.772 82.4115 211.345 81.8376 211.46 81.6942C211.46 81.6655 211.489 81.6655 211.489 81.6655C217.825 77.6768 219.775 75.3524 219.603 66.6289C219.488 61.2341 217.481 59.2541 217.108 55.5523Z" fill="url(#paint4_linear_2_6546)"/>
<path d="M202.888 57.0188C202.888 57.0188 200.795 56.244 199.935 55.3258C199.419 54.7806 198.387 54.5223 197.555 54.3788C196.408 54.2066 194.975 54.7232 193.971 55.211C193.541 55.4119 193.168 55.6701 192.91 56.0145L194.201 55.9858C195.261 55.9571 196.351 55.9858 197.412 56.1293L199.218 56.3301C199.849 56.4162 200.451 56.5023 201.053 56.6458L202.888 57.0188Z" fill="#290F1A"/>
<path d="M197.439 57.7334C198.295 57.7334 198.988 57.0396 198.988 56.1838C198.988 55.328 198.295 54.6343 197.439 54.6343C196.584 54.6343 195.891 55.328 195.891 56.1838C195.891 57.0396 196.584 57.7334 197.439 57.7334Z" fill="#290F1A"/>
<path d="M208.393 57.4476C208.393 57.4476 210.085 56.5867 210.745 55.6684C211.146 55.1232 211.977 54.8363 212.666 54.6354C213.612 54.3771 214.873 54.8076 215.791 55.1806C216.164 55.3528 216.536 55.5537 216.766 55.8406L215.676 55.898C214.759 55.9267 213.87 56.0415 212.981 56.2424L211.461 56.558C210.945 56.6728 210.429 56.7876 209.913 56.9597L208.393 57.4476Z" fill="#290F1A"/>
<path d="M212.06 57.9338C212.865 57.8717 213.475 57.2578 213.421 56.5626C213.368 55.8674 212.672 55.3541 211.866 55.4162C211.061 55.4782 210.452 56.0922 210.505 56.7874C210.559 57.4826 211.255 57.9959 212.06 57.9338Z" fill="#290F1A"/>
<path d="M216.335 31.6844L217.712 37.1366C217.855 37.7106 217.568 38.2845 217.052 38.5427C215.561 39.2314 214.873 41.0106 215.532 42.5314C216.364 44.4254 217.167 47.1228 216.679 49.9636L213.669 42.9619C212.636 40.6088 210.801 38.6862 208.479 37.5958L203.346 35.1853L205.755 32.2297L216.335 31.6844Z" fill="#424242"/>
<path d="M182.933 57.9392C182.933 57.9392 187.119 45.8296 190.904 44.5096C194.689 43.1896 192.567 39.1435 195.549 37.0201C198.531 34.8966 199.707 39.4592 202.459 32.6009C205.212 25.7426 195.606 23.9635 195.606 23.9635L192.424 26.4887L186.345 31.9983L184.596 40.0044L182.933 57.9392Z" fill="#290F1A"/>
<path d="M202.829 49.13C202.428 50.1917 201.453 50.9378 200.306 51.0526L195.489 51.5691C193.683 51.77 191.991 52.6883 191.045 54.2091C190.93 54.3813 190.844 54.5535 190.758 54.7544C190.758 54.7544 190.758 54.697 190.787 54.5822C191.245 52.4013 192.966 50.7083 195.116 50.1343L201.854 48.4126L202.829 49.13Z" fill="#290F1A"/>
<path d="M182.674 60.7201C182.674 60.7201 182.645 45.4539 197.44 34.4061L195.634 29.9583L182.616 36.673C181.326 37.4765 180.581 38.9113 180.695 40.4322L180.724 41.1209C180.781 42.2113 180.523 43.3305 179.921 44.2487L177.083 50.82C176.308 52.0539 176.165 53.5748 176.681 54.9522L180.925 66.2009L185.656 68.1809L182.674 60.7201Z" fill="#595959"/>
<path d="M182.674 60.7201C182.674 60.7201 182.645 45.4539 197.44 34.4061L195.634 29.9583L182.616 36.673C181.326 37.4765 180.581 38.9113 180.695 40.4322L180.724 41.1209C180.781 42.2113 180.523 43.3305 179.921 44.2487L177.083 50.82C176.308 52.0539 176.165 53.5748 176.681 54.9522L180.925 66.2009L185.656 68.1809L182.674 60.7201Z" fill="url(#paint5_linear_2_6546)"/>
<path d="M207.704 50.3068C208.02 51.2537 208.765 51.8277 209.625 51.7416L213.296 51.4259C214.643 51.3111 215.962 51.9137 216.679 53.2337C216.765 53.3772 216.822 53.5494 216.908 53.6929C216.908 53.6929 216.908 53.6355 216.88 53.5207C216.536 51.4833 215.217 50.1346 213.582 49.9624L208.45 49.4459L207.704 50.3068Z" fill="#29191F"/>
<g filter="url(#filter8_di_2_6546)">
<path d="M185.599 60.9246C185.599 60.9246 182.961 55.415 179.004 56.6777C175.735 57.7107 181.47 70.136 184.079 70.509C186.688 70.882 186.373 67.6681 186.373 67.6681L185.599 60.9246Z" fill="#9B5224"/>
</g>
<path d="M204.924 65.5441C204.924 65.5441 198.874 67.7823 202.372 63.3058L204.924 65.5441Z" fill="#623721"/>
<path d="M205.382 64.305C205.382 64.305 202.285 63.9032 202.802 65.4241C202.802 65.4241 203.862 66.0267 205.382 64.305Z" fill="#290F1A"/>
<g filter="url(#filter9_di_2_6546)">
<path d="M205.384 35.2417L210.287 36.1887C213.699 36.8487 217.082 34.9835 218.401 31.7695L219.691 28.5843C220.523 26.5182 219.548 24.1939 217.512 23.3043C216.021 22.673 215.046 21.2382 215.018 19.6026L214.989 18.3973C214.96 17.4217 214.387 16.5321 213.469 16.1304L204.495 10.9078L202.115 8.12427L196.467 10.3625C194.689 11.0512 193.399 12.6295 193.026 14.4947L191.076 18.7704C189.671 21.8695 187.635 24.6243 185.141 26.8913C182.589 29.1869 181.958 32.9748 183.65 35.9878L186.832 41.6122L195.893 34.9835L205.384 35.2417Z" fill="#F5CB9D"/>
<path d="M205.384 35.2417L210.287 36.1887C213.699 36.8487 217.082 34.9835 218.401 31.7695L219.691 28.5843C220.523 26.5182 219.548 24.1939 217.512 23.3043C216.021 22.673 215.046 21.2382 215.018 19.6026L214.989 18.3973C214.96 17.4217 214.387 16.5321 213.469 16.1304L204.495 10.9078L202.115 8.12427L196.467 10.3625C194.689 11.0512 193.399 12.6295 193.026 14.4947L191.076 18.7704C189.671 21.8695 187.635 24.6243 185.141 26.8913C182.589 29.1869 181.958 32.9748 183.65 35.9878L186.832 41.6122L195.893 34.9835L205.384 35.2417Z" fill="url(#paint6_linear_2_6546)"/>
</g>
<path d="M217.511 23.3001C216.163 22.7262 215.246 21.4636 215.045 20.0001C209.253 21.2053 201.598 26.801 201.598 26.801L217.511 23.3001Z" fill="#2D2D2D"/>
<path d="M189.01 24.5319C189.01 24.5319 188.407 34.7475 195.862 34.9771C195.862 34.9484 178.401 39.9415 189.01 24.5319Z" fill="#2D2D2D"/>
<g filter="url(#filter10_di_2_6546)">
<path d="M214.786 86.8577C214.528 86.2551 214.356 85.7099 214.212 85.1934C214.069 84.7342 213.926 84.3038 213.782 83.9308C213.438 82.8977 212.836 82.7255 212.033 83.0412C212.177 82.9838 212.32 82.9551 212.435 82.9264C211.316 86.9438 209.195 88.3212 204.378 87.6038C199.561 86.8864 187.088 79.856 187.088 79.856C188.493 80.5734 190.271 81.6064 192.278 82.5821C189.898 81.4055 187.862 80.2003 186.4 79.5116C184.88 78.7942 184.794 81.6925 184.794 83.6151L183.934 85.2795C186.4 88.436 191.274 93.716 197.037 94.6343C205.381 96.0117 218.341 95.0934 214.786 86.8577Z" fill="#2C2071"/>
<path d="M214.786 86.8577C214.528 86.2551 214.356 85.7099 214.212 85.1934C214.069 84.7342 213.926 84.3038 213.782 83.9308C213.438 82.8977 212.836 82.7255 212.033 83.0412C212.177 82.9838 212.32 82.9551 212.435 82.9264C211.316 86.9438 209.195 88.3212 204.378 87.6038C199.561 86.8864 187.088 79.856 187.088 79.856C188.493 80.5734 190.271 81.6064 192.278 82.5821C189.898 81.4055 187.862 80.2003 186.4 79.5116C184.88 78.7942 184.794 81.6925 184.794 83.6151L183.934 85.2795C186.4 88.436 191.274 93.716 197.037 94.6343C205.381 96.0117 218.341 95.0934 214.786 86.8577Z" fill="url(#paint7_linear_2_6546)"/>
</g>
<path d="M200.909 69.7039C200.909 69.7039 202.084 73.7213 207.704 73.4918C211.718 73.3196 212.578 71.1387 211.775 69.13L209.912 70.2491L205.209 69.7613L200.909 69.7039Z" fill="#4F1C36"/>
<path d="M212.582 68.7021C212.582 68.7021 211.979 69.1325 211.091 68.616C210.202 68.0995 210.46 67.2099 208.166 68.5873C208.166 68.5873 206.216 67.4682 204.754 68.243C201.944 69.7352 199.392 68.1569 199.392 68.1569C199.392 68.1569 201.198 70.9978 205.643 70.5386C206.216 70.4813 206.818 70.6534 207.334 70.8256L207.592 70.9117C207.879 70.9978 208.223 70.9978 208.539 70.883L208.825 70.7682C209.342 70.5673 209.198 70.4526 209.772 70.4239C210.976 70.3665 211.922 69.5917 212.582 68.7021Z" fill="#290F1A"/>
<path d="M188.15 80.4407C187.519 80.0964 186.917 79.7807 186.401 79.5512C184.881 78.8338 184.795 81.7321 184.795 83.6547L183.935 85.319C184.451 85.979 185.082 86.7251 185.77 87.4999C186.688 85.979 188.838 84.1425 188.15 80.4407Z" fill="#001D26"/>
<path d="M188.783 80.7783C188.897 80.8357 189.012 80.8931 189.155 80.9792C189.041 80.8931 188.926 80.8357 188.783 80.7783C188.811 80.7783 188.811 80.7783 188.783 80.7783Z" fill="#001D26"/>
<path d="M190.385 81.6411C190.471 81.6699 190.529 81.7276 190.615 81.7564C190.558 81.7276 190.471 81.6699 190.385 81.6411Z" fill="#001D26"/>
<path d="M190.96 92.1121L191.992 87.2051C191.992 87.119 192.279 85.3973 192.02 83.9051C191.963 83.5034 191.992 83.159 192.164 82.9295C192.25 82.8147 192.365 82.7573 192.451 82.7286C192.307 82.6425 192.164 82.5851 192.02 82.499C191.963 82.5564 191.906 82.6138 191.848 82.6712C191.59 82.9869 191.504 83.446 191.619 83.9912C191.848 85.3973 191.59 87.119 191.59 87.119L190.587 91.8251C190.644 91.8538 190.673 91.8825 190.702 91.9112C190.788 91.9686 190.874 92.0547 190.96 92.1121Z" fill="#001D26"/>
<path d="M188.926 85.7449C189.069 85.5153 189.155 85.257 189.155 84.9701C189.212 84.1953 189.298 82.3014 189.155 81.5553C189.098 81.2683 189.126 81.0962 189.155 81.0101C189.012 80.9527 188.926 80.8953 188.782 80.8092C188.696 81.0101 188.668 81.2396 188.725 81.6127C188.84 82.3301 188.754 84.3388 188.696 84.9414C188.696 85.1423 188.639 85.3431 188.524 85.5153C187.463 87.3231 187.005 88.1553 186.775 88.5858C186.89 88.7005 186.976 88.7866 187.091 88.9014C187.263 88.6144 187.721 87.811 188.926 85.7449Z" fill="#001D26"/>
<path d="M193.772 83.3931C193.686 83.5939 193.628 83.7661 193.686 83.9957C193.858 84.7992 193.657 87.8696 193.657 87.8983L193.284 93.4366C193.428 93.494 193.571 93.5514 193.714 93.6088L194.087 87.927C194.087 87.8122 194.317 84.7705 194.116 83.9096C194.087 83.7661 194.116 83.68 194.145 83.5652C194.03 83.5079 193.886 83.4505 193.772 83.3931Z" fill="#001D26"/>
<path d="M185.025 86.6636L186.516 84.8271L186.516 84.7697C186.516 84.741 186.631 82.7323 186.516 81.2975C186.459 80.3793 186.86 80.0062 187.061 79.8627C186.918 79.8053 186.774 79.7193 186.66 79.6619C186.373 79.9201 186.029 80.4079 186.086 81.3262C186.172 82.5601 186.115 84.3106 186.086 84.6549L184.739 86.3193C184.853 86.4627 184.939 86.5488 185.025 86.6636Z" fill="#001D26"/>
<path d="M196.091 84.5107C195.977 84.4533 195.862 84.3959 195.747 84.3385C195.69 84.4533 195.604 84.5681 195.575 84.7689C195.403 85.5724 195.575 89.8194 195.575 89.9915L195.805 94.3246C195.948 94.3533 196.092 94.4107 196.235 94.4394L196.005 89.9629C195.948 88.442 195.891 85.4289 196.005 84.8263C196.005 84.7115 196.063 84.5968 196.091 84.5107Z" fill="#001D26"/>
<path d="M209.598 88.2161C209.54 88.044 209.426 87.6709 209.282 87.2692C209.139 87.3266 209.024 87.384 208.881 87.4413C208.995 87.8144 209.11 88.1587 209.167 88.3309C209.282 88.704 209.483 89.0483 209.741 89.3353L213.038 93.2379C213.096 93.2092 213.153 93.1518 213.21 93.1231C213.268 93.0657 213.325 93.037 213.382 93.0083L210.056 89.077C209.856 88.8187 209.684 88.5318 209.598 88.2161Z" fill="#001D26"/>
<path d="M192.281 82.6142C192.252 82.6142 192.223 82.585 192.193 82.585C192.164 82.585 192.164 82.5558 192.135 82.5558C192.193 82.5558 192.252 82.585 192.281 82.6142Z" fill="#001D26"/>
<path d="M184.536 86.0304L185.769 84.4521L185.74 84.3373C184.88 81.3243 185.769 79.9756 186.313 79.4878C186.084 79.4017 185.912 79.4017 185.74 79.4591C185.166 80.1765 184.564 81.6399 185.281 84.3373L184.249 85.6573C184.335 85.8008 184.421 85.9156 184.536 86.0304Z" fill="#001D26"/>
<path d="M188.752 90.3911C188.81 90.4485 188.838 90.4772 188.896 90.5346L190.559 86.1442C190.559 86.0581 190.874 84.2215 190.616 82.8728C190.501 82.3276 190.587 82.012 190.673 81.8111C190.559 81.7537 190.415 81.6963 190.301 81.6102C190.157 81.8972 190.043 82.2702 190.186 82.9302C190.415 84.2215 190.129 86.0294 190.129 86.0294L188.523 90.219C188.609 90.2763 188.695 90.3337 188.752 90.3911Z" fill="#001D26"/>
<path d="M215.161 88.0155C215.103 87.8146 215.017 87.585 214.96 87.3842C214.157 86.8389 213.498 85.892 213.039 85.232C212.896 85.0024 212.752 84.8302 212.638 84.6868C212.437 84.4572 212.265 84.1702 212.093 83.9407C212.036 84.1128 211.978 84.285 211.892 84.4285C212.007 84.6007 212.15 84.8016 212.294 84.945C212.408 85.0598 212.523 85.2607 212.666 85.4616C213.24 86.2937 214.071 87.499 215.161 88.0155Z" fill="#001D26"/>
<path d="M212.782 87.2629C212.409 86.6889 211.664 85.5698 211.492 85.1968C211.406 85.3403 211.32 85.4837 211.234 85.6272C211.578 86.2298 212.381 87.435 212.438 87.5211L215.219 90.4194C215.248 90.2759 215.277 90.1611 215.305 90.0177C215.305 89.989 215.334 89.9316 215.334 89.9029L212.782 87.2629Z" fill="#001D26"/>
<path d="M214.902 91.339L211.863 88.412C211.519 88.0677 211.232 87.6946 211.032 87.2355C210.917 86.9772 210.774 86.6903 210.63 86.3746C210.516 86.4894 210.401 86.5468 210.286 86.6329C210.43 86.9199 210.544 87.1781 210.659 87.4077C210.888 87.8955 211.204 88.3259 211.605 88.699L214.73 91.712C214.788 91.6259 214.816 91.4825 214.902 91.339Z" fill="#001D26"/>
<path d="M212.18 83.0194C212.266 82.9905 212.324 82.9617 212.41 82.9617C212.353 82.9329 212.266 82.9905 212.18 83.0194Z" fill="#001D26"/>
<path d="M198.528 94.8981C198.385 92.8607 197.926 86.6338 197.983 85.7155C197.983 85.6007 198.012 85.4859 198.012 85.3998C197.869 85.3424 197.725 85.2851 197.611 85.2277C197.582 85.3711 197.553 85.5146 197.553 85.7155C197.496 86.6338 197.926 92.7173 198.098 94.8407C198.241 94.8407 198.385 94.8694 198.528 94.8981Z" fill="#001D26"/>
<path d="M213.61 85.1399C213.668 85.226 213.983 85.3981 214.356 85.599C214.327 85.4842 214.241 85.3407 214.213 85.1973C214.184 85.1112 214.155 85.0538 214.155 84.9964C214.069 84.939 213.983 84.8816 213.954 84.8816C213.868 84.7668 212.894 83.5329 212.435 82.959C212.377 83.1312 212.32 83.2746 212.263 83.4181C212.75 84.0494 213.524 85.0251 213.61 85.1399Z" fill="#001D26"/>
<path d="M201.139 95.1315L200.136 91.3723C200.021 90.9132 199.935 90.4541 199.906 89.9949L199.677 86.121C199.534 86.0636 199.39 86.0063 199.247 85.9202L199.476 89.9949C199.505 90.4828 199.591 90.9706 199.706 91.4584L200.652 95.0741C200.709 95.0741 200.738 95.0741 200.795 95.0741C200.939 95.1028 201.025 95.1028 201.139 95.1315Z" fill="#001D26"/>
<path d="M203.892 95.1886L202.602 91.3721C202.43 90.8555 202.315 90.3677 202.258 89.8225C202.229 89.5643 202.029 87.9573 201.885 86.9242C201.742 86.8669 201.57 86.8095 201.427 86.7521C201.541 87.5842 201.713 88.9616 201.828 89.8799C201.885 90.4251 202.029 90.9703 202.201 91.4869L203.434 95.1599C203.606 95.1886 203.749 95.1886 203.892 95.1886Z" fill="#001D26"/>
<path d="M208.48 91.1123C207.993 90.3088 207.678 89.4479 207.534 88.501C207.477 88.214 207.448 87.9844 207.391 87.7549C207.248 87.7549 207.104 87.7549 206.961 87.7549C207.018 88.0131 207.047 88.2427 207.104 88.5584C207.248 89.534 207.592 90.481 208.108 91.3418L210.029 94.4697C210.172 94.441 210.316 94.4123 210.459 94.3549L208.48 91.1123Z" fill="#001D26"/>
<path d="M205.411 90.8185C205.21 90.4742 205.096 90.1011 205.038 89.7281C204.981 89.2403 204.895 88.4081 204.809 87.662C204.666 87.6333 204.522 87.6333 204.379 87.6046C204.465 88.4081 204.551 89.269 204.637 89.7855C204.694 90.2159 204.838 90.6177 205.038 91.0194L207.275 94.9507C207.418 94.922 207.59 94.8933 207.734 94.8933L205.411 90.8185Z" fill="#001D26"/>
<g filter="url(#filter11_di_2_6546)">
<path d="M186.496 78.2832C186.523 73.402 185.402 69.4386 183.993 69.4308C182.583 69.423 181.419 73.3737 181.392 78.255C181.365 83.1362 182.485 87.0996 183.895 87.1074C185.304 87.1152 186.469 83.1645 186.496 78.2832Z" stroke="#9D2B6B" stroke-width="1.30072" stroke-miterlimit="10"/>
</g>
<path d="M181.412 77.0472C181.412 77.0472 183.018 80.2899 186.516 78.2812C186.516 78.2812 186.774 84.8238 183.907 87.0907C181.756 88.8125 181.412 77.0472 181.412 77.0472Z" fill="#9D2B6B"/>
<path d="M212.437 82.9338C212.15 82.9912 211.835 83.106 211.462 83.3356C202.258 89.333 192.194 82.4747 187.09 79.8634C187.09 79.8634 199.592 86.8652 204.38 87.6112C209.168 88.3573 211.319 86.9225 212.437 82.9338Z" fill="#001D26"/>
<path d="M212.437 82.9338C212.15 82.9912 211.835 83.106 211.462 83.3356C202.258 89.333 192.194 82.4747 187.09 79.8634C187.09 79.8634 199.592 86.8652 204.38 87.6112C209.168 88.3573 211.319 86.9225 212.437 82.9338Z" fill="url(#paint8_linear_2_6546)"/>
<g filter="url(#filter12_di_2_6546)">
<path d="M264.612 87.9171C264.612 87.9171 263.234 100.54 263.317 103.899C263.434 109.782 263.298 116.033 262.716 121.861L237.024 121.861L249.798 90.2562L264.612 87.9171Z" fill="#89471E"/>
<path d="M264.612 87.9171C264.612 87.9171 263.234 100.54 263.317 103.899C263.434 109.782 263.298 116.033 262.716 121.861L237.024 121.861L249.798 90.2562L264.612 87.9171Z" fill="url(#paint9_linear_2_6546)"/>
<path d="M248.196 94.8355C248.196 94.8355 243.49 85.6521 243.855 82.0736C244.118 79.3022 245.12 72.6137 245.995 69.2031C246.186 68.4004 247.157 68.0824 247.945 68.5408C249.176 69.2619 249.894 70.6003 249.775 71.9152L250.508 75.4676C250.748 76.5593 252.216 76.9798 252.857 76.11L257.408 70.1677L267.062 59.3457C267.647 58.6964 268.661 58.5768 269.502 59.0556L269.597 59.1228C270.239 59.4935 270.476 60.2817 270.125 60.8712L263.874 71.4149L274.146 61.257C274.888 60.5172 276.142 60.4006 277.147 61.0035L277.389 61.1582C278.03 61.529 278.231 62.3331 277.812 62.8658L268.287 75.2202L277.623 66.8457C278.437 66.0737 279.756 66.1031 280.689 66.8898C281.348 67.4489 281.434 68.3902 280.906 68.971L269.629 81.3996L279.542 75.5792C280.453 75.0262 281.722 75.3386 282.399 76.2377C282.85 76.8668 282.783 77.6578 282.243 78.1131L270.386 88.2285L259.911 96.1899L248.196 94.8355Z" fill="#89471E"/>
<path d="M248.196 94.8355C248.196 94.8355 243.49 85.6521 243.855 82.0736C244.118 79.3022 245.12 72.6137 245.995 69.2031C246.186 68.4004 247.157 68.0824 247.945 68.5408C249.176 69.2619 249.894 70.6003 249.775 71.9152L250.508 75.4676C250.748 76.5593 252.216 76.9798 252.857 76.11L257.408 70.1677L267.062 59.3457C267.647 58.6964 268.661 58.5768 269.502 59.0556L269.597 59.1228C270.239 59.4935 270.476 60.2817 270.125 60.8712L263.874 71.4149L274.146 61.257C274.888 60.5172 276.142 60.4006 277.147 61.0035L277.389 61.1582C278.03 61.529 278.231 62.3331 277.812 62.8658L268.287 75.2202L277.623 66.8457C278.437 66.0737 279.756 66.1031 280.689 66.8898C281.348 67.4489 281.434 68.3902 280.906 68.971L269.629 81.3996L279.542 75.5792C280.453 75.0262 281.722 75.3386 282.399 76.2377C282.85 76.8668 282.783 77.6578 282.243 78.1131L270.386 88.2285L259.911 96.1899L248.196 94.8355Z" fill="url(#paint10_linear_2_6546)"/>
</g>
</g>
<g filter="url(#filter13_di_2_6546)">
<path d="M51.5914 102.457C50.1147 103.886 48.4674 105.184 46.6566 106.32C32.6623 115.099 14.2009 110.871 5.42198 96.8768C-3.35692 82.8826 0.871053 64.4215 14.8654 55.6427C28.8598 46.8639 47.3212 51.0918 56.1001 65.086C62.6673 75.5547 61.9557 88.5232 55.3219 98.0681C59.0928 103.204 65.3606 108.317 68.9415 109.561C68.9415 109.561 59.9132 108.847 51.5914 102.457Z" fill="#E4E2E0"/>
</g>
<path d="M17.9986 86.0514C15.9449 86.1853 14.1698 84.5951 14.0339 82.4996C13.898 80.404 15.4527 78.5967 17.5063 78.4628C19.56 78.3289 21.3351 79.9191 21.471 82.0146C21.6069 84.1102 20.0523 85.9175 17.9986 86.0514Z" fill="#7461E7"/>
<path d="M27.8779 82.7067C28.0139 84.8022 29.8197 86.3904 31.9114 86.2541C34.0032 86.1177 35.5887 84.3083 35.4527 82.2128C35.3168 80.1172 33.5109 78.529 31.4192 78.6654C29.3275 78.8018 27.742 80.6111 27.8779 82.7067Z" fill="#7461E7"/>
<path d="M41.3353 83.3509C41.4713 85.4464 43.2463 87.0367 45.3 86.9027C47.3537 86.7688 48.9083 84.9615 48.7724 82.866C48.6365 80.7704 46.8614 79.1802 44.8078 79.3141C42.7541 79.448 41.1994 81.2553 41.3353 83.3509Z" fill="#7461E7"/>
</g>
<defs>
<filter id="filter0_di_2_6546" x="39.4802" y="114.546" width="122.691" height="90.1304" filterUnits="userSpaceOnUse" color-interpolation-filters="sRGB">
<feFlood flood-opacity="0" result="BackgroundImageFix"/>
<feColorMatrix in="SourceAlpha" type="matrix" values="0 0 0 0 0 0 0 0 0 0 0 0 0 0 0 0 0 0 127 0" result="hardAlpha"/>
<feOffset dx="1.99475" dy="3.59055"/>
<feGaussianBlur stdDeviation="1.19685"/>
<feColorMatrix type="matrix" values="0 0 0 0 0 0 0 0 0 0 0 0 0 0 0 0 0 0 0.7 0"/>
<feBlend mode="soft-light" in2="BackgroundImageFix" result="effect1_dropShadow_2_6546"/>
<feBlend mode="normal" in="SourceGraphic" in2="effect1_dropShadow_2_6546" result="shape"/>
<feColorMatrix in="SourceAlpha" type="matrix" values="0 0 0 0 0 0 0 0 0 0 0 0 0 0 0 0 0 0 127 0" result="hardAlpha"/>
<feOffset dx="-0.7979" dy="0.39895"/>
<feGaussianBlur stdDeviation="0.39895"/>
<feComposite in2="hardAlpha" operator="arithmetic" k2="-1" k3="1"/>
<feColorMatrix type="matrix" values="0 0 0 0 1 0 0 0 0 1 0 0 0 0 1 0 0 0 0.4 0"/>
<feBlend mode="soft-light" in2="shape" result="effect2_innerShadow_2_6546"/>
</filter>
<filter id="filter1_i_2_6546" x="128.349" y="130.739" width="29.099" height="66.3083" filterUnits="userSpaceOnUse" color-interpolation-filters="sRGB">
<feFlood flood-opacity="0" result="BackgroundImageFix"/>
<feBlend mode="normal" in="SourceGraphic" in2="BackgroundImageFix" result="shape"/>
<feColorMatrix in="SourceAlpha" type="matrix" values="0 0 0 0 0 0 0 0 0 0 0 0 0 0 0 0 0 0 127 0" result="hardAlpha"/>
<feOffset dx="-0.598425" dy="0.7979"/>
<feGaussianBlur stdDeviation="0.299213"/>
<feComposite in2="hardAlpha" operator="arithmetic" k2="-1" k3="1"/>
<feColorMatrix type="matrix" values="0 0 0 0 1 0 0 0 0 1 0 0 0 0 1 0 0 0 0.25 0"/>
<feBlend mode="soft-light" in2="shape" result="effect1_innerShadow_2_6546"/>
</filter>
<filter id="filter2_di_2_6546" x="86.4566" y="103.18" width="34.0565" height="34.9606" filterUnits="userSpaceOnUse" color-interpolation-filters="sRGB">
<feFlood flood-opacity="0" result="BackgroundImageFix"/>
<feColorMatrix in="SourceAlpha" type="matrix" values="0 0 0 0 0 0 0 0 0 0 0 0 0 0 0 0 0 0 127 0" result="hardAlpha"/>
<feOffset dx="1.99475" dy="3.59055"/>
<feGaussianBlur stdDeviation="1.19685"/>
<feColorMatrix type="matrix" values="0 0 0 0 0 0 0 0 0 0 0 0 0 0 0 0 0 0 0.7 0"/>
<feBlend mode="soft-light" in2="BackgroundImageFix" result="effect1_dropShadow_2_6546"/>
<feBlend mode="normal" in="SourceGraphic" in2="effect1_dropShadow_2_6546" result="shape"/>
<feColorMatrix in="SourceAlpha" type="matrix" values="0 0 0 0 0 0 0 0 0 0 0 0 0 0 0 0 0 0 127 0" result="hardAlpha"/>
<feOffset dx="-0.7979" dy="0.39895"/>
<feGaussianBlur stdDeviation="0.39895"/>
<feComposite in2="hardAlpha" operator="arithmetic" k2="-1" k3="1"/>
<feColorMatrix type="matrix" values="0 0 0 0 1 0 0 0 0 1 0 0 0 0 1 0 0 0 0.4 0"/>
<feBlend mode="soft-light" in2="shape" result="effect2_innerShadow_2_6546"/>
</filter>
<filter id="filter3_di_2_6546" x="84.5728" y="70.568" width="44.0621" height="59.8335" filterUnits="userSpaceOnUse" color-interpolation-filters="sRGB">
<feFlood flood-opacity="0" result="BackgroundImageFix"/>
<feColorMatrix in="SourceAlpha" type="matrix" values="0 0 0 0 0 0 0 0 0 0 0 0 0 0 0 0 0 0 127 0" result="hardAlpha"/>
<feOffset dx="1.99475" dy="3.59055"/>
<feGaussianBlur stdDeviation="1.19685"/>
<feColorMatrix type="matrix" values="0 0 0 0 0 0 0 0 0 0 0 0 0 0 0 0 0 0 0.7 0"/>
<feBlend mode="soft-light" in2="BackgroundImageFix" result="effect1_dropShadow_2_6546"/>
<feBlend mode="normal" in="SourceGraphic" in2="effect1_dropShadow_2_6546" result="shape"/>
<feColorMatrix in="SourceAlpha" type="matrix" values="0 0 0 0 0 0 0 0 0 0 0 0 0 0 0 0 0 0 127 0" result="hardAlpha"/>
<feOffset dx="-0.7979" dy="0.39895"/>
<feGaussianBlur stdDeviation="0.39895"/>
<feComposite in2="hardAlpha" operator="arithmetic" k2="-1" k3="1"/>
<feColorMatrix type="matrix" values="0 0 0 0 1 0 0 0 0 1 0 0 0 0 1 0 0 0 0.4 0"/>
<feBlend mode="soft-light" in2="shape" result="effect2_innerShadow_2_6546"/>
</filter>
<filter id="filter4_di_2_6546" x="79.8799" y="90.5662" width="14.2968" height="21.1761" filterUnits="userSpaceOnUse" color-interpolation-filters="sRGB">
<feFlood flood-opacity="0" result="BackgroundImageFix"/>
<feColorMatrix in="SourceAlpha" type="matrix" values="0 0 0 0 0 0 0 0 0 0 0 0 0 0 0 0 0 0 127 0" result="hardAlpha"/>
<feOffset dx="1.99475" dy="3.59055"/>
<feGaussianBlur stdDeviation="1.19685"/>
<feColorMatrix type="matrix" values="0 0 0 0 0 0 0 0 0 0 0 0 0 0 0 0 0 0 0.7 0"/>
<feBlend mode="soft-light" in2="BackgroundImageFix" result="effect1_dropShadow_2_6546"/>
<feBlend mode="normal" in="SourceGraphic" in2="effect1_dropShadow_2_6546" result="shape"/>
<feColorMatrix in="SourceAlpha" type="matrix" values="0 0 0 0 0 0 0 0 0 0 0 0 0 0 0 0 0 0 127 0" result="hardAlpha"/>
<feOffset dx="-0.7979" dy="0.39895"/>
<feGaussianBlur stdDeviation="0.39895"/>
<feComposite in2="hardAlpha" operator="arithmetic" k2="-1" k3="1"/>
<feColorMatrix type="matrix" values="0 0 0 0 1 0 0 0 0 1 0 0 0 0 1 0 0 0 0.4 0"/>
<feBlend mode="soft-light" in2="shape" result="effect2_innerShadow_2_6546"/>
</filter>
<filter id="filter5_di_2_6546" x="139.794" y="85.1579" width="34.9374" height="37.5731" filterUnits="userSpaceOnUse" color-interpolation-filters="sRGB">
<feFlood flood-opacity="0" result="BackgroundImageFix"/>
<feColorMatrix in="SourceAlpha" type="matrix" values="0 0 0 0 0 0 0 0 0 0 0 0 0 0 0 0 0 0 127 0" result="hardAlpha"/>
<feOffset dx="0.364347" dy="0.364347"/>
<feGaussianBlur stdDeviation="1.09304"/>
<feColorMatrix type="matrix" values="0 0 0 0 0 0 0 0 0 0 0 0 0 0 0 0 0 0 0.43 0"/>
<feBlend mode="soft-light" in2="BackgroundImageFix" result="effect1_dropShadow_2_6546"/>
<feBlend mode="normal" in="SourceGraphic" in2="effect1_dropShadow_2_6546" result="shape"/>
<feColorMatrix in="SourceAlpha" type="matrix" values="0 0 0 0 0 0 0 0 0 0 0 0 0 0 0 0 0 0 127 0" result="hardAlpha"/>
<feOffset dx="0.364347" dy="0.364347"/>
<feGaussianBlur stdDeviation="0.364347"/>
<feComposite in2="hardAlpha" operator="arithmetic" k2="-1" k3="1"/>
<feColorMatrix type="matrix" values="0 0 0 0 1 0 0 0 0 1 0 0 0 0 1 0 0 0 0.45 0"/>
<feBlend mode="soft-light" in2="shape" result="effect2_innerShadow_2_6546"/>
</filter>
<filter id="filter6_di_2_6546" x="137.973" y="81.006" width="111.408" height="88.019" filterUnits="userSpaceOnUse" color-interpolation-filters="sRGB">
<feFlood flood-opacity="0" result="BackgroundImageFix"/>
<feColorMatrix in="SourceAlpha" type="matrix" values="0 0 0 0 0 0 0 0 0 0 0 0 0 0 0 0 0 0 127 0" result="hardAlpha"/>
<feOffset dx="-1.45739" dy="1.09304"/>
<feGaussianBlur stdDeviation="1.09304"/>
<feColorMatrix type="matrix" values="0 0 0 0 0 0 0 0 0 0 0 0 0 0 0 0 0 0 0.43 0"/>
<feBlend mode="soft-light" in2="BackgroundImageFix" result="effect1_dropShadow_2_6546"/>
<feBlend mode="normal" in="SourceGraphic" in2="effect1_dropShadow_2_6546" result="shape"/>
<feColorMatrix in="SourceAlpha" type="matrix" values="0 0 0 0 0 0 0 0 0 0 0 0 0 0 0 0 0 0 127 0" result="hardAlpha"/>
<feOffset dx="0.364347" dy="0.364347"/>
<feGaussianBlur stdDeviation="0.364347"/>
<feComposite in2="hardAlpha" operator="arithmetic" k2="-1" k3="1"/>
<feColorMatrix type="matrix" values="0 0 0 0 1 0 0 0 0 1 0 0 0 0 1 0 0 0 0.45 0"/>
<feBlend mode="soft-light" in2="shape" result="effect2_innerShadow_2_6546"/>
</filter>
<filter id="filter7_di_2_6546" x="180.402" y="34.2733" width="41.7635" height="54.3269" filterUnits="userSpaceOnUse" color-interpolation-filters="sRGB">
<feFlood flood-opacity="0" result="BackgroundImageFix"/>
<feColorMatrix in="SourceAlpha" type="matrix" values="0 0 0 0 0 0 0 0 0 0 0 0 0 0 0 0 0 0 127 0" result="hardAlpha"/>
<feOffset dx="0.364347" dy="2.91478"/>
<feGaussianBlur stdDeviation="1.09304"/>
<feColorMatrix type="matrix" values="0 0 0 0 0 0 0 0 0 0 0 0 0 0 0 0 0 0 0.43 0"/>
<feBlend mode="soft-light" in2="BackgroundImageFix" result="effect1_dropShadow_2_6546"/>
<feBlend mode="normal" in="SourceGraphic" in2="effect1_dropShadow_2_6546" result="shape"/>
<feColorMatrix in="SourceAlpha" type="matrix" values="0 0 0 0 0 0 0 0 0 0 0 0 0 0 0 0 0 0 127 0" result="hardAlpha"/>
<feOffset dx="1.09304" dy="0.364347"/>
<feGaussianBlur stdDeviation="0.364347"/>
<feComposite in2="hardAlpha" operator="arithmetic" k2="-1" k3="1"/>
<feColorMatrix type="matrix" values="0 0 0 0 1 0 0 0 0 1 0 0 0 0 1 0 0 0 0.45 0"/>
<feBlend mode="soft-light" in2="shape" result="effect2_innerShadow_2_6546"/>
</filter>
<filter id="filter8_di_2_6546" x="174.38" y="53.2105" width="12.7335" height="18.4217" filterUnits="userSpaceOnUse" color-interpolation-filters="sRGB">
<feFlood flood-opacity="0" result="BackgroundImageFix"/>
<feColorMatrix in="SourceAlpha" type="matrix" values="0 0 0 0 0 0 0 0 0 0 0 0 0 0 0 0 0 0 127 0" result="hardAlpha"/>
<feOffset dx="-1.45739" dy="-1.09304"/>
<feGaussianBlur stdDeviation="1.09304"/>
<feColorMatrix type="matrix" values="0 0 0 0 0 0 0 0 0 0 0 0 0 0 0 0 0 0 0.3 0"/>
<feBlend mode="soft-light" in2="BackgroundImageFix" result="effect1_dropShadow_2_6546"/>
<feBlend mode="normal" in="SourceGraphic" in2="effect1_dropShadow_2_6546" result="shape"/>
<feColorMatrix in="SourceAlpha" type="matrix" values="0 0 0 0 0 0 0 0 0 0 0 0 0 0 0 0 0 0 127 0" result="hardAlpha"/>
<feOffset dx="0.364347" dy="0.728695"/>
<feGaussianBlur stdDeviation="0.182174"/>
<feComposite in2="hardAlpha" operator="arithmetic" k2="-1" k3="1"/>
<feColorMatrix type="matrix" values="0 0 0 0 1 0 0 0 0 1 0 0 0 0 1 0 0 0 0.45 0"/>
<feBlend mode="soft-light" in2="shape" result="effect2_innerShadow_2_6546"/>
</filter>
<filter id="filter9_di_2_6546" x="180.884" y="8.12427" width="41.6552" height="38.5888" filterUnits="userSpaceOnUse" color-interpolation-filters="sRGB">
<feFlood flood-opacity="0" result="BackgroundImageFix"/>
<feColorMatrix in="SourceAlpha" type="matrix" values="0 0 0 0 0 0 0 0 0 0 0 0 0 0 0 0 0 0 127 0" result="hardAlpha"/>
<feOffset dx="0.364347" dy="2.91478"/>
<feGaussianBlur stdDeviation="1.09304"/>
<feColorMatrix type="matrix" values="0 0 0 0 0 0 0 0 0 0 0 0 0 0 0 0 0 0 0.43 0"/>
<feBlend mode="soft-light" in2="BackgroundImageFix" result="effect1_dropShadow_2_6546"/>
<feBlend mode="normal" in="SourceGraphic" in2="effect1_dropShadow_2_6546" result="shape"/>
<feColorMatrix in="SourceAlpha" type="matrix" values="0 0 0 0 0 0 0 0 0 0 0 0 0 0 0 0 0 0 127 0" result="hardAlpha"/>
<feOffset dx="0.364347" dy="0.364347"/>
<feGaussianBlur stdDeviation="0.364347"/>
<feComposite in2="hardAlpha" operator="arithmetic" k2="-1" k3="1"/>
<feColorMatrix type="matrix" values="0 0 0 0 1 0 0 0 0 1 0 0 0 0 1 0 0 0 0.45 0"/>
<feBlend mode="soft-light" in2="shape" result="effect2_innerShadow_2_6546"/>
</filter>
<filter id="filter10_di_2_6546" x="182.112" y="77.5782" width="35.8276" height="20.1322" filterUnits="userSpaceOnUse" color-interpolation-filters="sRGB">
<feFlood flood-opacity="0" result="BackgroundImageFix"/>
<feColorMatrix in="SourceAlpha" type="matrix" values="0 0 0 0 0 0 0 0 0 0 0 0 0 0 0 0 0 0 127 0" result="hardAlpha"/>
<feOffset dx="0.364347" dy="0.364347"/>
<feGaussianBlur stdDeviation="1.09304"/>
<feColorMatrix type="matrix" values="0 0 0 0 0 0 0 0 0 0 0 0 0 0 0 0 0 0 0.43 0"/>
<feBlend mode="soft-light" in2="BackgroundImageFix" result="effect1_dropShadow_2_6546"/>
<feBlend mode="normal" in="SourceGraphic" in2="effect1_dropShadow_2_6546" result="shape"/>
<feColorMatrix in="SourceAlpha" type="matrix" values="0 0 0 0 0 0 0 0 0 0 0 0 0 0 0 0 0 0 127 0" result="hardAlpha"/>
<feOffset dx="0.364347" dy="0.364347"/>
<feGaussianBlur stdDeviation="0.364347"/>
<feComposite in2="hardAlpha" operator="arithmetic" k2="-1" k3="1"/>
<feColorMatrix type="matrix" values="0 0 0 0 1 0 0 0 0 1 0 0 0 0 1 0 0 0 0.45 0"/>
<feBlend mode="soft-light" in2="shape" result="effect2_innerShadow_2_6546"/>
</filter>
<filter id="filter11_di_2_6546" x="178.919" y="66.9587" width="10.7777" height="23.3496" filterUnits="userSpaceOnUse" color-interpolation-filters="sRGB">
<feFlood flood-opacity="0" result="BackgroundImageFix"/>
<feColorMatrix in="SourceAlpha" type="matrix" values="0 0 0 0 0 0 0 0 0 0 0 0 0 0 0 0 0 0 127 0" result="hardAlpha"/>
<feOffset dx="0.364347" dy="0.364347"/>
<feGaussianBlur stdDeviation="1.09304"/>
<feColorMatrix type="matrix" values="0 0 0 0 0 0 0 0 0 0 0 0 0 0 0 0 0 0 0.43 0"/>
<feBlend mode="soft-light" in2="BackgroundImageFix" result="effect1_dropShadow_2_6546"/>
<feBlend mode="normal" in="SourceGraphic" in2="effect1_dropShadow_2_6546" result="shape"/>
<feColorMatrix in="SourceAlpha" type="matrix" values="0 0 0 0 0 0 0 0 0 0 0 0 0 0 0 0 0 0 127 0" result="hardAlpha"/>
<feOffset dx="0.364347" dy="0.364347"/>
<feGaussianBlur stdDeviation="0.364347"/>
<feComposite in2="hardAlpha" operator="arithmetic" k2="-1" k3="1"/>
<feColorMatrix type="matrix" values="0 0 0 0 1 0 0 0 0 1 0 0 0 0 1 0 0 0 0.45 0"/>
<feBlend mode="soft-light" in2="shape" result="effect2_innerShadow_2_6546"/>
</filter>
<filter id="filter12_di_2_6546" x="231.559" y="58.7637" width="51.503" height="68.1983" filterUnits="userSpaceOnUse" color-interpolation-filters="sRGB">
<feFlood flood-opacity="0" result="BackgroundImageFix"/>
<feColorMatrix in="SourceAlpha" type="matrix" values="0 0 0 0 0 0 0 0 0 0 0 0 0 0 0 0 0 0 127 0" result="hardAlpha"/>
<feOffset dx="-3.27913" dy="2.91478"/>
<feGaussianBlur stdDeviation="1.09304"/>
<feColorMatrix type="matrix" values="0 0 0 0 0 0 0 0 0 0 0 0 0 0 0 0 0 0 1 0"/>
<feBlend mode="soft-light" in2="BackgroundImageFix" result="effect1_dropShadow_2_6546"/>
<feBlend mode="normal" in="SourceGraphic" in2="effect1_dropShadow_2_6546" result="shape"/>
<feColorMatrix in="SourceAlpha" type="matrix" values="0 0 0 0 0 0 0 0 0 0 0 0 0 0 0 0 0 0 127 0" result="hardAlpha"/>
<feOffset dx="0.364347" dy="0.364347"/>
<feGaussianBlur stdDeviation="0.364347"/>
<feComposite in2="hardAlpha" operator="arithmetic" k2="-1" k3="1"/>
<feColorMatrix type="matrix" values="0 0 0 0 1 0 0 0 0 1 0 0 0 0 1 0 0 0 0.45 0"/>
<feBlend mode="soft-light" in2="shape" result="effect2_innerShadow_2_6546"/>
</filter>
<filter id="filter13_di_2_6546" x="0.84491" y="51.0657" width="69.0966" height="60.8315" filterUnits="userSpaceOnUse" color-interpolation-filters="sRGB">
<feFlood flood-opacity="0" result="BackgroundImageFix"/>
<feColorMatrix in="SourceAlpha" type="matrix" values="0 0 0 0 0 0 0 0 0 0 0 0 0 0 0 0 0 0 127 0" result="hardAlpha"/>
<feOffset dx="0.5" dy="0.5"/>
<feGaussianBlur stdDeviation="0.25"/>
<feColorMatrix type="matrix" values="0 0 0 0 0 0 0 0 0 0 0 0 0 0 0 0 0 0 0.3 0"/>
<feBlend mode="normal" in2="BackgroundImageFix" result="effect1_dropShadow_2_6546"/>
<feBlend mode="normal" in="SourceGraphic" in2="effect1_dropShadow_2_6546" result="shape"/>
<feColorMatrix in="SourceAlpha" type="matrix" values="0 0 0 0 0 0 0 0 0 0 0 0 0 0 0 0 0 0 127 0" result="hardAlpha"/>
<feOffset dx="1" dy="1"/>
<feGaussianBlur stdDeviation="0.5"/>
<feComposite in2="hardAlpha" operator="arithmetic" k2="-1" k3="1"/>
<feColorMatrix type="matrix" values="0 0 0 0 0 0 0 0 0 0 0 0 0 0 0 0 0 0 0.3 0"/>
<feBlend mode="normal" in2="shape" result="effect2_innerShadow_2_6546"/>
</filter>
<linearGradient id="paint0_linear_2_6546" x1="259.947" y1="103.116" x2="230.331" y2="84.7481" gradientUnits="userSpaceOnUse">
<stop stop-color="#623721"/>
<stop offset="0.440311" stop-color="#89471E"/>
<stop offset="0.829788" stop-color="#B4602B"/>
</linearGradient>
<linearGradient id="paint1_linear_2_6546" x1="163.935" y1="118.703" x2="136.592" y2="98.4512" gradientUnits="userSpaceOnUse">
<stop offset="0.220795" stop-color="#2C2071"/>
<stop offset="0.487446" stop-color="#3F2F9B"/>
<stop offset="1" stop-color="#3F2F9B"/>
</linearGradient>
<linearGradient id="paint2_linear_2_6546" x1="250.459" y1="157.391" x2="131.965" y2="72.8628" gradientUnits="userSpaceOnUse">
<stop offset="0.220795" stop-color="#3F2F9B"/>
<stop offset="0.506511" stop-color="#3F2F9B"/>
<stop offset="1" stop-color="#5644BF"/>
</linearGradient>
<linearGradient id="paint3_linear_2_6546" x1="204.078" y1="71.4907" x2="169.461" y2="64.676" gradientUnits="userSpaceOnUse">
<stop offset="0.321312" stop-color="#89471E"/>
<stop offset="0.807903" stop-color="#B4602B"/>
</linearGradient>
<linearGradient id="paint4_linear_2_6546" x1="207.614" y1="64.562" x2="223.825" y2="66.6848" gradientUnits="userSpaceOnUse">
<stop stop-color="#623721"/>
<stop offset="1" stop-color="#89471E"/>
</linearGradient>
<linearGradient id="paint5_linear_2_6546" x1="180.017" y1="65.1452" x2="164.427" y2="27.6145" gradientUnits="userSpaceOnUse">
<stop offset="0.167859" stop-color="#767676"/>
<stop offset="0.519749" stop-color="#595959"/>
</linearGradient>
<linearGradient id="paint6_linear_2_6546" x1="210.124" y1="38.5152" x2="176.544" y2="16.5147" gradientUnits="userSpaceOnUse">
<stop offset="0.43028" stop-color="#424242"/>
<stop offset="0.885053" stop-color="#595959"/>
</linearGradient>
<linearGradient id="paint7_linear_2_6546" x1="216.877" y1="92.9301" x2="195.883" y2="70.8566" gradientUnits="userSpaceOnUse">
<stop offset="0.0844988" stop-color="#2C2071"/>
<stop offset="0.487446" stop-color="#3F2F9B"/>
<stop offset="1" stop-color="#5644BF"/>
</linearGradient>
<linearGradient id="paint8_linear_2_6546" x1="214.369" y1="86.5697" x2="205.127" y2="70.7388" gradientUnits="userSpaceOnUse">
<stop offset="0.544312" stop-color="#2C2071"/>
<stop offset="1" stop-color="#2C2071"/>
</linearGradient>
<linearGradient id="paint9_linear_2_6546" x1="259.947" y1="103.116" x2="230.331" y2="84.7482" gradientUnits="userSpaceOnUse">
<stop stop-color="#623721"/>
<stop offset="0.440311" stop-color="#89471E"/>
<stop offset="0.829788" stop-color="#B4602B"/>
</linearGradient>
<linearGradient id="paint10_linear_2_6546" x1="259.947" y1="103.116" x2="230.331" y2="84.7482" gradientUnits="userSpaceOnUse">
<stop stop-color="#623721"/>
<stop offset="0.440311" stop-color="#89471E"/>
<stop offset="0.829788" stop-color="#B4602B"/>
</linearGradient>
</defs>
</svg>
