<?xml version="1.0" encoding="utf-8"?>
<!-- Generator: Adobe Illustrator 19.2.1, SVG Export Plug-In . SVG Version: 6.00 Build 0)  -->
<svg version="1.1" id="XMLID_1_" xmlns="http://www.w3.org/2000/svg" xmlns:xlink="http://www.w3.org/1999/xlink" x="0px" y="0px"
	 viewBox="0 0 120 76" enable-background="new 0 0 120 76" xml:space="preserve">
<g id="ibm-bee">
	<path d="M43.373,28h33.254c-3.586-4.8223-9.6915-8-16.627-8C53.0645,20,46.959,23.1777,43.373,28z"/>
	<path d="M40.1309,36C40.0469,36.6563,40,37.3242,40,38v6h40v-6c0-0.6758-0.0469-1.3437-0.1309-2H40.1309z"/>
	<path d="M40,58c0,0.6758,0.0469,1.3438,0.1309,2h39.7382C79.9531,59.3438,80,58.6758,80,58v-6H40V58z"/>
	<path d="M60,76c6.9355,0,13.041-3.1777,16.627-8H43.373C46.959,72.8223,53.0645,76,60,76z"/>
	<path d="M8.9219,32.1973c-1.7031,0.707-3.3047,1.7461-4.6895,3.1308c-1.3867,1.3867-2.4238,2.9844-3.1308,4.6875
		C0.3691,41.7852-0.002,43.666,0,45.5469c-0.002,1.8867,0.3691,3.7656,1.1016,5.5332c0.707,1.709,1.7441,3.3047,3.1308,4.6894
		c1.3848,1.3868,2.9864,2.4239,4.6875,3.1328C10.6782,59.6289,12.5508,60,14.4238,60c0.0098,0,0.0196,0,0.0293,0
		c0.0098,0,0.0196,0,0.0293,0c1.8711,0,3.7417-0.3711,5.502-1.1016c1.707-0.705,3.3027-1.7441,4.6875-3.1289
		c1.3847-1.3847,2.4258-2.9824,3.1328-4.6894L40,20L8.9219,32.1973z M24.0962,49.5811c-0.5278,1.2627-1.2857,2.3935-2.2529,3.3603
		c-0.9742,0.9736-2.1133,1.7344-3.3921,2.2627C17.1782,55.7324,15.8433,56,14.4824,56h-0.0586c-1.3628,0-2.7007-0.2676-3.9653-0.79
		c-1.2866-0.5362-2.4287-1.2989-3.3999-2.2705c-0.9712-0.9707-1.7324-2.1104-2.2617-3.3907C4.2666,48.2695,3.9985,46.9238,4,45.543
		c-0.0015-1.3711,0.2671-2.7159,0.7959-3.9942c0.5312-1.2793,1.293-2.4199,2.2651-3.3925c0.9624-0.962,2.0933-1.7188,3.3614-2.251
		l22.5053-8.833L24.0962,49.5811z"/>
	<path d="M118.8984,40.0156c-0.707-1.7031-1.7441-3.3008-3.1308-4.6875c-1.3848-1.3847-2.9863-2.4238-4.6895-3.1308L80,20
		l12.1953,31.0801c0.707,1.707,1.7481,3.3047,3.1328,4.6894c1.3848,1.3848,2.9805,2.4239,4.6875,3.1289
		c1.7603,0.7305,3.6309,1.1016,5.502,1.1016c0.0097,0,0.0195,0,0.0293,0c0.0097,0,0.0195,0,0.0293,0
		c1.873,0,3.7456-0.3711,5.5039-1.0977c1.7012-0.7089,3.3027-1.746,4.6875-3.1328c1.3867-1.3847,2.4238-2.9804,3.1308-4.6894
		c0.7325-1.7676,1.1036-3.6465,1.1016-5.5332C120.002,43.666,119.6309,41.7852,118.8984,40.0156z M115.2021,49.5508
		c-0.5283,1.2783-1.2895,2.418-2.2651,3.3926c-0.9668,0.9677-2.1089,1.7304-3.3848,2.2617C108.2769,55.7324,106.939,56,105.5762,56
		h-0.0586c-1.3609,0-2.6958-0.2676-3.9751-0.7988c-1.2725-0.5254-2.4116-1.2862-3.3858-2.2598
		c-0.9672-0.9668-1.7251-2.0976-2.2529-3.3603l-8.8315-22.5088l22.5053,8.833c1.2681,0.5322,2.399,1.289,3.3614,2.251
		c0.9721,0.9726,1.7339,2.1132,2.2636,3.3886c0.5303,1.2822,0.7989,2.627,0.7974,4.0059
		C116.0015,46.9238,115.7334,48.2695,115.2021,49.5508z"/>
	<path d="M50,16c4.418,0,8-3.5801,8-8s-3.582-8-8-8s-8,3.5801-8,8S45.582,16,50,16z M50,4c2.2056,0,4,1.7949,4,4s-1.7944,4-4,4
		c-2.2056,0-4-1.7949-4-4S47.7944,4,50,4z"/>
	<path d="M70,16c4.418,0,8-3.5801,8-8s-3.582-8-8-8s-8,3.5801-8,8S65.582,16,70,16z M70,4c2.2056,0,4,1.7949,4,4s-1.7944,4-4,4
		c-2.2056,0-4-1.7949-4-4S67.7944,4,70,4z"/>
</g>
</svg>
