<?xml version="1.0" encoding="utf-8"?>
<!-- Generator: Adobe Illustrator 21.0.0, SVG Export Plug-In . SVG Version: 6.00 Build 0)  -->
<svg version="1.1" id="icn-twitter" xmlns="http://www.w3.org/2000/svg" xmlns:xlink="http://www.w3.org/1999/xlink" x="0px"
	 y="0px" viewBox="0 0 25 21" style="enable-background:new 0 0 25 21;" xml:space="preserve">
<path d="M25,2.4c-0.9,0.4-1.9,0.7-2.9,0.8c1.1-0.6,1.9-1.6,2.3-2.8c-1,0.6-2.1,1-3.3,1.2c-0.9-1-2.3-1.6-3.7-1.6
	c-2.8,0-5.1,2.3-5.1,5.1c0,0.4,0,0.8,0.1,1.2C8.1,6.1,4.3,4.1,1.7,1C1.3,1.7,1,2.6,1,3.5C1,5.3,2,6.9,3.3,7.8C2.5,7.8,1.7,7.5,1,7.2
	v0.1c0,2.5,1.8,4.6,4.1,5c-0.4,0.1-0.9,0.2-1.4,0.2c-0.3,0-0.7,0-1-0.1c0.7,2,2.5,3.5,4.8,3.6c-1.8,1.4-4,2.2-6.4,2.2
	c-0.4,0-0.8,0-1.2-0.1c2.3,1.5,5,2.3,7.9,2.3c9.4,0,14.6-7.8,14.6-14.6l0-0.7C23.4,4.4,24.3,3.4,25,2.4z"/>
</svg>
