<?xml version="1.0" encoding="utf-8"?>
<!-- Generator: Adobe Illustrator 21.0.0, SVG Export Plug-In . SVG Version: 6.00 Build 0)  -->
<svg version="1.1" id="icn-mail" xmlns="http://www.w3.org/2000/svg" xmlns:xlink="http://www.w3.org/1999/xlink" x="0px" y="0px"
	 viewBox="0 0 26 19" style="enable-background:new 0 0 26 19;" xml:space="preserve">
<g>
	<path d="M1,1.5C0.7,2,0.5,2.5,0.5,3.2v12.5c0,0.5,0.2,1.1,0.4,1.5l7.9-8.8L1,1.5z"/>
	<path d="M23.8,0.4C23.4,0.2,22.9,0,22.3,0H3.6c-0.5,0-1,0.1-1.5,0.4L13,9.9L23.8,0.4z"/>
	<path d="M13.5,11.5c-0.1,0.1-0.3,0.2-0.5,0.2c-0.2,0-0.4-0.1-0.5-0.2L10,9.3l-8,8.9c0.5,0.3,1,0.5,1.6,0.5h18.7
		c0.6,0,1.2-0.2,1.6-0.5l-8-8.9L13.5,11.5z"/>
	<path d="M25,1.5l-7.8,6.8l7.9,8.8c0.2-0.4,0.4-1,0.4-1.5V3.2C25.5,2.5,25.3,2,25,1.5z"/>
</g>
</svg>
