<?xml version="1.0" encoding="utf-8"?>
<!-- Generator: Adobe Illustrator 21.0.0, SVG Export Plug-In . SVG Version: 6.00 Build 0)  -->
<svg version="1.1" id="icn-linkedin" xmlns="http://www.w3.org/2000/svg" xmlns:xlink="http://www.w3.org/1999/xlink" x="0px"
	 y="0px" viewBox="0 0 25 24" style="enable-background:new 0 0 25 24;" xml:space="preserve">
<path d="M22.7,0H2.3c-1,0-1.8,0.8-1.8,1.7v20.5c0,0.9,0.8,1.7,1.8,1.7h20.4c1,0,1.8-0.8,1.8-1.7V1.7C24.5,0.8,23.7,0,22.7,0z
	 M7.8,20H4.1V9.2h3.6V20H7.8z M6,7.8L6,7.8C4.8,7.8,4,7,4,5.9C3.9,4.8,4.7,4,6,4c1.2,0,2,0.8,2,1.9C8,6.9,7.2,7.8,6,7.8z M20.8,20
	h-3.6v-5.8c0-1.5-0.5-2.4-1.8-2.4c-1,0-1.6,0.7-1.9,1.3c-0.1,0.2-0.1,0.6-0.1,0.9v6H9.8c0,0,0-9.8,0-10.8h3.6v1.5
	C13.9,10,14.7,9,16.6,9c2.4,0,4.2,1.5,4.2,4.9V20z"/>
</svg>
