<?xml version="1.0" encoding="utf-8"?>
<!-- Generator: Adobe Illustrator 21.0.0, SVG Export Plug-In . SVG Version: 6.00 Build 0)  -->
<svg version="1.1" id="icn-phone" xmlns="http://www.w3.org/2000/svg" xmlns:xlink="http://www.w3.org/1999/xlink" x="0px" y="0px"
	 viewBox="0 0 25 25" style="enable-background:new 0 0 25 25;" xml:space="preserve">
<path d="M23.9,19.4l-3.8-3.8c-0.8-0.8-2-0.7-2.8,0.1l-1.9,1.9c-0.1-0.1-0.2-0.1-0.4-0.2c-1.2-0.7-2.9-1.6-4.6-3.3
	c-1.7-1.7-2.7-3.4-3.3-4.6C7.1,9.3,7.1,9.2,7,9l1.3-1.3l0.6-0.6c0.8-0.8,0.8-2,0.1-2.8L5.2,0.6c-0.8-0.8-2-0.7-2.8,0.1L1.3,1.7l0,0
	C1,2.2,0.7,2.7,0.5,3.3C0.3,3.8,0.1,4.3,0.1,4.9C-0.4,9,1.5,12.8,6.6,17.9c7.1,7.1,12.8,6.6,13.1,6.5c0.5-0.1,1.1-0.2,1.6-0.4
	c0.6-0.2,1.1-0.5,1.5-0.9l0,0l1.1-1.1C24.7,21.4,24.7,20.1,23.9,19.4z"/>
</svg>
