<?xml version="1.0" encoding="UTF-8"?>
<svg width="25px" height="25px" viewBox="0 0 25 25" version="1.1" xmlns="http://www.w3.org/2000/svg" xmlns:xlink="http://www.w3.org/1999/xlink">
    <!-- Generator: Sketch 46.2 (44496) - http://www.bohemiancoding.com/sketch -->
    <title>001-dribbble</title>
    <desc>Created with Sketch.</desc>
    <defs></defs>
    <g id="Page-1" stroke="none" stroke-width="1" fill="none" fill-rule="evenodd">
        <g id="Artboard" transform="translate(-270.000000, -120.000000)" fill-rule="nonzero" fill="#383838">
            <g id="icons" transform="translate(25.000000, 120.000000)">
                <g id="001-dribbble" transform="translate(245.000000, 0.000000)">
                    <path d="M18.6930235,5.52600345 C18.5249768,5.76539423 17.1186349,7.65567666 13.7966078,8.90072431 C12.2657659,6.08808193 10.5689399,3.77742424 10.3107527,3.43167402 C11.0132675,3.26231454 11.7462509,3.17189261 12.5000469,3.17189261 C14.8737939,3.17189261 17.0431662,4.06228379 18.6930235,5.52600345 Z M13.1531086,12.5957891 C8.33492708,14.1533057 5.77096154,18.3984959 5.55932118,18.7608867 C4.06724492,17.1045576 3.15763668,14.9138531 3.15763668,12.5143203 C3.15763668,12.4186953 3.15955855,12.3236796 3.16241792,12.2287576 C3.57121429,12.2371483 8.098443,12.2954608 12.7639059,10.8992412 C13.0312806,11.4226946 13.2867959,11.9539762 13.5213112,12.4846953 C13.3976551,12.5195703 13.2749365,12.5565078 13.1531086,12.5957891 Z M12.5,0 C5.59644613,0 0,5.59645662 0,12.5000234 C0,19.4035434 5.59644613,25 12.5,25 C19.403507,25 25,19.4035434 25,12.5000234 C24.9999531,5.59645662 19.403507,0 12.5,0 Z M12.5,23.4375146 C6.46902316,23.4375146 1.56248242,18.5310585 1.56248242,12.5000234 C1.56248242,6.46903529 6.46902316,1.56253223 12.5,1.56253223 C18.5310706,1.56248535 23.4374707,6.46903529 23.4374707,12.5000234 C23.4374707,18.5310585 18.5310706,23.4375146 12.5,23.4375146 Z M15.1346998,11.6431479 C14.9407313,11.1875695 14.7323253,10.7349911 14.5149194,10.2899127 C17.96904,8.8797243 19.53471,6.8728168 19.7315847,6.60633225 C21.0326456,8.19609887 21.8205196,10.2209126 21.8411914,12.4259609 C21.5331762,12.3608046 18.4445394,11.7343667 15.335934,12.1252576 C15.2704497,11.96532 15.2034185,11.8046324 15.1346998,11.6431479 Z M11.9918756,9.46261529 C7.62186547,10.6230535 3.77291716,10.606366 3.35502706,10.6008348 C3.9608388,7.70184856 5.91449261,5.29242518 8.52819246,4.05970566 C8.77442653,4.39744025 10.4439713,6.71091044 11.9918756,9.46261529 Z M14.0947324,14.0502744 C14.1152167,14.0431494 14.1357011,14.0364931 14.1562323,14.0295088 C15.46784,17.437839 16.0102769,20.2944033 16.1493548,21.1141538 C15.0275437,21.5918572 13.7942171,21.8566074 12.5,21.8566074 C10.3402371,21.8566074 8.34959894,21.1196851 6.76560092,19.8844343 C6.93369446,19.5406997 8.82528584,15.8865099 14.0947324,14.0502744 Z M15.9048551,13.5977897 C18.8324765,13.1291332 21.4045045,13.8963837 21.7241916,13.9972119 C21.3076609,16.5966197 19.8157252,18.8416524 17.719806,20.2587314 C17.6240873,19.6904186 17.126838,16.9556356 15.9048551,13.5977897 Z" id="Shape"></path>
                </g>
            </g>
        </g>
    </g>
</svg>