<svg id="Layer_1" data-name="Layer 1" xmlns="http://www.w3.org/2000/svg" viewBox="0 0 509.5 513.5"><defs><style>.cls-1{fill-rule:evenodd;}</style></defs><title>Artboard 1</title><path class="cls-1" d="M423.16,245.31c10.12-7.53,21.74-14.34,31.1-23.46C487,190,493.78,150,487.81,106.62c-6.58-47.84-33.13-80-78.78-94.35A192.67,192.67,0,0,0,368.34,4.5H9.5V19.28c18.18-.48,44.42,2.67,60.68,11.21,14.58,7.66,22.07,18.61,22,36.21-.49,123.22-.26,246.45-.26,369.68,0,30.65-13.5,47.68-43.74,53.84C34.64,493,24,494.28,9.5,496.36v6.78h0v6.56c44.16-.42,283.17.07,354.81.29,7.51,0,11.75-3,15.06-9.62,13.49-27,27.42-53.86,41.18-80.76.46-.91.94-1.81,1.41-2.71H409.18c-6.8,9,0,0-22.86,26.48-18.45,21.36-46.57,33.47-76.24,32.41-63.75,0-80.9-.35-121.36-.38-3.24,0-6.48-.34-9.75-.52v-214a26.32,26.32,0,0,1,4-.69c61.76.09-.93.07,185.28.67,27.86.53,54.16,9.17,76.57,26.66,22,17.2,30.21,41.62,32.44,68.18,3.41,40.5-4,78-40.39,102-12.1,7.34-12.1,7.34-12.65,8.44l-17.67,35c39.46-9.45,86.33-41.1,95.57-104.94C512.45,325,489.12,280.34,423.16,245.31ZM361.1,232.2c-58.62.64-117.26.14-175.89.12-1.81,0-3.61-.26-6.81-.51,0-3.61,0-6.33,0-9.06q-.15-87.94-.3-175.88c0-12.28,2.39-16.15,14.55-16.65,22.46-.92,45-.61,67.47-.45,34.23.24,68.47.53,102.7,1.29,18.67.42,36.7,4.45,53.46,13.07,38,19.55,49.62,53.58,47.73,92.86C461.22,194.54,420.72,231.54,361.1,232.2Z"/></svg>