<?xml version="1.0" encoding="utf-8"?>
<!-- Generator: Adobe Illustrator 21.0.0, SVG Export Plug-In . SVG Version: 6.00 Build 0)  -->
<svg version="1.1" id="Layer_1" xmlns="http://www.w3.org/2000/svg" xmlns:xlink="http://www.w3.org/1999/xlink" x="0px" y="0px"
	 viewBox="0 0 25 25" style="enable-background:new 0 0 25 25;" xml:space="preserve">
<style type="text/css">
	.st0{fill-rule:evenodd;clip-rule:evenodd;}
</style>
<path class="st0" d="M12.5,25C5.6,25,0,19.4,0,12.5C0,5.6,5.6,0,12.5,0C19.4,0,25,5.6,25,12.5C25,19.4,19.4,25,12.5,25L12.5,25z
	 M23,14.2c-0.4-0.1-3.3-1-6.7-0.5c1.4,3.8,2,7,2.1,7.6C20.9,19.7,22.6,17.2,23,14.2L23,14.2z M16.7,22.3c-0.2-0.9-0.8-4.2-2.3-8.1
	c0,0,0,0-0.1,0c-6,2.1-8.2,6.3-8.4,6.7c1.8,1.4,4.1,2.3,6.6,2.3C14,23.2,15.4,22.9,16.7,22.3L16.7,22.3z M4.6,19.7
	c0.2-0.4,3.2-5.3,8.7-7c0.1,0,0.3-0.1,0.4-0.1c-0.3-0.6-0.6-1.2-0.9-1.8c-5.3,1.6-10.5,1.5-11,1.5c0,0.1,0,0.2,0,0.3
	C1.8,15.3,2.9,17.8,4.6,19.7L4.6,19.7z M2,10.3c0.5,0,4.9,0,9.9-1.3c-1.8-3.1-3.7-5.8-4-6.2C5,4.3,2.7,7,2,10.3L2,10.3z M10,2.1
	c0.3,0.4,2.2,3,4,6.3c3.8-1.4,5.4-3.6,5.6-3.9c-1.9-1.7-4.4-2.7-7.1-2.7C11.6,1.8,10.8,1.9,10,2.1L10,2.1z M20.8,5.8
	c-0.2,0.3-2,2.6-6,4.2c0.2,0.5,0.5,1,0.7,1.5c0.1,0.2,0.2,0.4,0.2,0.6c3.6-0.4,7.1,0.3,7.4,0.3C23.2,9.9,22.3,7.6,20.8,5.8L20.8,5.8
	z"/>
</svg>
