<svg width="44" height="48" viewBox="0 0 44 48" fill="none" xmlns="http://www.w3.org/2000/svg">
<path d="M15.2317 27.6885C13.0308 24.0378 14.2252 19.3057 17.8994 17.1189C20.4975 15.5726 23.6398 15.713 26.0358 17.2187C27.1613 17.9259 28.6081 18.2166 29.7485 17.5378C30.7748 16.927 31.2167 15.7085 31.3161 14.5228C31.4759 12.6183 32.5217 10.8179 34.2932 9.76366C37.2207 8.02128 41.0213 8.97636 42.782 11.8969C44.5427 14.8174 43.5968 18.5974 40.6693 20.3398C39.0259 21.3179 37.1075 21.446 35.4292 20.8536C34.298 20.4543 33.0116 20.3092 31.9831 20.9213L31.235 21.3665C30.2038 21.9803 29.7138 23.1721 29.6138 24.3635C29.4131 26.7521 28.0971 29.0133 25.8696 30.3391C22.1954 32.5259 17.4326 31.3392 15.2317 27.6885Z" fill="url(#paint0_linear_207_54054)"/>
<path d="M27.7357 41.8217C27.7357 45.2339 24.9755 48 21.5706 48C18.1657 48 15.4055 45.2339 15.4055 41.8217C15.4055 38.4096 18.1657 35.6435 21.5706 35.6435C24.9755 35.6435 27.7357 38.4096 27.7357 41.8217Z" fill="#003A9B"/>
<path d="M27.7357 6.17826C27.7357 9.59042 24.9755 12.3565 21.5706 12.3565C18.1657 12.3565 15.4055 9.59042 15.4055 6.17826C15.4055 2.7661 18.1657 0 21.5706 0C24.9755 0 27.7357 2.7661 27.7357 6.17826Z" fill="#003A9B"/>
<path d="M40.0468 27.5589C42.9956 29.265 44.0059 33.0436 42.3034 35.9986C40.601 38.9536 36.8304 39.9661 33.8817 38.26C30.933 36.5539 29.9226 32.7754 31.6251 29.8203C33.3276 26.8653 37.0981 25.8529 40.0468 27.5589Z" fill="#003A9B"/>
<path d="M9.24873 9.7372C12.1975 11.4433 13.2078 15.2218 11.5053 18.1769C9.80287 21.1319 6.03234 22.1443 3.0836 20.4383C0.134858 18.7322 -0.875454 14.9536 0.827001 11.9986C2.52946 9.04359 6.29999 8.03113 9.24873 9.7372Z" fill="#003A9B"/>
<path d="M9.25627 38.2496C6.30753 39.9557 2.53699 38.9432 0.834537 35.9882C-0.867918 33.0332 0.142395 29.2546 3.09113 27.5486C6.03987 25.8425 9.81041 26.855 11.5129 29.81C13.2153 32.765 12.205 36.5435 9.25627 38.2496Z" fill="#003A9B"/>
<defs>
<linearGradient id="paint0_linear_207_54054" x1="15.6521" y1="26.9551" x2="44.0758" y2="20.5441" gradientUnits="userSpaceOnUse">
<stop stop-color="#7461E7"/>
<stop offset="1" stop-color="#C74289"/>
</linearGradient>
</defs>
</svg>
