<svg width="28" height="28" viewBox="0 0 28 28" fill="none" xmlns="http://www.w3.org/2000/svg">
<g opacity="0.89">
<path d="M9.75433 5.85293L4.88726 10.7295C1.47288 14.1431 1.47288 19.6876 4.88726 23.1012C8.30163 26.5148 13.8473 26.5148 17.2617 23.1012L24.7585 15.5849C25.2781 15.0866 25.2781 14.2491 24.7585 13.7297C24.6354 13.6062 24.4891 13.5083 24.3281 13.4415C24.167 13.3747 23.9944 13.3403 23.8201 13.3403C23.6457 13.3403 23.4731 13.3747 23.3121 13.4415C23.151 13.5083 23.0048 13.6062 22.8817 13.7297L18.1948 18.4154L17.442 17.6627L24.3768 10.7295C24.8963 10.21 24.8963 9.37254 24.3768 8.85308C23.8572 8.33362 23.0089 8.33362 22.4787 8.85308L16.318 15.0548L15.5863 14.2809L22.8711 6.97666C23.3906 6.4572 23.3906 5.6197 22.8711 5.10024C22.3515 4.58078 21.5138 4.58078 20.9942 5.10024L13.6883 12.4045L12.9354 11.6624L18.7674 5.85293C19.2976 5.33347 19.2976 4.49597 18.7674 3.97651C18.2373 3.45705 17.4102 3.45705 16.8906 3.97651L8.81061 12.0547C9.44327 12.8706 9.75675 13.8891 9.69233 14.9194C9.62792 15.9498 9.19004 16.9213 8.46069 17.6521L7.70783 16.8994C8.30355 16.3031 8.63815 15.4948 8.63815 14.652C8.63815 13.8092 8.30355 13.0008 7.70783 12.4045L7.3367 12.0335L11.6524 7.71875C12.172 7.19929 12.172 6.36179 11.6524 5.84233C11.1222 5.33347 10.2845 5.33347 9.75433 5.85293Z" fill="#2D2D2D"/>
<path d="M20.4643 26.8227C23.9741 26.8227 26.8265 23.971 26.8265 20.4619H25.236C25.236 23.1123 23.1152 25.2325 20.4643 25.2325V26.8227Z" fill="#2D2D2D"/>
<path d="M7.52735 1.16663C4.01754 1.16663 1.16516 4.01836 1.16516 7.52737H2.75571C2.75571 4.87706 4.87644 2.75681 7.52735 2.75681V1.16663Z" fill="#2D2D2D"/>
</g>
</svg>
