<svg width="254" height="162" viewBox="0 0 254 162" fill="none" xmlns="http://www.w3.org/2000/svg">
<mask id="mask0_2_6474" style="mask-type:alpha" maskUnits="userSpaceOnUse" x="1" y="1" width="253" height="161">
<path d="M1 96C1 62.8629 27.8629 36 61 36H163C196.137 36 223 62.8629 223 96V102C223 135.137 196.137 162 163 162H1V96Z" fill="#9288EE"/>
<path d="M254 68.5C254 90.8675 235.868 109 213.5 109C191.132 109 173 90.8675 173 68.5C173 46.1325 191.132 28 213.5 28C235.868 28 254 46.1325 254 68.5Z" fill="#2D2D2D"/>
<path d="M165.128 16.8246L58.5781 1L38.1203 138.746L144.67 154.57L165.128 16.8246Z" fill="white"/>
</mask>
<g mask="url(#mask0_2_6474)">
<path d="M1 96C1 62.8629 27.8629 36 61 36H163C196.137 36 223 62.8629 223 96V102C223 135.137 196.137 162 163 162H1V96Z" fill="#9288EE"/>
<mask id="mask1_2_6474" style="mask-type:alpha" maskUnits="userSpaceOnUse" x="-5" y="-8" width="209" height="170">
<path d="M-5 42C-5 14.3858 17.3858 -8 45 -8H144C177.137 -8 204 18.8629 204 52V102C204 135.137 177.137 162 144 162H3C-1.41828 162 -5 158.418 -5 154V42Z" fill="#E2E0FD"/>
</mask>
<g mask="url(#mask1_2_6474)">
<g filter="url(#filter0_di_2_6474)">
<path d="M13.6124 97.8301L21.7974 128.651C22.6498 131.858 22.3625 135.257 20.9874 138.276L-8.43237 174.999H29.3231L48.2879 145.346C56.1997 132.139 52.9738 108.093 51.5704 100.146C51.0429 97.1597 50.9205 94.1217 51.1936 91.1024L51.2643 90.3242C51.6316 86.2453 52.5123 82.2322 53.8027 78.3409C55.823 72.2368 57.2594 60.6379 55.0695 59.5549L55.2484 59.5174L57.9564 58.9595L66.9372 52.0349L61.7945 45.2275L37.8283 55.5605C36.6368 56.0762 35.596 56.8779 34.8001 57.9L21.1569 75.392C14.4036 80.1553 11.2813 88.5473 13.2875 96.5361L13.6124 97.8301ZM53.2564 58.9361C53.2658 58.9361 53.2799 58.9408 53.2893 58.9455C53.1998 58.9267 53.1104 58.9126 53.0162 58.8986C53.0962 58.908 53.1763 58.9173 53.2564 58.9361ZM52.9926 58.8939C51.5139 58.697 50.0351 59.2455 49.0367 60.3332C50.0351 59.2455 51.5139 58.6876 52.9926 58.8939Z" fill="url(#paint0_linear_2_6474)"/>
</g>
<g filter="url(#filter1_di_2_6474)">
<path d="M138.89 104.206L138.723 105.328L138.498 106.44L138.258 107.553L137.88 108.627L137.632 109.739L137.191 110.791L136.861 111.884L136.388 112.926L135.833 113.944L135.316 114.981L134.895 116.056L134.574 117.173L133.986 118.187L133.675 119.304L133.196 120.359L132.794 121.443L132.498 122.565L131.952 123.602L131.579 124.696L131.292 125.817L130.909 126.911L130.636 128.032L130.278 129.13L129.885 130.219L129.694 131.364L129.378 132.476L129.053 133.584L128.88 134.729L128.526 135.837L128.412 136.991L128.182 138.122L127.866 139.239L127.818 140.398L127.526 141.524L127.369 142.669L127.33 143.829L127.172 144.974L127.163 146.128L127.177 147.283L127.024 148.437L127.005 149.596L127.201 150.746L127.144 151.91L127.369 153.05L127.589 154.181L127.804 155.312L127.909 156.471L128.364 157.541L128.718 158.625L128.971 159.747L129.388 160.812L129.742 161.896L130.067 162.99L130.474 164.06L130.866 165.134L131.191 166.232L131.636 167.288L131.9 168.405L132.225 169.503L132.67 170.564L132.986 171.667L133.455 172.718L133.708 173.844L134.144 174.914L135.34 174.881L136.526 174.844L137.713 174.91L138.904 174.844L140.091 174.952L141.278 174.919L142.464 174.924L143.656 174.877L144.842 174.872L146.029 174.881L147.215 174.994L148.407 174.886L149.593 174.853L150.785 174.834L151.976 174.933L153.168 174.811L154.359 174.886L155.55 174.849L156.742 174.914L157.928 174.83L159.12 174.834L160.311 174.971L161.502 174.956L162.694 174.999L163.885 174.975L165.053 174.886L164.584 173.886L164.177 172.826L163.732 171.779L163.206 170.77L162.723 169.738L162.297 168.682L161.813 167.65L161.172 166.692L160.847 165.589L160.349 164.566L159.809 163.562L159.311 162.539L158.842 161.502L158.388 160.46L157.962 159.404L157.412 158.4L156.88 157.382L156.694 156.143L156.799 154.904L156.856 153.679L156.928 152.449L157.22 151.253L157.502 150.051L158.057 148.944L158.632 147.855L159.081 146.748L159.751 145.762L160.316 144.72L160.914 143.697L161.512 142.674L162.144 141.67L162.555 140.548L163.148 139.52L163.804 138.526L164.301 137.446L164.947 136.447L165.593 135.447L166.201 134.424L166.703 133.349L167.263 132.303L167.837 131.266L168.45 130.247L169.048 129.22L169.584 128.159L170.258 127.173L170.727 126.075L171.416 125.099L171.9 124.006L172.569 123.016L173.211 122.011L173.722 120.937L174.287 119.89L174.99 118.74L175.526 117.722L175.986 116.671L176.268 115.559L176.684 114.489L176.914 113.367L177.077 112.241L177.306 111.119L177.402 109.979L177.44 108.834L177.368 107.689L177.258 106.548L177.01 105.427L176.727 104.319L176.34 103.244L175.986 102.16L175.555 101.104L175.11 100.049L174.44 99.11L173.842 98.1339L173.187 97.1953L172.469 96.2943L172.081 95.1868L171.555 94.1402L171.139 93.0468L170.569 92.0191L170.019 90.9819L169.651 89.8697L169.062 88.8467L168.679 87.7391L168.191 86.6739L167.799 85.571L167.167 84.5668L166.708 83.4921L166.234 82.4221L165.885 81.3005L165.378 80.2446L164.828 79.2075L164.354 78.1328L163.904 77.0487L163.416 75.9835L162.852 74.8149L162.034 73.7966L160.947 73.0598L160.062 72.2526L159.043 71.6144L158.091 70.8917L157.191 70.0986L156.191 69.4369L155.335 68.5922L154.321 67.9445L153.426 67.1468L152.469 66.4287L151.488 65.7389L150.493 65.0678L149.531 64.3498L148.632 63.5567L147.598 62.9325L146.646 62.2051L145.684 61.4965L144.737 60.7597L143.794 60.0183L142.837 59.2956L141.947 58.4884L140.933 57.8314L139.971 57.1274L138.981 57.8455L138.091 58.6996L137.12 59.4551L136.072 60.1215L135.153 60.9475L134.139 61.6561L133.22 62.468L133.885 63.3784L134.627 64.2466L135.321 65.1523L135.986 66.0768L136.756 66.9215L137.426 67.846L138.235 68.6626L138.861 69.6199L139.574 70.5163L140.292 71.4267L141.636 71.8913L142.88 72.5295L143.048 72.675L142.096 73.3179L141.522 74.3175L141.115 75.3875L140.919 76.5138L140.679 77.626L140.488 78.7476L140.23 79.8551L140 80.972L139.876 82.103L139.866 83.2434L139.732 84.3743L139.703 85.5147L139.565 86.6457L139.526 87.7814L139.56 88.9171L139.474 90.0574L139.55 91.1931L139.603 92.31L139.77 93.4222L139.785 94.5391L139.813 95.656L139.818 96.773L139.627 97.8852L139.689 99.0068L139.565 100.119L139.349 101.222L139.287 102.339L139.115 103.442L138.89 104.206ZM148.718 74.8243L148.124 73.9655L147.278 73.2522L146.278 72.7829L145.249 72.5201L146.306 72.7031L147.268 73.2616L148.177 73.9139L148.718 74.8243ZM144.933 72.5436L145.182 72.4873L144.9 72.4779L144.933 72.5436Z" fill="url(#paint1_linear_2_6474)"/>
</g>
<g filter="url(#filter2_di_2_6474)">
<path d="M165.128 16.8246L58.5781 1L38.1203 138.746L144.67 154.57L165.128 16.8246Z" fill="white"/>
</g>
<g filter="url(#filter3_di_2_6474)">
<path d="M108.664 81.4949L144.573 87.1415L142.753 99.0622L106.604 93.6685L108.664 81.4949Z" fill="#B4B2B1"/>
</g>
<path d="M103.801 69.0271L108.871 29.6082L63.7502 22.5586L57.8691 62.5713L103.801 69.0271Z" fill="#F3F2F1"/>
<g filter="url(#filter4_di_2_6474)">
<path fill-rule="evenodd" clip-rule="evenodd" d="M140.402 106.841L105.834 102.308L106.239 99.2183L140.807 103.752L140.402 106.841Z" fill="#B4B2B1"/>
</g>
<g filter="url(#filter5_di_2_6474)">
<path d="M14.2392 97.5124L22.4451 128.46C23.2997 131.68 23.0117 135.093 21.633 138.124L-9 174.999H29.5227L43.5172 145.2C55.4389 118.696 45.4955 115.307 44.0885 107.332C43.5596 104.338 44.3859 101.377 44.6598 98.3504C44.6598 98.341 44.6645 98.3316 44.6645 98.3221C44.8108 97.9879 48.3614 91.2373 49.622 87.4195C50.538 84.6467 50.656 81.2855 50.9582 78.9553C51.369 75.8295 50.0847 72.7225 47.5776 70.8018C47.5446 70.7736 47.5068 70.7501 47.4738 70.7218C45.9582 69.5732 43.7627 70.3405 43.3141 72.1859C43.3141 72.1859 41.6049 76.9264 40.5662 79.8592C40.0232 81.3938 39.3009 82.8579 38.4132 84.2278L35.3301 88.9965C34.8863 89.5426 34.5369 90.164 34.3008 90.8277L31.6473 98.2986C31.6426 98.3127 32.9977 78.1456 32.9977 78.1456C33.0921 76.7145 33.4651 75.3211 34.0883 74.0312L40.9912 59.8191L56.8318 57.456C58.2907 56.9475 59.5041 55.9119 60.2265 54.5514L60.982 53.4498C61.8979 51.7269 60.4815 50.6912 58.7534 49.7827L54.6221 50.0369L41.9685 49.2083C40.5332 49.1142 39.1026 49.4767 37.8939 50.2487C36.4113 51.1949 34.4755 52.513 33.0732 53.5581C31.992 54.3631 31.128 55.427 30.5472 56.6463L23.753 70.8913C22.6482 73.2027 21.1231 75.2787 19.2959 77.077C14.2958 82.0011 12.1759 89.2554 13.9181 96.2038L14.2392 97.5124Z" fill="url(#paint2_linear_2_6474)"/>
</g>
<g filter="url(#filter6_di_2_6474)">
<path d="M134.159 174.999H165.136L156.697 157.4C156.101 154.125 156.659 150.747 158.282 147.834L173.848 119.837L174.487 118.655C178.408 111.371 177.433 102.441 172.037 96.1635L163.059 75.8077C162.534 74.6219 161.721 73.582 160.685 72.7915L157.246 70.1611L155.486 82.5318C158.017 84.9739 160.325 88.7759 160.77 94.366L155.037 125.676C155.037 125.662 155.032 125.648 155.032 125.629L153.363 114.905L150.619 101.975C150.61 101.471 147.275 93.1096 147.176 92.6155L147.237 86.5032C147.256 84.6869 145.402 83.4352 143.723 84.1363C143.614 84.1834 143.501 84.2304 143.392 84.2775C140.516 85.5244 138.525 88.1877 138.156 91.2886C137.877 93.6272 137.683 96.5681 137.891 99.4996C138.189 103.598 139.513 111.654 139.513 111.654C139.036 114.656 138.359 118.006 137.111 120.782C133.785 128.17 123.29 129.031 128.37 157.626L134.159 174.999Z" fill="url(#paint3_linear_2_6474)"/>
</g>
<path d="M47.668 74.6655L46.4204 74.1932L45.3108 73.5602L44.2679 72.8104L43.3059 71.861L42.9774 73.0441L42.5678 74.1786L42.2297 75.3374L41.8011 76.467L41.4344 77.6112L41.5725 78.8527L42.225 79.9288L43.0583 80.8587L44.1346 81.4722L45.3108 81.8666L46.5632 82.0614L46.7347 80.8246L46.8156 79.5831L47.0251 78.361L47.2537 77.1437L47.3585 75.9022L47.668 74.6655Z" fill="#F39E78"/>
<path d="M146.229 86.5953L145.346 86.8574L144.525 87.3084L143.705 87.738L142.903 88.2234L142.306 88.9666L142.384 90.0835L142.59 91.1961L142.707 92.3259L142.939 93.3956L143.73 93.0433L144.496 92.588L145.316 92.2615L146.233 92.1971L146.148 91.063L146.126 89.9461L146.273 88.8334L146.159 87.7165L146.229 86.5953Z" fill="#F39E78"/>
<path d="M88 47.9191L86.5484 58L77 55.8761L79.4948 45L88 47.9191Z" fill="#89471E"/>
<path d="M79.7167 44.6707C79.0965 46.5119 77.4637 43.3137 77.2049 41.8458C76.8614 39.8885 77.8429 38.1129 79.1412 39.4698C80.2342 40.6048 80.0379 43.7173 79.7167 44.6707Z" fill="#B4602B"/>
<path d="M89.0592 45.6375C89.3153 47.7054 91.5833 44.8254 92.132 43.3773C92.8636 41.443 92.2372 39.3538 90.6688 40.4118C89.3519 41.2988 88.9266 44.5635 89.0592 45.6375Z" fill="#B4602B"/>
<path d="M91.7924 38.9983C92.2188 35.1528 89.5955 31.7061 85.9332 31.3001C82.2709 30.894 78.9563 33.6823 78.53 37.5278C78.1036 41.3734 80.7268 44.82 84.3891 45.2261C88.0515 45.6322 91.366 42.8439 91.7924 38.9983Z" fill="#B4602B"/>
<path d="M91.0838 37.0847C90.8766 35.9244 90.2778 34.8573 89.481 34.0092C88.4954 32.9514 87.0538 31.889 85.6122 31.6466V31.642C85.5938 31.642 85.5754 31.6373 85.5569 31.6373C85.5385 31.6327 85.5201 31.6327 85.5017 31.628V31.6327C84.0463 31.5488 82.4066 32.2664 81.2137 33.0819C80.2557 33.7389 79.4405 34.643 78.9846 35.7287C78.6714 36.4836 78.2661 37.4435 78.2707 38.2777C78.2707 38.2916 78.2937 43.301 78.2937 43.301L78.2891 44.713C78.2845 45.9665 78.8141 47.1594 79.7399 47.9889L81.3841 49.4661C81.8355 49.8715 82.402 50.1278 83.0008 50.193L83.5719 50.2582L84.0232 50.3095C84.622 50.3747 85.2299 50.2536 85.7596 49.96L87.7631 48.837C88.7948 48.2592 89.5363 47.2619 89.7896 46.0923L90.112 44.6244C90.112 44.6244 91.222 39.7409 91.222 39.7269C91.4154 38.9161 91.2266 37.8862 91.0838 37.0847Z" fill="#B4602B"/>
<path d="M84.5042 38.7041C84.5042 38.7041 84.4992 38.7144 84.4891 38.7349C84.2114 39.227 83.6662 39.5038 83.1108 39.4371C82.1567 39.3192 80.5058 39.186 79.9707 39.5601C79.9707 39.5601 80.2635 38.4427 81.2883 38.4273C82.3132 38.412 84.5042 38.7041 84.5042 38.7041Z" fill="#89471E"/>
<path d="M84.5025 38.4141L84.3095 39.1098C84.22 39.4442 83.8809 39.6276 83.5183 39.5359L81.8418 39.126C81.4556 39.0289 81.0647 39.0074 80.688 39.0505L79.4023 39.2069L80.7916 38.0096C80.98 37.8801 81.2249 37.8316 81.4697 37.8747L84.5025 38.4141Z" fill="#462615"/>
<path d="M82.2542 43.485C82.1902 43.1559 82.2884 42.8568 82.9422 42.9944C82.9422 42.9944 84.143 44.0772 85.5703 43.4012C85.5703 43.4012 86.3822 43.6585 86.1685 44.2627C86.066 44.5439 85.8181 44.6994 85.5703 44.6516C85.3438 44.6097 85.0276 44.5379 84.7456 44.4123C84.3439 44.2328 83.9165 44.1909 83.4978 44.2328C83.361 44.2448 83.1986 44.2507 83.0149 44.2388C82.6602 44.2148 82.3397 43.9157 82.2542 43.485Z" fill="#89471E"/>
<path d="M83.3709 44.0429L82.2375 44.0933C82.2375 44.0933 82.4469 42.8525 83.3709 44.0429Z" fill="#462615"/>
<path d="M85.6368 44.3439L86.7698 44.6609C86.7745 44.666 86.7651 43.6333 85.6368 44.3439Z" fill="#462615"/>
<path d="M86.2031 38.4268C86.2031 38.4268 86.2152 38.6319 86.2754 39.0081C86.3597 39.5406 86.7451 39.863 87.1866 39.9168C87.9494 40.0096 89.25 40.2343 89.6033 40.6935C89.6033 40.6935 89.5671 39.5943 88.7763 39.3598C87.9855 39.1254 86.2031 38.4268 86.2031 38.4268Z" fill="#89471E"/>
<path d="M83.3715 39.5599L80.5381 39.3669L81.7711 39.0733C81.9935 39.0187 82.2207 38.9894 82.448 38.9936C82.4577 38.9936 82.4673 38.9936 82.4818 38.9936C82.888 38.9978 83.2458 39.2285 83.3715 39.5599Z" fill="#462615"/>
<path d="M82.584 40.119C82.6872 39.8332 82.5729 39.5301 82.3287 39.4418C82.0844 39.3536 81.8028 39.5138 81.6996 39.7995C81.5964 40.0853 81.7107 40.3884 81.9549 40.4766C82.1991 40.5648 82.4808 40.4047 82.584 40.119Z" fill="#462615"/>
<path d="M81.1024 44.6604C81.1024 44.6604 83.2041 44.6413 83.714 45.0483C84.5337 45.6969 84.977 44.9338 85.7061 45.3154C86.4353 45.6969 87.336 45.7986 87.336 45.7986L84.7053 46.3264C84.3193 46.409 83.9285 46.3391 83.5711 46.1356L81.1024 44.6604Z" fill="#623721"/>
<path d="M81.1024 44.6603C81.1024 44.6603 82.2748 46.4428 83.2184 46.7058C84.162 46.9639 85.139 46.9249 85.139 46.9249C85.139 46.9249 86.3066 46.5207 87.336 45.5321L86.1636 45.7123C85.9587 45.7415 85.7585 45.7609 85.5536 45.7658L84.0333 45.8145L81.1024 44.6603Z" fill="#89471E"/>
<path d="M60.7014 62.6075L64.4442 55.1174C64.9373 54.5326 65.4351 54.0554 65.9094 53.6671C66.1301 53.1431 66.3274 52.7782 66.5011 52.6145C68.2669 50.9349 77.5981 50.8928 77.5981 50.8928C77.5981 50.8928 78.0442 61.3865 87.6665 52.7361L98.3831 57.3396C98.3831 57.3396 102.225 65.6485 102.065 68.4602L60.7014 62.6075Z" fill="#5644BF"/>
<path d="M85.9637 37.8595L85.6368 41.2596C85.6368 41.2596 86.0322 39.9648 86.7702 39.4753L85.9637 37.8595Z" fill="#89471E"/>
<path d="M86.7695 40.1623L89.0363 40.6939L88.1233 39.9092C87.9595 39.77 87.7878 39.6561 87.6044 39.5928C87.5966 39.5928 87.5888 39.5865 87.5771 39.5865C87.265 39.4789 86.9373 39.713 86.7695 40.1623Z" fill="#462615"/>
<path d="M87.9562 41.1167C88.2139 41.0841 88.3918 40.8134 88.3537 40.512C88.3156 40.2105 88.0759 39.9926 87.8183 40.0251C87.5607 40.0577 87.3827 40.3285 87.4208 40.6299C87.4589 40.9313 87.6986 41.1492 87.9562 41.1167Z" fill="#462615"/>
<path d="M86.2031 37.8594L86.2562 38.6608C86.2783 39.0436 86.557 39.3426 86.9064 39.3426L88.5163 39.3606C88.8834 39.3666 89.2461 39.4443 89.5867 39.5998L90.7366 40.1261L89.6796 38.4395C89.5292 38.2481 89.3169 38.1285 89.0825 38.1046L86.2031 37.8594Z" fill="#462615"/>
<path d="M82.8037 47.4944C82.8037 47.4944 84.4484 47.2287 85.6372 47.3912C85.6372 47.3912 84.788 47.0636 84.3143 46.9423C83.845 46.8211 82.8037 47.4944 82.8037 47.4944Z" fill="#89471E"/>
<path d="M90.4452 43.5271C90.4452 43.5271 92.6831 40.3353 93.3891 38.3363C94.0905 36.3373 92.5401 35.2482 92.5401 35.2482C92.5401 35.2482 92.1617 32.08 90.1684 31.2832C88.175 30.4911 86.154 26.7053 80.9538 30.3544C80.9538 30.3544 79.8141 30.7787 80.7138 31.9291C80.7138 31.9291 77.3132 32.3864 78.5359 38.0157L78.679 41.1227C78.679 41.1227 78.702 36.0308 81.2675 33.6546C83.0902 31.9621 82.6241 32.1271 84.0176 32.41C85.4111 32.6929 88.3181 33.9328 89.5178 33.6264C90.7175 33.3199 91.1374 35.6678 91.6495 37.5772C92.1525 39.4867 90.4452 43.5271 90.4452 43.5271Z" fill="#462615"/>
<g filter="url(#filter7_di_2_6474)">
<path d="M56.216 74.6943L102.07 81.3396L99.3923 99.062L53.9014 92.4167L56.216 74.6943Z" fill="#B4B2B1"/>
</g>
<g filter="url(#filter8_di_2_6474)">
<path d="M117.146 31.626L150.24 36.7486L148.442 48.06L115.105 43.1773L117.146 31.626Z" fill="#B4B2B1"/>
</g>
<g filter="url(#filter9_di_2_6474)">
<path fill-rule="evenodd" clip-rule="evenodd" d="M89.9568 107.972L53.1221 102.871L53.5494 99.7852L90.3842 104.885L89.9568 107.972Z" fill="#B4B2B1"/>
</g>
<g filter="url(#filter10_di_2_6474)">
<path fill-rule="evenodd" clip-rule="evenodd" d="M141.519 55.2695L113.751 51.3027L114.192 48.2183L141.959 52.1851L141.519 55.2695Z" fill="#B4B2B1"/>
</g>
<g filter="url(#filter11_di_2_6474)">
<path fill-rule="evenodd" clip-rule="evenodd" d="M139.847 63.2066L112.646 59.8065L113.032 56.7148L140.233 60.115L139.847 63.2066Z" fill="#B4B2B1"/>
</g>
<g filter="url(#filter12_di_2_6474)">
<path fill-rule="evenodd" clip-rule="evenodd" d="M131.88 114.204L104.679 110.238L105.129 107.155L132.33 111.121L131.88 114.204Z" fill="#B4B2B1"/>
</g>
<g filter="url(#filter13_di_2_6474)">
<path fill-rule="evenodd" clip-rule="evenodd" d="M78.0696 113.641L52.002 110.24L52.4049 107.151L78.4726 110.551L78.0696 113.641Z" fill="#B4B2B1"/>
</g>
<path d="M162.961 30.4927L164.973 16.9103L58.158 1.0249L56.1689 14.4327L162.961 30.4927Z" fill="#2D2D2D"/>
<path fill-rule="evenodd" clip-rule="evenodd" d="M70.8235 6.37502C70.7638 6.17458 70.6605 5.99021 70.5211 5.8353C69.8271 5.09335 68.809 4.94903 67.8894 5.14638C66.5337 5.5195 65.4841 6.57017 64.8954 7.90598L64.8494 8.02935C64.7695 8.24322 64.6932 8.4471 64.6301 8.66802C64.6301 8.66802 64.5743 8.93127 64.6214 8.88493C64.6693 8.81366 64.7076 8.73645 64.7356 8.65525C64.9985 8.04023 65.3456 7.46491 65.7666 6.94605C66.8109 5.78572 68.3253 5.14058 69.7787 5.78479C70.0313 5.93223 70.274 6.09625 70.5051 6.27581C70.5403 6.32169 70.8527 6.63378 70.8235 6.37502ZM79.2602 7.9694C79.3791 7.8399 79.5565 7.77974 79.7306 7.8099C79.9037 7.81917 80.0607 7.91431 80.1482 8.06302C80.2484 8.25033 80.2822 8.46562 80.244 8.67408L79.5519 14.3219C79.5478 14.53 79.464 14.7286 79.3175 14.8773C79.1811 14.9812 79.0087 15.0272 78.8379 15.0053C78.6666 14.9885 78.5099 14.9016 78.4056 14.7656C78.2953 14.5865 78.2544 14.3739 78.2907 14.1674L78.3056 14.0454C78.1205 14.2058 77.9206 14.3485 77.7085 14.4717C77.5257 14.5796 77.3246 14.6535 77.1149 14.6899L76.8573 14.7213C76.7183 14.7299 76.5789 14.7266 76.4405 14.7115C76.1319 14.6691 75.8366 14.5587 75.5763 14.3885C75.3183 14.2258 75.1011 14.0068 74.9413 13.7482C74.765 13.4703 74.646 13.1605 74.5913 12.8368C74.5403 12.4762 74.5358 12.1108 74.5779 11.7494C74.6759 10.9493 74.9608 10.3393 75.43 9.93858C75.8957 9.53788 76.5163 9.36202 77.1258 9.45804C77.2575 9.46996 77.3879 9.49321 77.5156 9.52751C77.7159 9.56873 77.9062 9.64887 78.0753 9.76332C78.3556 9.94548 78.5975 10.1802 78.7872 10.4542L79.0211 8.54593C79.0363 8.33314 79.1202 8.131 79.2602 7.9694ZM85.0764 13.3342C85.2747 13.2539 85.4019 13.0607 85.4392 12.7262C85.4797 12.3596 85.4265 11.9877 85.2844 11.6445C85.122 11.2722 84.858 10.951 84.5223 10.7173C84.1307 10.4452 83.6767 10.2756 83.2031 10.2245L83.1618 10.2195C82.7997 10.1707 82.4323 10.1895 82.0789 10.2749C81.7523 10.3538 81.4475 10.5013 81.1852 10.7076C80.9303 10.9257 80.7213 11.1911 80.5697 11.4892C80.4038 11.817 80.3001 12.1727 80.2635 12.5388C80.1477 13.2496 80.3341 13.9799 80.7786 14.5576C81.1864 15.0679 81.7891 15.3694 82.5732 15.5059L82.7166 15.5233C83.0554 15.5734 83.3995 15.5659 83.7342 15.5013C84.0047 15.4556 84.266 15.3693 84.5091 15.2454C84.6894 15.1358 84.8526 15.0012 84.994 14.8457C85.0956 14.7361 85.1621 14.5991 85.1854 14.4516C85.2054 14.3365 85.1726 14.2179 85.096 14.1277C85.0136 14.035 84.8986 13.9767 84.775 13.9649C84.6722 13.9414 84.5646 13.9579 84.4748 14.011L84.4507 14.0272L84.4507 14.0272L84.4507 14.0272C84.2775 14.1438 84.127 14.2451 84.0164 14.3314C83.9352 14.3947 83.8521 14.4364 83.7661 14.4795L83.766 14.4796L83.7659 14.4796L83.7658 14.4797L83.7657 14.4797L83.7656 14.4797L83.7655 14.4798C83.729 14.4981 83.692 14.5167 83.6543 14.5374C83.5275 14.6067 83.386 14.6468 83.2405 14.6545C83.0951 14.6799 82.9462 14.6824 82.7993 14.6617L82.6951 14.6491C82.497 14.6197 82.3084 14.5439 82.145 14.428C81.9586 14.2814 81.8124 14.0908 81.72 13.8743C81.6195 13.6106 81.586 13.3273 81.6225 13.0495L84.2469 13.3682C84.5231 13.4222 84.8074 13.4105 85.0764 13.3342ZM90.6976 13.4305C90.6604 13.7651 90.5332 13.9583 90.3349 14.0386C90.0652 14.1098 89.7815 14.1163 89.5071 14.0576L86.8807 13.7386C86.855 14.0165 86.8882 14.2974 86.9782 14.5634C87.139 14.9754 87.5084 15.2745 87.9477 15.3485L88.0519 15.3611C88.1988 15.3803 88.3475 15.3779 88.4931 15.3538C88.6317 15.3409 88.7658 15.3003 88.8873 15.2343C88.9263 15.2146 88.9649 15.1969 89.0029 15.1794L89.003 15.1794L89.003 15.1794L89.003 15.1794C89.0967 15.1363 89.1865 15.0949 89.2689 15.0307C89.3795 14.9444 89.53 14.8431 89.7032 14.7266L89.7273 14.7104C89.8171 14.6572 89.9246 14.6407 90.0274 14.6642C90.1502 14.6654 90.2674 14.7175 90.3505 14.8078C90.4366 14.9003 90.4629 15.0323 90.4183 15.1486C90.3949 15.2961 90.3284 15.4331 90.2269 15.5427C90.0853 15.698 89.9221 15.8326 89.742 15.9424C89.5015 16.0684 89.2421 16.1565 88.9732 16.2034C88.6393 16.2683 88.2959 16.2758 87.9579 16.2257L87.8124 16.208C87.0261 16.0712 86.4234 15.7698 86.0157 15.2594C85.5721 14.6812 85.3859 13.9513 85.5006 13.2406C85.5369 12.8742 85.6414 12.5184 85.809 12.1912C85.9588 11.892 86.168 11.6262 86.4244 11.4095C86.6859 11.2032 86.9899 11.0556 87.3159 10.9766C87.6697 10.8893 88.0381 10.8705 88.4009 10.9214L88.4422 10.9264C88.9156 10.9747 89.3696 11.1445 89.759 11.4189C90.0998 11.6479 90.3658 11.9706 90.5233 12.3465C90.6701 12.6894 90.7299 13.0617 90.6976 13.4305ZM87.5241 12.0498C87.2508 12.2942 87.0729 12.6286 87.0217 12.9945L89.4373 13.2928C89.468 12.9279 89.3752 12.5617 89.1739 12.2535C88.9767 11.9998 88.6826 11.8409 88.365 11.8166C88.0625 11.7643 87.7543 11.8497 87.5241 12.0498ZM82.2419 11.3657C81.9837 11.6225 81.8093 11.9525 81.7414 12.3128L84.1549 12.6108C84.1852 12.2454 84.0925 11.8787 83.8917 11.5694C83.6936 11.3171 83.3997 11.1592 83.0826 11.1346C82.7806 11.0831 82.4731 11.1676 82.2419 11.3657ZM67.28 9.45039L66.8959 12.5351C66.8478 12.7661 66.9012 13.0069 67.0434 13.201C67.1643 13.36 67.3483 13.464 67.551 13.488C67.7574 13.512 67.9646 13.4591 68.1299 13.3403C68.3131 13.1847 68.4207 12.9629 68.4274 12.727L68.8242 9.3412C68.431 9.50395 67.9979 9.56034 67.5714 9.50431C67.4725 9.49711 67.3747 9.47902 67.28 9.45039ZM78.188 13.1562C78.0662 13.3708 77.8756 13.5386 77.6465 13.6329C77.2207 13.8114 76.7302 13.7429 76.3696 13.4544C76.1764 13.2991 76.0404 13.0845 75.9829 12.8443C75.9036 12.5429 75.8848 12.2291 75.9275 11.9207C75.9618 11.6186 76.0548 11.326 76.2013 11.0593C76.3153 10.8342 76.4994 10.6518 76.7263 10.5393C76.9285 10.4202 77.1656 10.3727 77.3987 10.4046L77.4203 10.4072C77.6533 10.4358 77.8709 10.5388 78.0403 10.7006C78.2284 10.8655 78.3692 11.0769 78.4485 11.3133C78.5257 11.6076 78.5446 11.914 78.5043 12.2152C78.4764 12.5492 78.3695 12.8718 78.1923 13.1567L78.188 13.1562ZM73.6735 9.16679C73.9181 9.34778 74.1029 9.59816 74.204 9.8858C74.2687 10.0554 74.3018 10.2357 74.3017 10.4176C74.2987 10.6531 74.2819 10.8882 74.2512 11.1219L73.9391 13.521C73.9327 13.7367 73.843 13.942 73.6891 14.0936C73.5508 14.2099 73.3707 14.2633 73.1921 14.2407C73.0135 14.2182 72.8528 14.1218 72.7489 13.9748C72.6253 13.8014 72.5754 13.5857 72.6102 13.3749L72.899 11.1554C72.966 10.8214 72.9537 10.4766 72.8631 10.149C72.7875 9.93076 72.5581 9.77792 72.1893 9.73134C71.9586 9.69787 71.723 9.74484 71.5219 9.86439C71.3072 9.9837 71.1327 10.1645 71.0209 10.3836C70.8923 10.7298 70.8102 11.0915 70.777 11.459L70.5812 13.0969C70.5759 13.3136 70.4894 13.5207 70.3389 13.677C70.2066 13.8058 70.021 13.8632 69.8399 13.8313C69.6586 13.813 69.496 13.7124 69.3987 13.5583C69.3028 13.3764 69.2713 13.1672 69.3091 12.9645L69.7821 9.21218C69.7963 9.01287 69.879 8.82435 70.0162 8.67885C70.2443 8.49742 70.5646 8.4907 70.7985 8.66245C70.8756 8.74103 70.9371 8.8336 70.9797 8.93527C71.0257 9.06458 71.0367 9.20392 71.0116 9.3392L71.0027 9.40762C71.2274 9.19778 71.4886 9.0311 71.7732 8.91594C72.0931 8.81596 72.4302 8.78448 72.7625 8.82354C73.0918 8.85347 73.4066 8.97206 73.6735 9.16679ZM96.0109 10.0275C96.1766 10.0407 96.3244 10.1359 96.4053 10.2817C96.501 10.4688 96.5309 10.6835 96.4903 10.8909L95.7104 16.4984C95.7026 16.7055 95.6168 16.9023 95.4706 17.049C95.3355 17.1507 95.1664 17.1951 95.0001 17.1724C94.8321 17.1549 94.6798 17.0669 94.5805 16.93C94.4732 16.7516 94.4362 16.5389 94.4765 16.3334L94.4934 16.2122C94.309 16.3701 94.1103 16.5104 93.9001 16.6311C93.7189 16.7368 93.5204 16.8086 93.3142 16.8429L93.0631 16.8722C92.926 16.8792 92.7886 16.8746 92.6525 16.8584C92.3507 16.8134 92.0631 16.701 91.8109 16.5293C91.5637 16.3665 91.3567 16.1493 91.2054 15.8938C91.0375 15.6157 90.9264 15.3063 90.8786 14.9837C90.8362 14.6244 90.8384 14.2609 90.8852 13.9015C90.9958 13.1062 91.2861 12.5017 91.7535 12.1072C92.2174 11.7126 92.8291 11.5431 93.4249 11.6441C93.5538 11.6571 93.6813 11.6814 93.8059 11.7167C94.0016 11.7595 94.1867 11.8409 94.3505 11.9563C94.6224 12.1396 94.8554 12.3753 95.036 12.6502L95.2998 10.7533C95.3186 10.5417 95.4045 10.3413 95.5447 10.1818C95.6646 10.0541 95.8402 9.99594 96.0109 10.0275ZM94.4181 15.3387C94.2953 15.5509 94.1059 15.7162 93.8799 15.8082C93.4546 15.9858 92.9684 15.9124 92.6168 15.6177C92.4299 15.4614 92.3003 15.2468 92.2482 15.0074C92.1758 14.7069 92.1631 14.3946 92.2106 14.0882C92.2497 13.788 92.3462 13.4978 92.495 13.2338C92.6109 13.0109 92.795 12.8312 93.0198 12.7213C93.2205 12.6046 93.4541 12.5595 93.6824 12.5933L93.7035 12.5961C93.9318 12.6266 94.1435 12.7309 94.3069 12.8934C94.4886 13.0591 94.623 13.2707 94.6966 13.5065C94.7678 13.7999 94.7816 14.1049 94.7372 14.4044C94.7032 14.7365 94.5916 15.0563 94.4117 15.3378L94.4181 15.3387ZM67.262 7.25123C67.3887 7.00127 67.6098 6.81201 67.8766 6.72514C68.438 6.54057 69.0438 6.84458 69.2311 7.40489C69.3255 7.6712 69.3066 7.9643 69.179 8.21604C69.0513 8.46779 68.826 8.65624 68.5554 8.73759C67.9941 8.92092 67.3892 8.61733 67.2009 8.05785C67.1132 7.79136 67.1352 7.50119 67.262 7.25123Z" fill="white"/>
</g>
<circle cx="213.5" cy="68.5" r="40.5" fill="#2D2D2D"/>
<g filter="url(#filter14_di_2_6474)">
<path d="M213.849 82.6867L237.231 51.8211L230.756 46.9155L212.835 70.5718L202.675 61.003L197.105 66.917L213.849 82.6867Z" fill="white"/>
</g>
</g>
<defs>
<filter id="filter0_di_2_6474" x="-9.93237" y="44.2275" width="81.8696" height="135.772" filterUnits="userSpaceOnUse" color-interpolation-filters="sRGB">
<feFlood flood-opacity="0" result="BackgroundImageFix"/>
<feColorMatrix in="SourceAlpha" type="matrix" values="0 0 0 0 0 0 0 0 0 0 0 0 0 0 0 0 0 0 127 0" result="hardAlpha"/>
<feOffset dx="2" dy="2"/>
<feGaussianBlur stdDeviation="1.5"/>
<feColorMatrix type="matrix" values="0 0 0 0 0 0 0 0 0 0 0 0 0 0 0 0 0 0 0.3 0"/>
<feBlend mode="normal" in2="BackgroundImageFix" result="effect1_dropShadow_2_6474"/>
<feBlend mode="normal" in="SourceGraphic" in2="effect1_dropShadow_2_6474" result="shape"/>
<feColorMatrix in="SourceAlpha" type="matrix" values="0 0 0 0 0 0 0 0 0 0 0 0 0 0 0 0 0 0 127 0" result="hardAlpha"/>
<feOffset dx="-1.5" dy="1"/>
<feGaussianBlur stdDeviation="0.75"/>
<feComposite in2="hardAlpha" operator="arithmetic" k2="-1" k3="1"/>
<feColorMatrix type="matrix" values="0 0 0 0 1 0 0 0 0 1 0 0 0 0 1 0 0 0 0.3 0"/>
<feBlend mode="soft-light" in2="shape" result="effect2_innerShadow_2_6474"/>
</filter>
<filter id="filter1_di_2_6474" x="125.505" y="56.1274" width="56.9353" height="123.871" filterUnits="userSpaceOnUse" color-interpolation-filters="sRGB">
<feFlood flood-opacity="0" result="BackgroundImageFix"/>
<feColorMatrix in="SourceAlpha" type="matrix" values="0 0 0 0 0 0 0 0 0 0 0 0 0 0 0 0 0 0 127 0" result="hardAlpha"/>
<feOffset dx="2" dy="2"/>
<feGaussianBlur stdDeviation="1.5"/>
<feColorMatrix type="matrix" values="0 0 0 0 0 0 0 0 0 0 0 0 0 0 0 0 0 0 0.3 0"/>
<feBlend mode="normal" in2="BackgroundImageFix" result="effect1_dropShadow_2_6474"/>
<feBlend mode="normal" in="SourceGraphic" in2="effect1_dropShadow_2_6474" result="shape"/>
<feColorMatrix in="SourceAlpha" type="matrix" values="0 0 0 0 0 0 0 0 0 0 0 0 0 0 0 0 0 0 127 0" result="hardAlpha"/>
<feOffset dx="-1.5" dy="1"/>
<feGaussianBlur stdDeviation="0.75"/>
<feComposite in2="hardAlpha" operator="arithmetic" k2="-1" k3="1"/>
<feColorMatrix type="matrix" values="0 0 0 0 1 0 0 0 0 1 0 0 0 0 1 0 0 0 0.3 0"/>
<feBlend mode="soft-light" in2="shape" result="effect2_innerShadow_2_6474"/>
</filter>
<filter id="filter2_di_2_6474" x="36.6202" y="0" width="133.507" height="159.57" filterUnits="userSpaceOnUse" color-interpolation-filters="sRGB">
<feFlood flood-opacity="0" result="BackgroundImageFix"/>
<feColorMatrix in="SourceAlpha" type="matrix" values="0 0 0 0 0 0 0 0 0 0 0 0 0 0 0 0 0 0 127 0" result="hardAlpha"/>
<feOffset dx="2" dy="2"/>
<feGaussianBlur stdDeviation="1.5"/>
<feColorMatrix type="matrix" values="0 0 0 0 0 0 0 0 0 0 0 0 0 0 0 0 0 0 0.3 0"/>
<feBlend mode="normal" in2="BackgroundImageFix" result="effect1_dropShadow_2_6474"/>
<feBlend mode="normal" in="SourceGraphic" in2="effect1_dropShadow_2_6474" result="shape"/>
<feColorMatrix in="SourceAlpha" type="matrix" values="0 0 0 0 0 0 0 0 0 0 0 0 0 0 0 0 0 0 127 0" result="hardAlpha"/>
<feOffset dx="-1.5" dy="1"/>
<feGaussianBlur stdDeviation="0.75"/>
<feComposite in2="hardAlpha" operator="arithmetic" k2="-1" k3="1"/>
<feColorMatrix type="matrix" values="0 0 0 0 1 0 0 0 0 1 0 0 0 0 1 0 0 0 0.3 0"/>
<feBlend mode="soft-light" in2="shape" result="effect2_innerShadow_2_6474"/>
</filter>
<filter id="filter3_di_2_6474" x="105.104" y="81.4949" width="41.4681" height="19.5674" filterUnits="userSpaceOnUse" color-interpolation-filters="sRGB">
<feFlood flood-opacity="0" result="BackgroundImageFix"/>
<feColorMatrix in="SourceAlpha" type="matrix" values="0 0 0 0 0 0 0 0 0 0 0 0 0 0 0 0 0 0 127 0" result="hardAlpha"/>
<feOffset dx="1" dy="1"/>
<feGaussianBlur stdDeviation="0.5"/>
<feColorMatrix type="matrix" values="0 0 0 0 0 0 0 0 0 0 0 0 0 0 0 0 0 0 0.3 0"/>
<feBlend mode="normal" in2="BackgroundImageFix" result="effect1_dropShadow_2_6474"/>
<feBlend mode="normal" in="SourceGraphic" in2="effect1_dropShadow_2_6474" result="shape"/>
<feColorMatrix in="SourceAlpha" type="matrix" values="0 0 0 0 0 0 0 0 0 0 0 0 0 0 0 0 0 0 127 0" result="hardAlpha"/>
<feOffset dx="-1.5" dy="1"/>
<feGaussianBlur stdDeviation="0.75"/>
<feComposite in2="hardAlpha" operator="arithmetic" k2="-1" k3="1"/>
<feColorMatrix type="matrix" values="0 0 0 0 1 0 0 0 0 1 0 0 0 0 1 0 0 0 0.3 0"/>
<feBlend mode="soft-light" in2="shape" result="effect2_innerShadow_2_6474"/>
</filter>
<filter id="filter4_di_2_6474" x="104.334" y="99.2183" width="38.4731" height="9.6228" filterUnits="userSpaceOnUse" color-interpolation-filters="sRGB">
<feFlood flood-opacity="0" result="BackgroundImageFix"/>
<feColorMatrix in="SourceAlpha" type="matrix" values="0 0 0 0 0 0 0 0 0 0 0 0 0 0 0 0 0 0 127 0" result="hardAlpha"/>
<feOffset dx="1" dy="1"/>
<feGaussianBlur stdDeviation="0.5"/>
<feColorMatrix type="matrix" values="0 0 0 0 0 0 0 0 0 0 0 0 0 0 0 0 0 0 0.3 0"/>
<feBlend mode="normal" in2="BackgroundImageFix" result="effect1_dropShadow_2_6474"/>
<feBlend mode="normal" in="SourceGraphic" in2="effect1_dropShadow_2_6474" result="shape"/>
<feColorMatrix in="SourceAlpha" type="matrix" values="0 0 0 0 0 0 0 0 0 0 0 0 0 0 0 0 0 0 127 0" result="hardAlpha"/>
<feOffset dx="-1.5" dy="1"/>
<feGaussianBlur stdDeviation="0.75"/>
<feComposite in2="hardAlpha" operator="arithmetic" k2="-1" k3="1"/>
<feColorMatrix type="matrix" values="0 0 0 0 1 0 0 0 0 1 0 0 0 0 1 0 0 0 0.3 0"/>
<feBlend mode="soft-light" in2="shape" result="effect2_innerShadow_2_6474"/>
</filter>
<filter id="filter5_di_2_6474" x="-10.5" y="49.1937" width="73.7694" height="127.805" filterUnits="userSpaceOnUse" color-interpolation-filters="sRGB">
<feFlood flood-opacity="0" result="BackgroundImageFix"/>
<feColorMatrix in="SourceAlpha" type="matrix" values="0 0 0 0 0 0 0 0 0 0 0 0 0 0 0 0 0 0 127 0" result="hardAlpha"/>
<feOffset dx="1" dy="1"/>
<feGaussianBlur stdDeviation="0.5"/>
<feColorMatrix type="matrix" values="0 0 0 0 0 0 0 0 0 0 0 0 0 0 0 0 0 0 0.3 0"/>
<feBlend mode="normal" in2="BackgroundImageFix" result="effect1_dropShadow_2_6474"/>
<feBlend mode="normal" in="SourceGraphic" in2="effect1_dropShadow_2_6474" result="shape"/>
<feColorMatrix in="SourceAlpha" type="matrix" values="0 0 0 0 0 0 0 0 0 0 0 0 0 0 0 0 0 0 127 0" result="hardAlpha"/>
<feOffset dx="-1.5" dy="1"/>
<feGaussianBlur stdDeviation="0.75"/>
<feComposite in2="hardAlpha" operator="arithmetic" k2="-1" k3="1"/>
<feColorMatrix type="matrix" values="0 0 0 0 1 0 0 0 0 1 0 0 0 0 1 0 0 0 0.3 0"/>
<feBlend mode="soft-light" in2="shape" result="effect2_innerShadow_2_6474"/>
</filter>
<filter id="filter6_di_2_6474" x="125.505" y="70.1611" width="53.3687" height="106.837" filterUnits="userSpaceOnUse" color-interpolation-filters="sRGB">
<feFlood flood-opacity="0" result="BackgroundImageFix"/>
<feColorMatrix in="SourceAlpha" type="matrix" values="0 0 0 0 0 0 0 0 0 0 0 0 0 0 0 0 0 0 127 0" result="hardAlpha"/>
<feOffset dx="1" dy="1"/>
<feGaussianBlur stdDeviation="0.5"/>
<feColorMatrix type="matrix" values="0 0 0 0 0 0 0 0 0 0 0 0 0 0 0 0 0 0 0.3 0"/>
<feBlend mode="normal" in2="BackgroundImageFix" result="effect1_dropShadow_2_6474"/>
<feBlend mode="normal" in="SourceGraphic" in2="effect1_dropShadow_2_6474" result="shape"/>
<feColorMatrix in="SourceAlpha" type="matrix" values="0 0 0 0 0 0 0 0 0 0 0 0 0 0 0 0 0 0 127 0" result="hardAlpha"/>
<feOffset dx="-1.5" dy="1"/>
<feGaussianBlur stdDeviation="0.75"/>
<feComposite in2="hardAlpha" operator="arithmetic" k2="-1" k3="1"/>
<feColorMatrix type="matrix" values="0 0 0 0 1 0 0 0 0 1 0 0 0 0 1 0 0 0 0.3 0"/>
<feBlend mode="soft-light" in2="shape" result="effect2_innerShadow_2_6474"/>
</filter>
<filter id="filter7_di_2_6474" x="52.4014" y="74.6943" width="51.6686" height="26.3677" filterUnits="userSpaceOnUse" color-interpolation-filters="sRGB">
<feFlood flood-opacity="0" result="BackgroundImageFix"/>
<feColorMatrix in="SourceAlpha" type="matrix" values="0 0 0 0 0 0 0 0 0 0 0 0 0 0 0 0 0 0 127 0" result="hardAlpha"/>
<feOffset dx="1" dy="1"/>
<feGaussianBlur stdDeviation="0.5"/>
<feColorMatrix type="matrix" values="0 0 0 0 0 0 0 0 0 0 0 0 0 0 0 0 0 0 0.3 0"/>
<feBlend mode="normal" in2="BackgroundImageFix" result="effect1_dropShadow_2_6474"/>
<feBlend mode="normal" in="SourceGraphic" in2="effect1_dropShadow_2_6474" result="shape"/>
<feColorMatrix in="SourceAlpha" type="matrix" values="0 0 0 0 0 0 0 0 0 0 0 0 0 0 0 0 0 0 127 0" result="hardAlpha"/>
<feOffset dx="-1.5" dy="1"/>
<feGaussianBlur stdDeviation="0.75"/>
<feComposite in2="hardAlpha" operator="arithmetic" k2="-1" k3="1"/>
<feColorMatrix type="matrix" values="0 0 0 0 1 0 0 0 0 1 0 0 0 0 1 0 0 0 0.3 0"/>
<feBlend mode="soft-light" in2="shape" result="effect2_innerShadow_2_6474"/>
</filter>
<filter id="filter8_di_2_6474" x="113.605" y="31.626" width="38.6346" height="18.434" filterUnits="userSpaceOnUse" color-interpolation-filters="sRGB">
<feFlood flood-opacity="0" result="BackgroundImageFix"/>
<feColorMatrix in="SourceAlpha" type="matrix" values="0 0 0 0 0 0 0 0 0 0 0 0 0 0 0 0 0 0 127 0" result="hardAlpha"/>
<feOffset dx="1" dy="1"/>
<feGaussianBlur stdDeviation="0.5"/>
<feColorMatrix type="matrix" values="0 0 0 0 0 0 0 0 0 0 0 0 0 0 0 0 0 0 0.3 0"/>
<feBlend mode="normal" in2="BackgroundImageFix" result="effect1_dropShadow_2_6474"/>
<feBlend mode="normal" in="SourceGraphic" in2="effect1_dropShadow_2_6474" result="shape"/>
<feColorMatrix in="SourceAlpha" type="matrix" values="0 0 0 0 0 0 0 0 0 0 0 0 0 0 0 0 0 0 127 0" result="hardAlpha"/>
<feOffset dx="-1.5" dy="1"/>
<feGaussianBlur stdDeviation="0.75"/>
<feComposite in2="hardAlpha" operator="arithmetic" k2="-1" k3="1"/>
<feColorMatrix type="matrix" values="0 0 0 0 1 0 0 0 0 1 0 0 0 0 1 0 0 0 0.3 0"/>
<feBlend mode="soft-light" in2="shape" result="effect2_innerShadow_2_6474"/>
</filter>
<filter id="filter9_di_2_6474" x="51.6221" y="99.7852" width="40.7621" height="10.1865" filterUnits="userSpaceOnUse" color-interpolation-filters="sRGB">
<feFlood flood-opacity="0" result="BackgroundImageFix"/>
<feColorMatrix in="SourceAlpha" type="matrix" values="0 0 0 0 0 0 0 0 0 0 0 0 0 0 0 0 0 0 127 0" result="hardAlpha"/>
<feOffset dx="1" dy="1"/>
<feGaussianBlur stdDeviation="0.5"/>
<feColorMatrix type="matrix" values="0 0 0 0 0 0 0 0 0 0 0 0 0 0 0 0 0 0 0.3 0"/>
<feBlend mode="normal" in2="BackgroundImageFix" result="effect1_dropShadow_2_6474"/>
<feBlend mode="normal" in="SourceGraphic" in2="effect1_dropShadow_2_6474" result="shape"/>
<feColorMatrix in="SourceAlpha" type="matrix" values="0 0 0 0 0 0 0 0 0 0 0 0 0 0 0 0 0 0 127 0" result="hardAlpha"/>
<feOffset dx="-1.5" dy="1"/>
<feGaussianBlur stdDeviation="0.75"/>
<feComposite in2="hardAlpha" operator="arithmetic" k2="-1" k3="1"/>
<feColorMatrix type="matrix" values="0 0 0 0 1 0 0 0 0 1 0 0 0 0 1 0 0 0 0.3 0"/>
<feBlend mode="soft-light" in2="shape" result="effect2_innerShadow_2_6474"/>
</filter>
<filter id="filter10_di_2_6474" x="112.251" y="48.2183" width="31.7084" height="9.05127" filterUnits="userSpaceOnUse" color-interpolation-filters="sRGB">
<feFlood flood-opacity="0" result="BackgroundImageFix"/>
<feColorMatrix in="SourceAlpha" type="matrix" values="0 0 0 0 0 0 0 0 0 0 0 0 0 0 0 0 0 0 127 0" result="hardAlpha"/>
<feOffset dx="1" dy="1"/>
<feGaussianBlur stdDeviation="0.5"/>
<feColorMatrix type="matrix" values="0 0 0 0 0 0 0 0 0 0 0 0 0 0 0 0 0 0 0.3 0"/>
<feBlend mode="normal" in2="BackgroundImageFix" result="effect1_dropShadow_2_6474"/>
<feBlend mode="normal" in="SourceGraphic" in2="effect1_dropShadow_2_6474" result="shape"/>
<feColorMatrix in="SourceAlpha" type="matrix" values="0 0 0 0 0 0 0 0 0 0 0 0 0 0 0 0 0 0 127 0" result="hardAlpha"/>
<feOffset dx="-1.5" dy="1"/>
<feGaussianBlur stdDeviation="0.75"/>
<feComposite in2="hardAlpha" operator="arithmetic" k2="-1" k3="1"/>
<feColorMatrix type="matrix" values="0 0 0 0 1 0 0 0 0 1 0 0 0 0 1 0 0 0 0.3 0"/>
<feBlend mode="soft-light" in2="shape" result="effect2_innerShadow_2_6474"/>
</filter>
<filter id="filter11_di_2_6474" x="111.146" y="56.7148" width="31.0875" height="8.49182" filterUnits="userSpaceOnUse" color-interpolation-filters="sRGB">
<feFlood flood-opacity="0" result="BackgroundImageFix"/>
<feColorMatrix in="SourceAlpha" type="matrix" values="0 0 0 0 0 0 0 0 0 0 0 0 0 0 0 0 0 0 127 0" result="hardAlpha"/>
<feOffset dx="1" dy="1"/>
<feGaussianBlur stdDeviation="0.5"/>
<feColorMatrix type="matrix" values="0 0 0 0 0 0 0 0 0 0 0 0 0 0 0 0 0 0 0.3 0"/>
<feBlend mode="normal" in2="BackgroundImageFix" result="effect1_dropShadow_2_6474"/>
<feBlend mode="normal" in="SourceGraphic" in2="effect1_dropShadow_2_6474" result="shape"/>
<feColorMatrix in="SourceAlpha" type="matrix" values="0 0 0 0 0 0 0 0 0 0 0 0 0 0 0 0 0 0 127 0" result="hardAlpha"/>
<feOffset dx="-1.5" dy="1"/>
<feGaussianBlur stdDeviation="0.75"/>
<feComposite in2="hardAlpha" operator="arithmetic" k2="-1" k3="1"/>
<feColorMatrix type="matrix" values="0 0 0 0 1 0 0 0 0 1 0 0 0 0 1 0 0 0 0.3 0"/>
<feBlend mode="soft-light" in2="shape" result="effect2_innerShadow_2_6474"/>
</filter>
<filter id="filter12_di_2_6474" x="103.179" y="107.155" width="31.1506" height="9.04993" filterUnits="userSpaceOnUse" color-interpolation-filters="sRGB">
<feFlood flood-opacity="0" result="BackgroundImageFix"/>
<feColorMatrix in="SourceAlpha" type="matrix" values="0 0 0 0 0 0 0 0 0 0 0 0 0 0 0 0 0 0 127 0" result="hardAlpha"/>
<feOffset dx="1" dy="1"/>
<feGaussianBlur stdDeviation="0.5"/>
<feColorMatrix type="matrix" values="0 0 0 0 0 0 0 0 0 0 0 0 0 0 0 0 0 0 0.3 0"/>
<feBlend mode="normal" in2="BackgroundImageFix" result="effect1_dropShadow_2_6474"/>
<feBlend mode="normal" in="SourceGraphic" in2="effect1_dropShadow_2_6474" result="shape"/>
<feColorMatrix in="SourceAlpha" type="matrix" values="0 0 0 0 0 0 0 0 0 0 0 0 0 0 0 0 0 0 127 0" result="hardAlpha"/>
<feOffset dx="-1.5" dy="1"/>
<feGaussianBlur stdDeviation="0.75"/>
<feComposite in2="hardAlpha" operator="arithmetic" k2="-1" k3="1"/>
<feColorMatrix type="matrix" values="0 0 0 0 1 0 0 0 0 1 0 0 0 0 1 0 0 0 0.3 0"/>
<feBlend mode="soft-light" in2="shape" result="effect2_innerShadow_2_6474"/>
</filter>
<filter id="filter13_di_2_6474" x="50.502" y="107.151" width="29.9707" height="8.48962" filterUnits="userSpaceOnUse" color-interpolation-filters="sRGB">
<feFlood flood-opacity="0" result="BackgroundImageFix"/>
<feColorMatrix in="SourceAlpha" type="matrix" values="0 0 0 0 0 0 0 0 0 0 0 0 0 0 0 0 0 0 127 0" result="hardAlpha"/>
<feOffset dx="1" dy="1"/>
<feGaussianBlur stdDeviation="0.5"/>
<feColorMatrix type="matrix" values="0 0 0 0 0 0 0 0 0 0 0 0 0 0 0 0 0 0 0.3 0"/>
<feBlend mode="normal" in2="BackgroundImageFix" result="effect1_dropShadow_2_6474"/>
<feBlend mode="normal" in="SourceGraphic" in2="effect1_dropShadow_2_6474" result="shape"/>
<feColorMatrix in="SourceAlpha" type="matrix" values="0 0 0 0 0 0 0 0 0 0 0 0 0 0 0 0 0 0 127 0" result="hardAlpha"/>
<feOffset dx="-1.5" dy="1"/>
<feGaussianBlur stdDeviation="0.75"/>
<feComposite in2="hardAlpha" operator="arithmetic" k2="-1" k3="1"/>
<feColorMatrix type="matrix" values="0 0 0 0 1 0 0 0 0 1 0 0 0 0 1 0 0 0 0.3 0"/>
<feBlend mode="soft-light" in2="shape" result="effect2_innerShadow_2_6474"/>
</filter>
<filter id="filter14_di_2_6474" x="197.105" y="46.9155" width="41.1265" height="36.7711" filterUnits="userSpaceOnUse" color-interpolation-filters="sRGB">
<feFlood flood-opacity="0" result="BackgroundImageFix"/>
<feColorMatrix in="SourceAlpha" type="matrix" values="0 0 0 0 0 0 0 0 0 0 0 0 0 0 0 0 0 0 127 0" result="hardAlpha"/>
<feOffset dx="0.5" dy="0.5"/>
<feGaussianBlur stdDeviation="0.25"/>
<feColorMatrix type="matrix" values="0 0 0 0 0 0 0 0 0 0 0 0 0 0 0 0 0 0 0.3 0"/>
<feBlend mode="normal" in2="BackgroundImageFix" result="effect1_dropShadow_2_6474"/>
<feBlend mode="normal" in="SourceGraphic" in2="effect1_dropShadow_2_6474" result="shape"/>
<feColorMatrix in="SourceAlpha" type="matrix" values="0 0 0 0 0 0 0 0 0 0 0 0 0 0 0 0 0 0 127 0" result="hardAlpha"/>
<feOffset dx="1" dy="1"/>
<feGaussianBlur stdDeviation="0.5"/>
<feComposite in2="hardAlpha" operator="arithmetic" k2="-1" k3="1"/>
<feColorMatrix type="matrix" values="0 0 0 0 0 0 0 0 0 0 0 0 0 0 0 0 0 0 0.3 0"/>
<feBlend mode="normal" in2="shape" result="effect2_innerShadow_2_6474"/>
</filter>
<linearGradient id="paint0_linear_2_6474" x1="34.636" y1="89.4293" x2="51.6366" y2="71.5786" gradientUnits="userSpaceOnUse">
<stop offset="0.641696" stop-color="#89471E"/>
<stop offset="1" stop-color="#623721"/>
</linearGradient>
<linearGradient id="paint1_linear_2_6474" x1="164.406" y1="101.613" x2="141.739" y2="74.6948" gradientUnits="userSpaceOnUse">
<stop stop-color="#89471E"/>
<stop offset="0.515073" stop-color="#623721"/>
</linearGradient>
<linearGradient id="paint2_linear_2_6474" x1="31.2349" y1="117.763" x2="11.4008" y2="13.4923" gradientUnits="userSpaceOnUse">
<stop stop-color="#B4602B"/>
<stop offset="1" stop-color="#DF7838"/>
</linearGradient>
<linearGradient id="paint3_linear_2_6474" x1="176.873" y1="142.697" x2="112.271" y2="89.7119" gradientUnits="userSpaceOnUse">
<stop stop-color="#B4602B"/>
<stop offset="1" stop-color="#DF7838"/>
</linearGradient>
</defs>
</svg>
