<svg width="245" height="23" viewBox="0 0 245 23" fill="none" xmlns="http://www.w3.org/2000/svg">
<path d="M230.99 22.6614C235.408 22.6614 238.989 19.0805 238.989 14.6632C238.989 10.246 235.408 6.66504 230.99 6.66504C226.573 6.66504 222.992 10.246 222.992 14.6632V22.6614H230.99Z" fill="#C74289"/>
<path d="M236.996 16.6556C232.579 16.6556 228.998 13.0747 228.998 8.65738C228.998 4.2401 232.579 0.65918 236.996 0.65918C241.414 0.65918 244.995 4.2401 244.995 8.65738V16.6556H236.996Z" fill="#7461E7"/>
<path fill-rule="evenodd" clip-rule="evenodd" d="M228.994 8.66C228.994 13.0773 232.575 16.6582 236.993 16.6582H238.734C238.898 16.0214 238.984 15.3539 238.984 14.6662C238.984 10.2489 235.404 6.66797 230.986 6.66797C230.371 6.66797 229.771 6.73751 229.196 6.86917C229.064 7.44491 228.994 8.04433 228.994 8.66Z" fill="#003A9B"/>
<path d="M2.4509 2.32851V22.4025H0V1.80332H1.92571C2.27584 1.80332 2.4509 1.97838 2.4509 2.32851Z" fill="#2D2D2D"/>
<path d="M7.17627 22.4025V7.46373H8.89773C9.24786 7.46373 9.42292 7.62907 9.42292 7.95974L9.48128 10.4106C9.98702 9.39916 10.7262 8.60164 11.6988 8.0181C12.6713 7.4151 13.7801 7.1136 15.025 7.1136C16.8145 7.1136 18.1956 7.64852 19.1682 8.71835C20.1407 9.78819 20.627 11.3346 20.627 13.3576V22.4025H18.2345V13.7077C18.2345 10.6927 16.9701 9.18519 14.4414 9.18519C13.002 9.18519 11.8252 9.62285 10.911 10.4982C10.0162 11.3735 9.56881 12.5698 9.56881 14.087V22.4025H7.17627Z" fill="#2D2D2D"/>
<path d="M30.4694 22.7527C29.2245 22.7527 28.1157 22.4609 27.1432 21.8773C26.1706 21.2743 25.4022 20.4088 24.8382 19.2806C24.2935 18.1329 24.0212 16.7519 24.0212 15.1374C24.0212 13.5034 24.3421 12.0932 24.984 10.9067C25.6454 9.70066 26.5304 8.76698 27.6392 8.10563C28.7479 7.44427 29.9734 7.1136 31.3155 7.1136C33.1051 7.1136 34.6028 7.57071 35.8088 8.48493V0.75293H37.6762C38.0263 0.75293 38.2014 0.927994 38.2014 1.27812V22.4025H36.5675C36.2173 22.4025 36.0423 22.2372 36.0423 21.9065L35.9256 19.6307C35.4198 20.6033 34.6807 21.3716 33.7081 21.9357C32.7355 22.4803 31.6559 22.7527 30.4694 22.7527ZM26.5013 15.0498C26.5013 16.9756 26.9389 18.3955 27.8142 19.3097C28.6896 20.2045 29.7497 20.6519 30.9946 20.6519C31.831 20.6519 32.6091 20.4963 33.3288 20.1851C34.0679 19.8544 34.6612 19.3486 35.1086 18.6678C35.5754 17.987 35.8088 17.1214 35.8088 16.0711V10.6441C34.6417 9.67148 33.2315 9.18519 31.5781 9.18519C30.6055 9.18519 29.7302 9.42834 28.9522 9.91462C28.1935 10.3815 27.5905 11.0525 27.1432 11.9279C26.7152 12.8032 26.5013 13.8438 26.5013 15.0498Z" fill="#2D2D2D"/>
<path d="M41.8011 15.0498C41.8011 13.3965 42.1221 11.9862 42.764 10.8191C43.4059 9.63258 44.2618 8.71835 45.3316 8.07645C46.4014 7.43455 47.588 7.1136 48.8912 7.1136C51.0115 7.1136 52.626 7.76522 53.7347 9.06848C54.8629 10.3717 55.427 12.1516 55.427 14.4079C55.427 14.6608 55.4173 14.9137 55.3978 15.1666C55.3978 15.4 55.3783 15.6042 55.3394 15.7793H44.252C44.4466 17.4132 45.0496 18.6484 46.061 19.4848C47.092 20.3212 48.3563 20.7394 49.8541 20.7394C51.702 20.7394 53.3262 20.3309 54.7267 19.514V21.6439C53.2289 22.3831 51.4589 22.7527 49.4164 22.7527C47.9965 22.7527 46.7029 22.4512 45.5358 21.8482C44.3882 21.2257 43.474 20.3407 42.7932 19.193C42.1318 18.0454 41.8011 16.6643 41.8011 15.0498ZM48.8329 9.06848C47.6074 9.06848 46.5571 9.50614 45.6817 10.3815C44.8259 11.2568 44.3396 12.492 44.2229 14.087H53.0053C52.8302 10.7413 51.4394 9.06848 48.8329 9.06848Z" fill="#2D2D2D"/>
<path d="M58.1279 15.0498C58.1279 13.3965 58.4489 11.9862 59.0908 10.8191C59.7327 9.63258 60.5886 8.71835 61.6584 8.07645C62.7282 7.43455 63.9148 7.1136 65.218 7.1136C67.3383 7.1136 68.9527 7.76522 70.0615 9.06848C71.1897 10.3717 71.7538 12.1516 71.7538 14.4079C71.7538 14.6608 71.744 14.9137 71.7246 15.1666C71.7246 15.4 71.7051 15.6042 71.6662 15.7793H60.5788C60.7733 17.4132 61.3763 18.6484 62.3878 19.4848C63.4188 20.3212 64.6831 20.7394 66.1809 20.7394C68.0288 20.7394 69.653 20.3309 71.0535 19.514V21.6439C69.5557 22.3831 67.7856 22.7527 65.7432 22.7527C64.3233 22.7527 63.0297 22.4512 61.8626 21.8482C60.715 21.2257 59.8008 20.3407 59.12 19.193C58.4586 18.0454 58.1279 16.6643 58.1279 15.0498ZM65.1597 9.06848C63.9342 9.06848 62.8838 9.50614 62.0085 10.3815C61.1527 11.2568 60.6664 12.492 60.5497 14.087H69.332C69.157 10.7413 67.7662 9.06848 65.1597 9.06848Z" fill="#2D2D2D"/>
<path d="M80.9029 22.7527C79.658 22.7527 78.5493 22.4609 77.5767 21.8773C76.6041 21.2743 75.8358 20.4088 75.2717 19.2806C74.727 18.1329 74.4547 16.7519 74.4547 15.1374C74.4547 13.5034 74.7757 12.0932 75.4176 10.9067C76.0789 9.70066 76.964 8.76698 78.0727 8.10563C79.1815 7.44427 80.4069 7.1136 81.7491 7.1136C83.5386 7.1136 85.0364 7.57071 86.2424 8.48493V0.75293H88.1097C88.4599 0.75293 88.6349 0.927994 88.6349 1.27812V22.4025H87.001C86.6509 22.4025 86.4758 22.2372 86.4758 21.9065L86.3591 19.6307C85.8534 20.6033 85.1142 21.3716 84.1416 21.9357C83.169 22.4803 82.0895 22.7527 80.9029 22.7527ZM76.9348 15.0498C76.9348 16.9756 77.3725 18.3955 78.2478 19.3097C79.1231 20.2045 80.1832 20.6519 81.4281 20.6519C82.2645 20.6519 83.0426 20.4963 83.7623 20.1851C84.5015 19.8544 85.0947 19.3486 85.5421 18.6678C86.009 17.987 86.2424 17.1214 86.2424 16.0711V10.6441C85.0753 9.67148 83.665 9.18519 82.0117 9.18519C81.0391 9.18519 80.1638 9.42834 79.3857 9.91462C78.6271 10.3815 78.0241 11.0525 77.5767 11.9279C77.1488 12.8032 76.9348 13.8438 76.9348 15.0498Z" fill="#2D2D2D"/>
<path d="M107.774 22.7529C105.542 22.7529 103.59 22.3145 101.916 21.4377C100.242 20.5609 98.9465 19.3254 98.0298 17.7312C97.1131 16.1171 96.6548 14.214 96.6548 12.022C96.6548 9.80999 97.1131 7.8571 98.0298 6.16326C98.9664 4.46942 100.262 3.14423 101.916 2.18771C103.57 1.23119 105.463 0.75293 107.595 0.75293C108.89 0.75293 110.076 0.892422 111.152 1.17141C112.248 1.45039 113.225 1.83898 114.081 2.33717V6.19315C113.324 5.67503 112.427 5.22666 111.391 4.84804C110.355 4.46941 109.189 4.2801 107.894 4.2801C106.499 4.2801 105.283 4.58898 104.247 5.20673C103.231 5.80456 102.444 6.66144 101.886 7.77739C101.328 8.8734 101.049 10.1787 101.049 11.6931C101.049 13.2276 101.348 14.5627 101.946 15.6986C102.543 16.8145 103.37 17.6814 104.427 18.2991C105.483 18.9169 106.708 19.2258 108.103 19.2258C109.299 19.2258 110.425 19.0364 111.481 18.6578C112.537 18.2792 113.404 17.8408 114.081 17.3426V21.1687C113.264 21.647 112.318 22.0256 111.242 22.3046C110.166 22.6035 109.01 22.7529 107.774 22.7529Z" fill="#2D2D2D"/>
<path d="M124.719 22.6633C123.204 22.6633 121.829 22.3444 120.594 21.7067C119.378 21.0691 118.402 20.1624 117.665 18.9866C116.947 17.791 116.589 16.3662 116.589 14.7122C116.589 12.9785 116.967 11.4939 117.724 10.2584C118.482 9.02286 119.488 8.0763 120.743 7.41869C122.019 6.74115 123.434 6.40239 124.988 6.40239C126.502 6.40239 127.868 6.72123 129.083 7.35891C130.319 7.99659 131.295 8.91326 132.012 10.1089C132.73 11.2846 133.089 12.6995 133.089 14.3535C133.089 16.0872 132.71 17.5817 131.953 18.8372C131.215 20.0727 130.209 21.0192 128.934 21.6768C127.678 22.3345 126.273 22.6633 124.719 22.6633ZM124.928 19.2556C126.044 19.2556 126.971 18.8471 127.708 18.0301C128.445 17.1931 128.814 16.0473 128.814 14.5926C128.814 13.0183 128.435 11.8326 127.678 11.0355C126.921 10.2384 125.945 9.83989 124.749 9.83989C123.653 9.83989 122.726 10.2484 121.969 11.0654C121.232 11.8825 120.863 13.0183 120.863 14.473C120.863 16.0473 121.242 17.243 121.999 18.06C122.756 18.8571 123.733 19.2556 124.928 19.2556Z" fill="#2D2D2D"/>
<path d="M146.902 22.3046V13.3671C146.902 11.0156 145.945 9.83989 144.032 9.83989C142.996 9.83989 142.109 10.1488 141.372 10.7665C140.635 11.3843 140.266 12.3209 140.266 13.5763V22.3046H136.081V6.76108H139.28C139.718 6.76108 139.947 6.98028 139.967 7.41869L140.057 9.39152C140.555 8.47485 141.262 7.7475 142.179 7.20945C143.116 6.67141 144.162 6.40239 145.318 6.40239C147.191 6.40239 148.616 6.96036 149.592 8.0763C150.588 9.19224 151.087 10.7864 151.087 12.8589V22.3046H146.902Z" fill="#2D2D2D"/>
<path d="M165.671 22.3046V13.3671C165.671 11.0156 164.715 9.83989 162.802 9.83989C161.766 9.83989 160.879 10.1488 160.142 10.7665C159.404 11.3843 159.036 12.3209 159.036 13.5763V22.3046H154.851V6.76108H158.049C158.488 6.76108 158.717 6.98028 158.737 7.41869L158.826 9.39152C159.325 8.47485 160.032 7.7475 160.949 7.20945C161.885 6.67141 162.931 6.40239 164.087 6.40239C165.96 6.40239 167.385 6.96036 168.362 8.0763C169.358 9.19224 169.856 10.7864 169.856 12.8589V22.3046H165.671Z" fill="#2D2D2D"/>
<path d="M172.664 14.6524C172.664 12.9585 173.013 11.4939 173.71 10.2584C174.408 9.02286 175.344 8.0763 176.52 7.41869C177.716 6.74115 179.021 6.40239 180.436 6.40239C182.727 6.40239 184.491 7.06996 185.726 8.4051C186.962 9.74025 187.58 11.5835 187.58 13.935C187.58 14.2937 187.57 14.6424 187.55 14.9812C187.53 15.32 187.5 15.6089 187.46 15.848H176.938C177.197 17.0437 177.755 17.9404 178.612 18.5383C179.469 19.1162 180.575 19.4051 181.93 19.4051C182.867 19.4051 183.724 19.3154 184.501 19.1361C185.298 18.9368 186.095 18.6479 186.892 18.2692V21.6171C186.035 21.9758 185.139 22.2348 184.202 22.3942C183.265 22.5736 182.229 22.6633 181.093 22.6633C179.519 22.6633 178.094 22.3544 176.819 21.7366C175.543 21.1189 174.527 20.2122 173.77 19.0165C173.033 17.8209 172.664 16.3662 172.664 14.6524ZM176.819 13.397H183.425C183.305 12.0618 182.986 11.0854 182.468 10.4676C181.97 9.82992 181.253 9.51108 180.316 9.51108C179.419 9.51108 178.642 9.83989 177.985 10.4975C177.347 11.1551 176.958 12.1216 176.819 13.397Z" fill="#2D2D2D"/>
<path d="M198.677 9.80999C197.282 9.80999 196.156 10.2085 195.3 11.0056C194.463 11.8027 194.044 12.9386 194.044 14.4133C194.044 15.9277 194.502 17.1134 195.419 17.9703C196.356 18.8272 197.541 19.2556 198.976 19.2556C200.371 19.2556 201.686 18.887 202.922 18.1497V21.6768C201.527 22.3345 199.913 22.6633 198.079 22.6633C196.525 22.6633 195.12 22.3444 193.865 21.7067C192.609 21.0691 191.613 20.1524 190.876 18.9567C190.138 17.7611 189.77 16.3263 189.77 14.6524C189.77 12.9187 190.128 11.4441 190.846 10.2285C191.563 8.99297 192.56 8.04641 193.835 7.3888C195.11 6.73119 196.575 6.40239 198.229 6.40239C199.126 6.40239 199.953 6.49206 200.71 6.67141C201.467 6.85076 202.204 7.10981 202.922 7.44858V11.0056C202.204 10.6071 201.507 10.3082 200.829 10.1089C200.152 9.90963 199.435 9.80999 198.677 9.80999Z" fill="#2D2D2D"/>
<path d="M211.76 22.6633C210.166 22.6633 208.94 22.2747 208.083 21.4975C207.226 20.7004 206.798 19.5147 206.798 17.9404V10.0491H204.317V6.76108H206.798V2.69586H210.295C210.754 2.69586 210.983 2.92503 210.983 3.38336V6.76108H214.988V10.0491H210.983V17.1931C210.983 17.9703 211.152 18.5084 211.491 18.8073C211.83 19.1062 212.318 19.2556 212.956 19.2556C213.334 19.2556 213.683 19.2258 214.002 19.166C214.321 19.1062 214.649 19.0265 214.988 18.9268V22.2747C214.51 22.4142 214.022 22.5138 213.523 22.5736C213.045 22.6334 212.457 22.6633 211.76 22.6633Z" fill="#2D2D2D"/>
</svg>
