<?xml version="1.0" standalone="no"?>
<!DOCTYPE svg PUBLIC "-//W3C//DTD SVG 1.1//EN" "http://www.w3.org/Graphics/SVG/1.1/DTD/svg11.dtd" >
<svg xmlns="http://www.w3.org/2000/svg">
<metadata></metadata>
<defs>
<font id="modumitalic" horiz-adv-x="1228" vert-adv-y="2048" >
<font-face units-per-em="2048" ascent="1536" descent="-512" />
<missing-glyph horiz-adv-x="614" />
<glyph unicode="&#xfb01;" horiz-adv-x="1568" d="M816 1535q152 0 272 -85l-46 -79q-104 67 -211 65q-102 0 -178 -61t-92 -173l-25 -178h861q17 0 15 -18l-105 -744q-24 -177 133 -183h14l-11 -79h-40q-128 0 -187 69.5t-41 197.5l89 637q3 21 -18 22l-343 18l-381 -20l-125 -887q-28 -199 -101.5 -302t-189.5 -104h-25 l8 80q56 2 105.5 91.5t71.5 244.5l123 878l-120 7q-16 2 -14 17l11 75h137l27 194q11 79 48 141t90 99.5t116 57t132 19.5z" />
<glyph unicode="&#xfb02;" horiz-adv-x="1550" d="M974 1508l494 27q7 0 11.5 -5t3.5 -13l-176 -1255q-24 -177 133 -183h14l-11 -79h-40q-128 0 -187 69.5t-41 197.5l160 1144q3 22 -18 22l-317 2l-33 -26q-71 29 -136 27q-102 0 -178 -61t-92 -173l-25 -178h297l-12 -84l-299 -16l-125 -887q-28 -199 -101.5 -302 t-189.5 -104h-25l8 80q56 2 105.5 91.5t71.5 244.5l123 878l-120 7q-16 1 -14 17l11 75h137l27 194q11 79 48 141t90 99.5t116 57t132 19.5q79 0 158 -27z" />
<glyph horiz-adv-x="0" vert-adv-y="0" />
<glyph horiz-adv-x="682" />
<glyph unicode=" "  horiz-adv-x="614" />
<glyph unicode="&#x09;" horiz-adv-x="614" />
<glyph unicode="&#xa0;" horiz-adv-x="614" />
<glyph unicode="!" horiz-adv-x="350" d="M296 432h-120l127 1002h147zM190 153q37 0 59.5 -27.5t17.5 -63.5q-5 -30 -30 -52.5t-57 -22.5q-38 0 -60 27.5t-17 63.5q5 30 30 52.5t57 22.5z" />
<glyph unicode="&#x22;" horiz-adv-x="587" d="M351 1007h-109l56 465h128zM629 1007h-109l56 465h128z" />
<glyph unicode="#" horiz-adv-x="1363" d="M1168 1058h255l-30 -108h-255l-114 -408h255l-29 -108h-255l-121 -434h-137l121 434h-322l-121 -434h-137l121 434h-248l30 108h247l114 408h-247l29 108h247l94 335h137l-93 -335h321l93 335h138zM680 950l-114 -408h321l114 408h-321z" />
<glyph unicode="$" horiz-adv-x="1140" d="M888 1585l-27 -164q168 -6 275 -79q7 -3 5 -11l-36 -256h-87l12 180q1 11 -11 16q-78 37 -192 37q-159 0 -263.5 -63.5t-118.5 -164.5q-8 -34 -4 -63.5t14.5 -53.5t42.5 -51.5t80 -57.5t127 -71q125 -64 198.5 -112t114.5 -97.5t51 -97t1 -113.5q-20 -140 -128.5 -235.5 t-273.5 -128.5l-30 -189h-127l28 175q-43 -1 -86 0q-192 8 -313 82q-9 3 -7 11l36 255h87l-11 -173q-1 -11 9 -16q109 -46 251 -46q167 0 280 73.5t130 192.5q12 84 -35.5 139.5t-218.5 147.5q-78 42 -132.5 75.5t-98 63.5t-70 57.5t-44 53.5t-24 56.5t-6.5 60t6 70.5 q19 130 140.5 219t301.5 108l27 170h127z" />
<glyph unicode="%" horiz-adv-x="1845" d="M608 -35h-133l951 1503h133zM618 1447q153 0 228.5 -119.5t48.5 -311.5q-26 -186 -130.5 -300t-252.5 -114q-153 0 -228 119t-48 312q26 186 130 300t252 114zM614 1361q-94 0 -167 -89t-95 -250q-22 -159 25 -247t140 -88q94 0 167.5 89t95.5 250q22 159 -25.5 247 t-140.5 88zM1533 831q153 0 228.5 -119t48.5 -311q-26 -186 -130 -300t-252 -114q-153 0 -228.5 119.5t-48.5 311.5q26 186 130 299.5t252 113.5zM1530 746q-94 0 -167.5 -89t-95.5 -250q-22 -159 25 -247t140 -88q94 0 167.5 89t95.5 250q22 159 -25 247t-140 88z" />
<glyph unicode="&#x26;" horiz-adv-x="1370" d="M750 1454q90 0 163.5 -22t125.5 -67.5t68 -115.5t-8 -167q-23 -83 -98 -154t-292 -206l-18 -10l338 -370q26 50 37 104l40 258h110l-47 -329q-11 -81 -49 -141l168 -181l-100 -99l-164 180q-71 -72 -177 -112.5t-230 -40.5q-244 0 -374 91.5t-106 258.5q11 75 40.5 129.5 t102.5 119t209 151.5l-109 121q-89 98 -67 252q22 158 141.5 254t295.5 96zM741 1342q-117 0 -195 -65.5t-94 -178.5q-15 -104 38 -164l120 -132l13 9q137 84 203.5 132t93.5 82t39 80q34 121 -28 179t-190 58zM939 239l-363 402q-175 -110 -231.5 -172t-68.5 -152 q-16 -115 68 -171.5t264 -56.5q110 0 196 39.5t135 110.5z" />
<glyph unicode="'" horiz-adv-x="309" d="M351 1007h-109l56 465h128z" />
<glyph unicode="(" horiz-adv-x="710" d="M787 1506l63 -92q-200 -124 -335 -324q-155 -227 -198 -532q-46 -333 65 -561q75 -165 225 -284l-77 -83q-173 117 -270 316q-139 268 -88 628q48 338 233 594q154 210 382 338z" />
<glyph unicode=")" horiz-adv-x="710" d="M262 1420l77 81q195 -128 291 -351q114 -260 68 -592q-52 -374 -275 -647q-140 -170 -341 -284l-62 91q174 110 298 277q185 234 234 580q42 302 -41 518q-77 198 -249 327z" />
<glyph unicode="*" horiz-adv-x="864" d="M676 1161l136 -212l-103 -70l-122 223l-181 -223l-89 70l194 213l-247 74l52 114l242 -92l29 269h119l-46 -269l264 92l22 -114z" />
<glyph unicode="+" horiz-adv-x="1040" d="M670 653h372l-16 -116h-372l-52 -372h-116l52 372h-372l17 116h371l52 372h117z" />
<glyph unicode="," horiz-adv-x="346" d="M171 153q66 1 83.5 -66t-16.5 -157q-53 -145 -169 -256l-54 42q74 90 107 186q24 64 14 94h-5q-24 8 -37.5 31t-9.5 51q5 30 30 52.5t57 22.5z" />
<glyph unicode="-" horiz-adv-x="862" d="M836 452h-682l17 116h681z" />
<glyph unicode="." horiz-adv-x="348" d="M189 153q37 0 59 -27.5t17 -63.5q-5 -30 -30 -52.5t-57 -22.5q-37 0 -59 27.5t-17 63.5q5 30 30 52.5t57 22.5z" />
<glyph unicode="/" horiz-adv-x="827" d="M172 -242h-154l818 1762h154z" />
<glyph unicode="0" horiz-adv-x="1286" d="M835 1413q168 0 282.5 -90.5t159.5 -255t15 -379.5q-45 -320 -220.5 -514t-424.5 -194q-168 0 -282.5 90.5t-159.5 255t-15 379.5q45 320 220.5 514t424.5 194zM832 1297q-182 0 -319 -161.5t-177 -447.5q-39 -280 49.5 -436t264.5 -156q182 0 319.5 161.5t177.5 447.5 q39 280 -49.5 436t-265.5 156z" />
<glyph unicode="1" horiz-adv-x="718" d="M670 1393l-179 -1270q-3 -21 18 -22l144 -12l-13 -89h-503l11 82q1 8 10 9l157 13q28 2 32 29l152 1087q2 9 -5 11.5t-17 -4.5l-206 -126l-35 95l305 194q1 0 2.5 1.5t2.5 1.5h124z" />
<glyph unicode="2" horiz-adv-x="1003" d="M703 1414q108 0 190 -38t117 -108q133 -253 -278 -722q-125 -141 -455 -439l519 1q27 0 33 28l34 156h88l-41 -292h-836l13 92q0 2 3 8q344 300 531 522q183 211 244 357.5t23 229.5q-23 48 -76 72.5t-122 23.5q-97 -1 -183.5 -48.5t-125.5 -134.5l-128 24 q54 129 182 198.5t268 69.5z" />
<glyph unicode="3" horiz-adv-x="1009" d="M671 1413q84 0 156 -23t125 -67t78 -114t13 -156q-16 -113 -93 -194t-202 -119q123 -37 182.5 -132t40.5 -233q-11 -82 -46.5 -149t-86 -112t-114.5 -75.5t-132 -44.5t-140 -14q-211 0 -368 107l52 85q132 -79 299 -79q97 0 177 29.5t139.5 100.5t74.5 177 q19 134 -55 208.5t-223 74.5h-135l16 108h130q140 0 232.5 71t109.5 193t-54 186.5t-193 63.5q-136 0 -257 -81q-8 -5 -10 -13l-38 -175h-82l38 264q2 7 5 9q171 104 361 104z" />
<glyph unicode="4" horiz-adv-x="1075" d="M285 446h441l100 570q2 8 11 8h100l-81 -578h194l-15 -107h-194l-31 -216q-3 -21 18 -22l144 -12l-13 -89h-482l11 82q1 8 10 9l151 12q27 2 31 30l29 206h-594l12 89l568 965h146z" />
<glyph unicode="5" horiz-adv-x="997" d="M1053 1285h-538l-119 -508q83 40 192 40q204 0 311.5 -115.5t80.5 -307.5q-15 -106 -62.5 -187t-117.5 -129.5t-153 -73t-175 -24.5q-197 0 -360 96q-8 3 -6 11l35 249h88l-13 -178q-2 -12 10 -17q114 -48 232 -48q146 0 249.5 79.5t126.5 239.5q19 139 -53.5 216.5 t-219.5 77.5q-132 0 -232 -70l-88 31l165 726h662z" />
<glyph unicode="6" horiz-adv-x="1062" d="M828 1412q143 -1 275 -83l-51 -91q-110 65 -216 67q-160 2 -291.5 -136.5t-182.5 -388.5l-17 -72q62 87 155 132.5t203 41.5q184 -8 282 -136.5t63 -335.5q-35 -199 -163.5 -317t-307.5 -111q-153 4 -254 99.5t-132.5 258t2.5 381.5q29 168 93 302t149.5 218t186 128 t206.5 43zM676 773q-130 4 -227.5 -71t-136.5 -211q0 -184 73 -289.5t200 -110.5q125 -4 218 87.5t120 252.5q27 155 -40.5 246t-206.5 96z" />
<glyph unicode="7" horiz-adv-x="1001" d="M1141 1393l-13 -104q-207 -221 -417 -599q-197 -348 -310 -691l-148 2q117 369 328 736q164 282 360 522q7 9 3.5 17.5t-14.5 8.5h-559q-27 0 -33 -28l-33 -152h-82l39 278q1 10 11 10h868z" />
<glyph unicode="8" horiz-adv-x="1105" d="M745 1413q199 0 306.5 -104.5t84.5 -273.5q-16 -117 -90 -201.5t-194 -123.5q117 -37 174 -129.5t39 -223.5q-24 -169 -163.5 -273t-345.5 -104q-211 0 -324.5 109t-88.5 285q18 126 99 214.5t212 128.5q-106 37 -157.5 124t-34.5 210q23 162 155.5 262t327.5 100z M743 1306q-138 0 -230 -75t-110 -202q-17 -120 50.5 -188t201.5 -68q138 0 229 73t109 200q17 121 -50 190.5t-200 69.5zM652 658q-150 0 -248 -77.5t-117 -211.5q-18 -129 55 -203.5t217 -74.5q149 0 247.5 79.5t117.5 214.5q18 128 -54.5 200.5t-217.5 72.5z" />
<glyph unicode="9" horiz-adv-x="1062" d="M683 1412q153 -4 254 -99.5t132.5 -258.5t-2.5 -382q-29 -168 -93 -301.5t-149.5 -218t-186 -128t-206.5 -42.5q-144 2 -275 82l51 92q110 -65 216 -67q164 -2 295.5 138t179.5 388q12 48 16 70q-60 -88 -152 -133t-203 -41q-192 6 -287.5 136t-60.5 336 q35 199 164 317.5t307 111.5zM674 1302q-125 4 -217.5 -87t-119.5 -252q-27 -155 40.5 -246.5t206.5 -96.5q130 -4 227.5 71.5t136.5 211.5q0 183 -73 288.5t-201 110.5z" />
<glyph unicode=":" horiz-adv-x="348" d="M306 990q37 0 59.5 -27.5t17.5 -63.5q-5 -30 -30 -52.5t-57 -22.5q-37 0 -59 27.5t-17 63.5q5 30 29.5 52.5t56.5 22.5zM189 153q37 0 59 -27.5t17 -63.5q-5 -30 -30 -52.5t-57 -22.5q-37 0 -59 27.5t-17 63.5q5 30 30 52.5t57 22.5z" />
<glyph unicode=";" horiz-adv-x="346" d="M289 990q37 0 59 -27.5t17 -63.5q-5 -30 -30 -52.5t-57 -22.5q-37 0 -59 27.5t-17 63.5q5 30 30 52.5t57 22.5zM171 153q66 1 83.5 -66t-16.5 -157q-53 -145 -169 -256l-54 42q72 88 104 182q27 69 17 98l-4 -1q-24 8 -38 31t-10 52q5 30 30 52.5t57 22.5z" />
<glyph unicode="&#x3c;" horiz-adv-x="1216" d="M1273 1056l-941 -351l842 -351l-18 -131l-975 412l18 140l1092 412z" />
<glyph unicode="=" horiz-adv-x="1132" d="M1147 754h-950l16 117h950zM1084 305h-950l16 116h950z" />
<glyph unicode="&#x3e;" horiz-adv-x="1216" d="M1233 775l-19 -140l-1091 -412l17 131l942 351l-842 351l17 131z" />
<glyph unicode="?" horiz-adv-x="905" d="M599 1454q188 0 291.5 -86.5t83.5 -229.5q-11 -79 -42 -129.5t-105 -103t-225 -129.5q-166 -83 -216.5 -127t-62.5 -116l-16 -101h-127l14 129q6 49 20.5 84t50 72.5t94.5 73.5t154 83q103 50 158 80.5t90.5 63t47.5 60.5t18 75q12 85 -51 136t-186 51q-113 0 -196 -40 q-21 -6 -24 -23l-37 -170h-82l37 262q1 5 5 9q135 76 306 76zM197 153q37 0 59.5 -27.5t17.5 -63.5q-5 -30 -30 -52.5t-57 -22.5q-38 0 -60 27.5t-17 63.5q5 30 30 52.5t57 22.5z" />
<glyph unicode="@" horiz-adv-x="1943" d="M1170 1460q267 0 453.5 -115t266 -316t43.5 -457q-28 -199 -164 -314.5t-324 -117.5h-219q-5 0 -9.5 5.5t-3.5 10.5l7 72q-114 -104 -276 -104q-170 0 -259.5 116t-61.5 314q27 188 152.5 299.5t301.5 111.5q209 0 330 -153l-73 -537l124 -6q126 2 215.5 86.5 t110.5 232.5q32 221 -30 389t-214 261.5t-375 93.5q-229 0 -411 -100t-292.5 -276.5t-143.5 -409.5q-51 -359 116.5 -565.5t498.5 -208.5q130 1 245 34l35 -124q-140 -39 -285 -39q-200 0 -357.5 69t-254 190.5t-135.5 291t-11 368.5q27 194 110.5 359t211 284.5t302.5 187 t376 67.5zM1079 872q-124 0 -212.5 -89.5t-109.5 -244.5q-21 -149 41 -234t184 -85q134 0 222 102l69 451q-64 100 -194 100z" />
<glyph unicode="A" horiz-adv-x="1579" d="M1422 100l116 -10l-12 -90h-470l11 80q1 8 10 9l141 12q18 2 30 14t6 30l-80 287h-677l-181 -328l179 -15l-13 -89h-429l11 82q1 8 10 9l94 8q16 2 24 18l724 1312l140 7zM558 548h589l-192 722z" />
<glyph unicode="B" horiz-adv-x="1347" d="M347 1434h617q197 0 303.5 -102.5t83.5 -267.5q-15 -106 -81 -185t-173 -120q128 -36 191 -133.5t44 -234.5q-25 -176 -169.5 -283.5t-361.5 -107.5h-656l12 82q1 8 10 9l129 10q10 1 19.5 10t11.5 20l166 1180q3 21 -18 22l-126 10q-5 1 -9.5 6.5t-3.5 10.5zM771 1317 l-132 -10l-70 -496h312q135 0 223 68.5t105 186.5q17 116 -51.5 183.5t-203.5 67.5h-183zM553 695l-80 -568l129 -11h209q155 0 256 78.5t120 213.5q19 134 -59.5 210.5t-233.5 76.5h-341z" />
<glyph unicode="C" horiz-adv-x="1329" d="M1001 1452q242 0 400 -132q7 -3 5 -10l-36 -254h-87l12 182q1 6 -3 19q-127 79 -295 79q-247 0 -421.5 -169t-215.5 -459q-40 -284 85.5 -447.5t371.5 -163.5q224 0 416 140l44 -103q-200 -153 -470 -153q-208 0 -354.5 94t-210 263t-32.5 387q46 324 264 525.5 t527 201.5z" />
<glyph unicode="D" horiz-adv-x="1544" d="M339 1434h603q314 0 478 -199t118 -527q-46 -323 -261.5 -515.5t-529.5 -192.5h-609l11 82q1 8 10 9l129 10q11 1 20.5 10t11.5 20l166 1180q3 21 -18 22l-126 10q-5 1 -9.5 6.5t-3.5 10.5zM764 1317l-133 -10l-166 -1180l131 -11h161q249 0 420 161.5t211 447.5 q39 280 -84 436t-371 156h-169z" />
<glyph unicode="E" horiz-adv-x="1196" d="M339 1434h932q7 0 11.5 -5t3.5 -13l-40 -282h-88l11 163q1 20 -20 20h-516l-75 -533h470l-16 -111h-470l-78 -557h548q10 0 20.5 9t12.5 20l34 155h88l-41 -291q-1 -9 -11 -9h-977l11 82q1 8 10 9l129 10q11 1 20.5 10t11.5 20l166 1180q3 21 -18 22l-126 10 q-15 2 -13 17z" />
<glyph unicode="F" horiz-adv-x="1142" d="M339 1434h918q6 0 10.5 -5t3.5 -13l-39 -282h-88l11 163q1 20 -20 20h-502l-78 -559h431l-16 -110h-431l-76 -543l181 -16l-12 -89h-494l12 82q1 8 10 9l129 10q10 1 19.5 10t11.5 20l166 1180q3 21 -17 22l-127 10q-5 1 -9.5 6.5t-3.5 10.5z" />
<glyph unicode="G" horiz-adv-x="1443" d="M1000 1453q237 0 446 -128q7 -4 6 -11l-35 -256h-88l12 175q1 10 -4 20q-170 82 -341 82q-153 -1 -285 -69.5t-227.5 -212.5t-123.5 -345q-39 -282 83.5 -446.5t366.5 -164.5q235 0 405 153l44 299q3 21 -19 22l-335 18l13 93h474q6 0 10.5 -6t3.5 -12l-94 -664h-91 l7 122q-190 -141 -441 -141q-202 0 -344 94t-203 263t-30 387q24 175 99 315t182 229.5t237.5 136.5t271.5 47z" />
<glyph unicode="H" horiz-adv-x="1757" d="M1809 1344l-139 -12q-27 -3 -31 -30l-166 -1179q-3 -21 18 -22l141 -12l-12 -89h-494l12 82q1 8 10 9l149 12q11 1 21 9.5t11 20.5l75 540h-862l-77 -548q-3 -21 18 -22l161 -14l-13 -89h-493l11 82q1 8 10 9l129 10q27 2 32 30l166 1180q3 21 -18 22l-126 10 q-14 2 -13 17l10 74h494l-13 -90l-158 -14q-28 -3 -32 -30l-71 -510h862l73 519q3 21 -18 22l-146 12q-14 2 -13 17l11 74h493z" />
<glyph unicode="I" horiz-adv-x="753" d="M805 1344l-141 -12q-27 -3 -31 -30l-166 -1179q-3 -21 18 -22l143 -12l-12 -89h-478l11 82q1 8 10 9l132 11q11 1 20.5 10t10.5 19l166 1179q3 21 -18 23l-128 10q-14 2 -13 17l10 74h478z" />
<glyph unicode="J" horiz-adv-x="768" d="M820 1344l-137 -12q-27 -3 -31 -30l-173 -1231q-26 -186 -144.5 -316t-304.5 -177l-27 84q130 45 219 155.5t110 261.5l172 1230q3 21 -17 22l-146 12q-14 2 -13 17l11 74h493z" />
<glyph unicode="K" horiz-adv-x="1527" d="M1624 1344l-150 -12l-580 -543l417 -679q3 -5 14 -7l148 -13q15 -2 13 -17l-10 -73h-275l-416 683l-276 -258l-44 -300q-3 -21 18 -22l161 -14l-13 -89h-493l11 82q1 8 10 9l129 10q11 1 21 9.5t11 20.5l166 1180q3 21 -18 22l-126 10q-14 2 -13 17l10 74h490l-12 -90 l-155 -14q-28 -3 -32 -29l-102 -720l738 700q11 11 15 23t-1.5 21t-18.5 11l-93 8q-13 2 -11 15l11 75h469z" />
<glyph unicode="L" horiz-adv-x="1167" d="M820 1344l-158 -14q-28 -3 -32 -30l-166 -1184h524q10 0 20.5 9t12.5 20l34 155h88l-41 -291q-1 -9 -12 -9h-952l11 82q1 8 10 9l129 10q11 1 20.5 10t11.5 20l166 1180q3 21 -18 22l-126 10q-5 1 -9.5 6.5t-3.5 10.5l10 74h494z" />
<glyph unicode="M" horiz-adv-x="2103" d="M2014 1344l-127 -11q-31 -3 -33 -34l-7 -1198l136 -12l-12 -89h-485l12 89l171 16q15 1 24 11t10 23l11 1068l-621 -1206l-94 -1l-286 1211l-305 -1104l198 -18l-12 -89h-469l11 82q1 8 10 9l115 9q9 1 18 9t11 17l324 1181q6 26 -17 27l-116 9q-5 1 -9.5 6.5t-3.5 10.5 l11 74h330l283 -1188l614 1188h321z" />
<glyph unicode="N" horiz-adv-x="1736" d="M1797 1344l-138 -12q-28 -3 -32 -30l-183 -1302h-134l-714 1191l-151 -1067q-3 -21 18 -22l154 -13l-13 -89h-476l11 82q1 8 10 9l130 10q11 1 20.5 9t10.5 21l166 1180q3 21 -17 22l-127 10q-5 1 -9.5 6.5t-3.5 10.5l10 74h290l721 -1204l153 1079q3 21 -18 22l-139 12 q-5 1 -9.5 6.5t-3.5 10.5l10 74h477z" />
<glyph unicode="O" horiz-adv-x="1599" d="M998 1452q208 0 354.5 -94t209.5 -263t32 -387q-46 -325 -263.5 -526t-526.5 -201q-208 0 -354.5 94t-210 263t-32.5 387q46 324 264 525.5t527 201.5zM994 1336q-248 0 -422.5 -170t-214.5 -458q-39 -282 83.5 -446.5t366.5 -164.5q248 0 422.5 170t214.5 458 q40 282 -83 446.5t-367 164.5z" />
<glyph unicode="P" horiz-adv-x="1300" d="M339 1434h617q198 0 303.5 -111.5t79.5 -291.5q-25 -174 -157.5 -280.5t-329.5 -106.5h-314l-73 -519q-3 -21 18 -22l161 -14l-13 -89h-493l11 82q1 8 10 9l129 10q11 1 20.5 10t11.5 20l166 1180q3 21 -18 22l-126 10q-5 1 -9.5 6.5t-3.5 10.5zM769 1317l-138 -10 l-76 -546h303q139 0 230.5 75t109.5 205q18 128 -51.5 202t-208.5 74h-169z" />
<glyph unicode="Q" horiz-adv-x="1611" d="M1619 -168l31 -106q-61 -25 -120.5 -29.5t-103.5 4t-96 35.5t-83 49t-80 61q-7 5 -35 26.5t-38 29t-34 24.5t-38.5 26t-35.5 20.5t-40 20.5q-69 -12 -142 -12q-208 0 -354.5 94t-210 263t-32.5 387q46 324 264 525.5t527 201.5q208 0 354.5 -94t209.5 -263t32 -387 q-34 -239 -164 -415.5t-328 -255.5q48 -32 118 -93q42 -33 60.5 -47t56.5 -39t64 -33t63 -15.5t75 -1t80 23.5zM357 708q-39 -282 83.5 -446.5t366.5 -164.5q248 0 422.5 170t214.5 458q40 282 -83 446.5t-367 164.5q-249 0 -423 -169.5t-214 -458.5z" />
<glyph unicode="R" horiz-adv-x="1404" d="M339 1434h617q198 0 304 -108.5t81 -283.5q-21 -149 -130.5 -245.5t-275.5 -112.5l-9 -2l266 -572q4 -7 16 -9l142 -12l-12 -89h-250q-3 0 -7 3.5t-4 6.5l-288 658h-248l-76 -543q-3 -21 18 -22l161 -14l-13 -89h-493l11 82q1 8 10 9l129 10q11 1 21 9.5t11 20.5 l165 1180q3 21 -17 22l-126 10q-5 1 -9.5 6.5t-3.5 10.5zM766 1317l-135 -10l-73 -522h314q134 0 222 72t105 196q17 123 -50 193.5t-201 70.5h-182z" />
<glyph unicode="S" horiz-adv-x="1161" d="M844 1455q192 0 313 -83q8 -4 6 -10l-36 -257h-87l11 180q2 12 -10 17q-80 38 -199 38q-163 0 -270.5 -65.5t-121.5 -169.5q-8 -35 -4 -65t15 -54.5t43.5 -53t82 -59t130.5 -73.5q169 -87 251.5 -151t109 -126t13.5 -152q-25 -179 -188 -284t-394 -106q-223 0 -369 87 q-9 3 -7 12l36 254h87l-11 -173q-1 -11 9 -16q114 -48 259 -48q175 0 290.5 75t132.5 200q6 46 0.5 77t-34.5 65.5t-81.5 68.5t-146.5 85q-80 44 -136 77.5t-100.5 64t-71.5 58.5t-45 54.5t-24 57.5t-6 61.5t6 72.5q21 153 175 246.5t372 94.5z" />
<glyph unicode="T" horiz-adv-x="1318" d="M264 1434h1187q7 0 11.5 -5t3.5 -13l-40 -279h-87l11 164q1 10 -4.5 15t-16.5 5h-411l-168 -1198q-3 -21 18 -22l143 -12l-13 -89h-478l12 82q1 8 10 9l132 11q11 1 20.5 10t10.5 19l167 1190h-404q-27 0 -33 -29l-34 -155h-88l40 287q1 10 11 10z" />
<glyph unicode="U" horiz-adv-x="1701" d="M1763 1343l-140 -12q-27 -3 -31 -30l-105 -748q-36 -259 -207.5 -416t-418.5 -157q-252 0 -382.5 160.5t-94.5 420.5l105 748q3 21 -17 22l-130 11q-5 1 -9.5 6.5t-3.5 10.5l10 73h496l-13 -89l-155 -14q-27 -3 -31 -30l-105 -746q-30 -215 63 -336t277 -121 q191 0 329 125.5t168 339.5l105 746q3 21 -18 22l-169 14l13 89h477z" />
<glyph unicode="V" horiz-adv-x="1488" d="M1626 1344l-110 -10l-708 -1333l-121 -1l-334 1325q-2 9 -16 11l-80 7q-16 2 -13 17l10 74h232l298 -1240l580 1102q16 33 -16 36l-145 13q-14 2 -13 17l10 72h438z" />
<glyph unicode="W" horiz-adv-x="2277" d="M2414 1344l-127 -11l-589 -1332l-120 -1l-272 1209l-617 -1208l-121 -1l-209 1322q-3 13 -17 14l-85 7q-14 2 -13 17l10 74h247l173 -1219l545 1082q8 14 3.5 24.5t-19.5 11.5l-138 12q-16 2 -13 17l10 72h356l254 -1218l471 1083q13 30 -16 33l-145 13q-16 2 -13 17 l11 72h446z" />
<glyph unicode="X" horiz-adv-x="1386" d="M1511 1344l-138 -12l-489 -611l325 -613q3 -6 14 -8l123 -10l-12 -90h-217q-5 0 -9 6l-337 621l-413 -524l166 -15l-12 -88h-455l12 82q1 8 10 9l113 10q14 2 23 14l487 603l-325 608q-3 6 -15 8l-98 9q-14 2 -13 17l11 74h221l333 -625l379 479q13 16 9.5 30.5 t-22.5 15.5l-120 11q-14 2 -13 17l10 72h465z" />
<glyph unicode="Y" horiz-adv-x="1411" d="M1547 1344l-106 -9l-579 -825l-56 -387q-3 -21 18 -22l143 -12l-12 -89h-478l11 82q1 8 10 9l132 11q27 2 31 29l53 365l-352 830q-3 8 -15 9l-90 8q-14 2 -13 17l10 74h220l339 -800l459 656q12 16 8.5 29t-21.5 14l-139 12q-14 2 -13 17l10 72h442z" />
<glyph unicode="Z" horiz-adv-x="1202" d="M1316 1347l-1031 -1231h735q27 0 33 28l32 146h88l-39 -281q-1 -10 -12 -10h-1052l11 86l1034 1232h-681q-27 0 -33 -28l-31 -142h-88l39 277q1 10 11 10h994z" />
<glyph unicode="[" horiz-adv-x="573" d="M429 1363l-215 -1525h276l-15 -106h-422l244 1737h422l-15 -106h-275z" />
<glyph unicode="\" horiz-adv-x="827" d="M740 -242h-150l-323 1762h151z" />
<glyph unicode="]" horiz-adv-x="573" d="M690 1469l-244 -1737h-422l15 106h275l214 1525h-275l15 106h422z" />
<glyph unicode="^" horiz-adv-x="1054" d="M1076 808h-137l-222 530l-372 -530h-142l448 626h153z" />
<glyph unicode="_" horiz-adv-x="1230" d="M1111 -212h-1050l15 108h1050z" />
<glyph unicode="`" horiz-adv-x="555" d="M628 1171h-121l-208 305h161z" />
<glyph unicode="a" horiz-adv-x="1284" d="M756 1044q93 1 179.5 -20.5t188.5 -71.5q9 -3 7 -12l-97 -693q-23 -165 129 -168l8 -1l-11 -78h-73q-96 0 -144 45.5t-42 129.5l5 34q-91 -110 -200.5 -169.5t-213.5 -59.5q-81 0 -146.5 33t-110.5 100.5t-61 169.5t2 239q23 167 107.5 286.5t205.5 176.5t267 59z M765 945q-177 -2 -301.5 -114.5t-154.5 -324.5q-29 -204 38 -312t189 -107q90 0 189.5 62.5t185.5 182.5l85 566q-115 49 -231 47z" />
<glyph unicode="b" horiz-adv-x="1253" d="M324 1473l266 14q18 0 15 -17l-93 -645q90 109 193 164t200 55q163 0 257.5 -141t60.5 -385q-20 -141 -74.5 -247t-135 -168.5t-177 -93t-209.5 -30.5q-171 0 -352 71l182 1313q3 21 -19 22l-125 6zM861 935q-88 0 -184.5 -62.5t-179.5 -183.5l-84 -566q112 -45 226 -45 q83 0 155.5 26t133 78.5t102.5 139t58 199.5q27 195 -40.5 304.5t-186.5 109.5z" />
<glyph unicode="c" horiz-adv-x="1024" d="M755 1044q171 0 287 -90q8 -4 6 -10l-34 -240h-87l11 181q0 13 -9 17q-72 44 -175 44q-172 0 -294.5 -119.5t-150.5 -322.5q-28 -198 57 -312t255 -114q149 0 286 91l37 -94q-139 -95 -326 -95q-234 0 -355 150.5t-87 390.5q33 233 191 378t388 145z" />
<glyph unicode="d" horiz-adv-x="1271" d="M920 1522l266 14q18 0 15 -18l-184 -1305q-19 -130 134 -134l8 -1l-11 -78h-73q-98 0 -147 38t-42 107q-77 -79 -171 -122t-187 -43q-87 0 -158.5 34t-122 99.5t-70.5 170.5t-1 238q32 229 157.5 375t305.5 147q101 1 187 -52t144 -156l83 575q3 22 -19 23l-125 6z M678 946q-130 -1 -235 -117.5t-134 -322.5q-28 -201 50 -310t213 -109q170 0 316 166l69 466q-45 114 -119.5 171t-159.5 56z" />
<glyph unicode="e" horiz-adv-x="1101" d="M725 1044q184 0 285.5 -93t96.5 -237q-8 -258 -426 -333q-138 -24 -371 -32q13 -129 90 -199.5t201 -70.5q200 0 356 132l40 -92q-73 -64 -177 -101.5t-225 -37.5q-224 0 -338.5 150.5t-80.5 390.5q33 236 181 379.5t368 143.5zM719 953q-155 0 -262 -111.5t-134 -291.5 q-8 -51 -8 -106q204 5 334 29q319 58 327 253q2 99 -67 163t-190 64z" />
<glyph unicode="f" horiz-adv-x="851" d="M816 1535q152 0 272 -85l-46 -79q-104 67 -211 65q-102 0 -178 -61t-92 -173l-25 -178h297l-12 -84l-299 -16l-125 -887q-28 -199 -101.5 -302t-189.5 -104h-25l8 80q56 2 105.5 91.5t71.5 244.5l123 879l-120 6q-6 0 -10.5 4.5t-3.5 12.5l10 70l138 5l27 194 q11 79 48 141t90 99.5t116 57t132 19.5z" />
<glyph unicode="g" horiz-adv-x="1234" d="M756 1044q93 1 179.5 -20.5t188.5 -71.5q9 -3 7 -12l-131 -934q-13 -89 -45 -160.5t-76.5 -118t-102.5 -77t-119 -43.5t-129 -13q-186 0 -351 90l61 79q134 -71 278 -71q137 1 233 77.5t119 242.5l28 184q-91 -105 -197 -160.5t-207 -55.5q-81 0 -146.5 33t-110.5 100.5 t-61 169.5t2 239q23 167 107.5 286.5t205.5 176.5t267 59zM765 945q-177 -2 -301.5 -114.5t-154.5 -324.5q-29 -204 38 -312t189 -107q90 0 189.5 62.5t185.5 182.5l85 566q-115 49 -231 47z" />
<glyph unicode="h" horiz-adv-x="1445" d="M352 1522l265 14q18 0 15 -18l-101 -705q205 231 462 231q152 0 228 -84.5t52 -254.5l-62 -443q-25 -179 132 -184l7 1l-11 -79h-32q-128 0 -187.5 69.5t-41.5 197.5l60 425q19 132 -32.5 192.5t-156.5 60.5q-109 0 -223.5 -64t-207.5 -186l-99 -695h-133l198 1411 q3 22 -18 23l-126 6z" />
<glyph unicode="i" horiz-adv-x="716" d="M546 1462q37 0 59.5 -27t17.5 -65q-4 -31 -30 -53t-58 -22q-37 0 -59 27t-17 65q5 32 30 53.5t57 21.5zM281 1021l266 14q18 0 15 -17l-106 -756q-24 -177 133 -183l14 -1l-11 -78h-40q-128 0 -187.5 69.5t-41.5 197.5l91 643q3 22 -19 23l-125 6z" />
<glyph unicode="j" horiz-adv-x="544" d="M527 1462q37 0 59.5 -27t17.5 -64q-5 -32 -30 -53.5t-57 -21.5q-37 0 -59.5 27t-17.5 64q5 32 30 53.5t57 21.5zM262 1021l266 15q18 0 15 -18l-169 -1207q-14 -101 -86 -159t-181 -58q-108 0 -168 58l43 70q35 -31 97 -31q66 0 110 36.5t54 102.5l152 1081q3 21 -19 22 l-125 7z" />
<glyph unicode="k" horiz-adv-x="1265" d="M352 1521l265 14q18 0 15 -17l-140 -989l557 420q100 75 225 75h42l-7 -79q-104 -3 -216 -85l-322 -233l259 -419q77 -126 208 -130l-8 -78h-59q-82 1 -148 44t-104 120l-241 396l-200 -147l-43 -296q-3 -21 18 -22l134 -11l-11 -84h-433l11 77q1 8 10 9l108 9 q27 2 31 30l181 1286q3 21 -19 22l-125 6z" />
<glyph unicode="l" horiz-adv-x="698" d="M352 1521l265 14q18 0 15 -17l-176 -1256q-24 -177 133 -183l14 -1l-11 -78h-40q-128 0 -187.5 69.5t-41.5 197.5l161 1143q3 22 -19 23l-125 6z" />
<glyph unicode="m" horiz-adv-x="2105" d="M1668 1044q144 0 215.5 -84.5t47.5 -254.5l-62 -443q-24 -178 131 -183l8 -1l-11 -78h-32q-128 0 -187.5 69.5t-41.5 197.5l60 425q19 132 -29 192.5t-146 60.5q-99 0 -195.5 -55t-206.5 -185l-4 -21l-96 -684h-133l97 692q19 132 -28.5 192.5t-145.5 60.5 q-99 0 -195.5 -55t-206.5 -185l-101 -705h-133l128 910q3 22 -19 23l-125 6l11 82l266 14q6 0 11 -6t4 -12l-31 -204q118 129 220 180t217 51q122 0 193 -61.5t73 -182.5q123 138 226 191t221 53z" />
<glyph unicode="n" horiz-adv-x="1433" d="M980 1044q152 0 228 -84.5t52 -254.5l-63 -443q-24 -178 132 -183l8 -1l-11 -78h-33q-128 0 -187 69.5t-41 197.5l60 425q19 132 -32.5 192.5t-156.5 60.5q-109 0 -223.5 -64t-207.5 -186l-99 -695h-133l128 910q3 22 -19 23l-125 6l11 82l266 14q18 0 15 -18l-31 -203 q204 230 462 230z" />
<glyph unicode="o" d="M755 1044q234 0 355.5 -150t87.5 -390q-33 -233 -191.5 -378.5t-388.5 -145.5q-234 0 -355 150.5t-87 390.5q33 233 191 378t388 145zM754 946q-172 0 -294.5 -119.5t-150.5 -322.5q-27 -197 58 -311t252 -114q172 0 295 119.5t151 322.5q27 197 -58 311t-253 114z" />
<glyph unicode="p" horiz-adv-x="1273" d="M889 1044q87 0 158.5 -34t122 -99.5t70.5 -170.5t1 -238q-32 -229 -157.5 -375t-305.5 -147q-101 0 -187.5 53t-143.5 155l-69 -476q-3 -22 18 -23l146 -11l-12 -85h-445l11 77q1 8 10 9l109 10q27 4 31 30l167 1188q3 21 -18 23l-117 6l12 84l240 6q14 0 14 -16 l-12 -127q77 77 171 119t186 42zM845 937q-170 0 -316 -166l-69 -466q45 -114 119.5 -171t159.5 -56q130 1 235 117.5t134 322.5q28 201 -50 310t-213 109z" />
<glyph unicode="q" horiz-adv-x="1282" d="M792 1044q173 0 352 -70l-175 -1264q-3 -19 18 -22l125 -10l-11 -84h-449l10 76q1 8 10 9l134 11q27 2 31 30l70 479q-90 -109 -193 -164t-200 -55q-163 1 -257.5 142t-60.5 384q20 141 74.5 247t135 168.5t177 92.5t209.5 30zM780 945q-112 0 -203 -44.5t-158 -146 t-88 -251.5q-27 -195 40.5 -304.5t186.5 -109.5q88 0 184.5 62.5t179.5 183.5l84 566q-109 44 -226 44z" />
<glyph unicode="r" horiz-adv-x="903" d="M986 1033q13 -2 11 -14l-33 -234h-87l8 125q1 11 -6 17t-18 3q-33 -10 -55 -19q-133 -40 -292 -157l-108 -754h-133l128 910q3 22 -19 23l-125 6l11 82l266 14q7 0 11.5 -5t3.5 -13l-26 -165q188 148 351 178q60 11 112 3z" />
<glyph unicode="s" horiz-adv-x="905" d="M649 1045q147 0 242 -60q8 -4 6 -10l-31 -220h-73l10 162q2 13 -11 17q-55 23 -129 23q-117 0 -194 -47t-87 -119q-3 -32 -1.5 -55.5t22 -47.5t58.5 -50t108 -63q173 -90 225 -153t38 -159q-18 -130 -140 -205.5t-296 -75.5q-156 0 -269 54q-9 3 -7 12l30 218h73l-9 -158 q-2 -14 11 -18q75 -22 163 -22q132 0 218 53.5t99 144.5q6 44 -5 72.5t-52 61.5t-129 80q-99 51 -154 87.5t-84.5 73t-32.5 73.5t3 88q10 73 65.5 129t141.5 85t191 29z" />
<glyph unicode="t" horiz-adv-x="784" d="M486 1024h282l-12 -84l-284 -15l-102 -725q-9 -63 22 -96t93 -33q91 0 145 67l40 -67q-71 -94 -218 -94q-112 0 -171 59t-45 156l103 733l-116 7q-6 0 -10 4.5t-3 12.5l10 71l133 1l36 258l134 7z" />
<glyph unicode="u" horiz-adv-x="1415" d="M1304 1024l-110 -787q-21 -153 101 -156h25l-11 -81h-98q-85 2 -125 50t-32 136l4 23q-104 -116 -222 -173t-239 -56q-152 0 -227.5 84.5t-51.5 254.5l82 587q3 21 -18 22l-143 11l12 85h282q17 0 14 -18l-95 -674q-19 -132 32.5 -192.5t156.5 -60.5q109 0 223.5 64 t207.5 186l99 695h133z" />
<glyph unicode="v" horiz-adv-x="1171" d="M599 141l350 651q59 110 136 170.5t158 61.5h22l-8 -79q-49 -2 -109.5 -58t-111.5 -152l-398 -735h-131l-229 921q-2 9 -16 11l-65 7q-14 2 -13 17l10 68h197z" />
<glyph unicode="w" horiz-adv-x="1753" d="M1242 148l312 627q58 117 135.5 182.5t157.5 66.5h15l-8 -79q-43 -1 -100.5 -57t-103.5 -148l-377 -740h-120l-167 817l-401 -817h-121l-196 919q-3 12 -16 13l-70 7q-14 2 -12 17l9 68h203l172 -875l424 875h104z" />
<glyph unicode="x" horiz-adv-x="1101" d="M634 575l258 303q123 144 259 146h32l-7 -79q-103 -3 -219 -136l-251 -280l243 -426q3 -6 14 -8l113 -11l-11 -84h-194q-7 0 -10 7l-257 454l-268 -314q-123 -145 -258 -147h-42l7 79q114 5 227 137l264 295l-234 410q-3 6 -14 8l-99 10q-15 2 -12 17l9 68h206z" />
<glyph unicode="y" horiz-adv-x="1140" d="M585 134l354 658q59 109 135 170t154 62h22l-7 -79q-47 -2 -106.5 -57.5t-110.5 -151.5l-491 -910q-58 -109 -148.5 -169.5t-193.5 -61.5l-87 -1l11 78l45 5q84 3 161.5 58.5t128.5 151.5l62 113h-23l-228 921q-2 9 -16 11l-65 7q-14 2 -12 17l9 68h197z" />
<glyph unicode="z" horiz-adv-x="1024" d="M1030 962l-746 -875h525q27 0 33 28l30 131h73l-33 -237q-1 -9 -11 -9h-791l7 62l747 875h-476q-26 0 -32 -28l-30 -129h-73l33 235q1 9 11 9h740z" />
<glyph unicode="{" horiz-adv-x="665" d="M739 1493q33 0 71 -5l-20 -105q-26 2 -33 2q-84 0 -145.5 -50.5t-75.5 -147.5l-55 -400q-17 -126 -147 -182q49 -24 76.5 -72t18.5 -112l-56 -401q-14 -96 30 -143.5t126 -49.5q12 0 36 4l4 -103q-42 -5 -65 -4q-141 0 -215 77t-53 228l56 400q9 65 -25 98.5t-93 34.5 l7 92q59 0 106.5 37.5t56.5 103.5l56 401q21 151 112 224t227 73z" />
<glyph unicode="|" horiz-adv-x="317" d="M172 -389h-136l271 1925h136z" />
<glyph unicode="}" horiz-adv-x="665" d="M333 1493q141 0 215 -76.5t53 -228.5l-57 -401q-9 -65 25 -98.5t93 -34.5l-6 -92q-59 0 -107 -37.5t-57 -103.5l-56 -401q-21 -150 -112 -223.5t-227 -73.5q-19 -1 -71 6l19 102q28 -3 45 0q79 4 138 55t72 144l56 399q17 127 147 183q-50 24 -77.5 71.5t-18.5 111.5 l57 400q14 99 -31.5 146.5t-125.5 47.5q-10 0 -36 -2l-3 102q32 4 65 4z" />
<glyph unicode="~" horiz-adv-x="1142" d="M412 697q49 5 102 -12.5t132 -55.5q49 -24 77.5 -36t71.5 -22.5t78 -8.5q101 5 159 106l109 -30q-24 -87 -89.5 -138.5t-150.5 -53.5q-94 -3 -246 73q-59 28 -82 38.5t-58.5 21.5t-58.5 9q-50 -2 -95.5 -35t-95.5 -107l-106 42q101 193 253 209z" />
<glyph unicode="&#xa1;" horiz-adv-x="350" d="M316 1047q37 0 59 -27.5t17 -63.5q-5 -30 -30 -52t-57 -22q-37 0 -59 27.5t-17 63.5q5 30 30 52t57 22zM192 -399h-146l154 1002h119z" />
<glyph unicode="&#xa2;" horiz-adv-x="1024" d="M837 1191l-22 -153q133 -10 227 -84q8 -4 6 -10l-34 -240h-87l11 181q0 13 -9 17q-73 44 -175 44q-172 0 -294.5 -119.5t-150.5 -322.5q-28 -198 57 -312t255 -114q149 0 286 91l37 -94q-123 -85 -277 -92l-21 -149h-115l21 152q-203 21 -305 167t-71 368 q31 219 173.5 361t351.5 158l21 151h115z" />
<glyph unicode="&#xa3;" horiz-adv-x="1005" d="M815 1454q161 0 292 -76q8 -3 6 -11l-35 -248h-81l11 171q1 13 -11 17q-82 32 -173 32q-82 0 -152 -24.5t-124.5 -80.5t-73.5 -137q-10 -52 -8.5 -86.5t16 -75.5t29.5 -71t32.5 -73t25.5 -82l374 1l-15 -103l-350 -1q-4 -48 -18 -102q-15 -81 -70 -173.5t-162 -221.5h623 l-15 -110h-798l13 112q112 129 173.5 224.5t80.5 180.5q15 48 18 92l-199 -1l14 103l180 1q-8 33 -26 76t-32 74t-27.5 77.5t-14 86.5t10.5 100q27 111 104.5 187.5t174.5 109.5t207 32z" />
<glyph unicode="&#xa4;" />
<glyph unicode="&#xa5;" horiz-adv-x="1411" d="M1547 1344l-106 -9l-381 -543h244l-15 -101h-300l-110 -157l-15 -91h390l-14 -101h-403l-31 -219q-3 -21 18 -22l143 -12l-12 -89h-478l11 82q1 8 10 9l132 11q10 1 18.5 8.5t11.5 17.5l31 214h-410l14 101h398l9 82l-72 166h-300l14 101h243l-225 535q-3 7 -15 8l-90 8 q-16 2 -13 17l10 74h220l339 -800l459 656q12 16 8.5 29t-21.5 14l-139 12q-16 2 -13 17l10 72h442z" />
<glyph unicode="&#xa6;" horiz-adv-x="327" d="M337 713h-146l116 823h146zM182 -389h-146l116 823h146z" />
<glyph unicode="&#xa7;" horiz-adv-x="976" d="M731 1456q173 2 279 -71q7 -3 5 -11l-35 -250h-85l12 180q2 14 -10 17q-61 29 -151 29q-130 0 -215.5 -53.5t-97.5 -137.5q-4 -38 -2 -65t25.5 -55t68 -57.5t126.5 -73.5q140 -73 209 -128t91 -108.5t11 -129.5q-14 -102 -89.5 -178.5t-196.5 -116.5q132 -80 173 -144.5 t28 -159.5q-21 -154 -162 -243.5t-341 -88.5q-198 2 -319 73q-9 2 -7 10l35 250h85l-12 -178q0 -9 10 -16q93 -36 205 -36q145 0 240.5 62t110.5 167q5 39 0 65t-28.5 55t-68 58.5t-121.5 70.5q-93 48 -151.5 84.5t-97 71.5t-52.5 66.5t-18 70.5t5 84q14 99 102 170t226 93 q-89 51 -139.5 89t-78 76.5t-30 78t3.5 93.5q18 129 146.5 207.5t310.5 79.5zM646 755h-11q-126 0 -207 -51t-92 -134q-1 -27 -3 -46t7 -38.5t21 -35t39.5 -35.5t61.5 -40.5t88 -49.5l16 -8q105 18 172 76t79 142q10 69 -21.5 111.5t-149.5 108.5z" />
<glyph unicode="&#xa8;" horiz-adv-x="669" d="M356 1381q35 0 56.5 -26t16.5 -61q-4 -28 -28 -49t-54 -21q-35 0 -56 26t-16 61q4 28 27.5 49t53.5 21zM688 1381q35 0 56.5 -26t16.5 -61q-4 -28 -28 -49t-54 -21q-35 0 -56 26t-16 61q4 28 27.5 49t53.5 21z" />
<glyph unicode="&#xa9;" horiz-adv-x="1660" d="M1028 1454q202 0 359.5 -100t234 -271.5t47.5 -373.5q-28 -198 -150 -366t-304 -265.5t-381 -97.5q-202 0 -359.5 100t-234 271.5t-47.5 373.5q28 198 150 366t304 265.5t381 97.5zM1027 1357q-171 0 -329.5 -86t-265 -235t-131.5 -326q-24 -172 39.5 -317.5t195 -229.5 t299.5 -84q171 0 329.5 86t265 235t131.5 326q24 172 -39.5 317.5t-195 229.5t-299.5 84zM981 1100q132 0 219 -77q6 -4 5 -9l-18 -125l-74 -1l7 93q1 10 -10 16q-53 33 -126 33q-123 0 -209.5 -86t-107.5 -235q-20 -144 40 -224.5t179 -80.5q111 0 221 82l34 -69 q-106 -84 -255 -84q-168 0 -257.5 110t-65.5 282q23 166 138.5 270.5t279.5 104.5z" />
<glyph unicode="&#xaa;" horiz-adv-x="829" d="M602 1446q111 2 223 -55q11 0 11 -9l-60 -422q-13 -95 73 -99h11l-7 -51h-47q-60 0 -90.5 29.5t-26.5 82.5l2 5q-53 -62 -118 -95.5t-126 -33.5q-105 0 -162 86t-35 247q21 150 118.5 231.5t233.5 83.5zM613 1383q-107 -1 -182.5 -70t-93.5 -198q-17 -122 21.5 -185.5 t110.5 -63.5q55 0 115 38t111 110l52 342q-63 27 -134 27z" />
<glyph unicode="&#xab;" horiz-adv-x="1015" d="M307 511l218 -356h-134l-228 359l326 360h139zM758 511l218 -356h-135l-227 359l326 360h139z" />
<glyph unicode="&#xac;" horiz-adv-x="1433" />
<glyph unicode="&#xad;" horiz-adv-x="862" d="M836 452h-682l17 116h681z" />
<glyph unicode="&#xae;" horiz-adv-x="1660" d="M1028 1454q202 0 359.5 -100t234 -271.5t47.5 -373.5q-28 -198 -150 -366t-304 -265.5t-381 -97.5q-202 0 -359.5 100t-234 271.5t-47.5 373.5q28 198 150 366t304 265.5t381 97.5zM1027 1357q-171 0 -329.5 -86t-265 -235t-131.5 -326q-24 -172 39.5 -317.5t195 -229.5 t299.5 -84q171 0 329.5 86t265 235t131.5 326q24 172 -39.5 317.5t-195 229.5t-299.5 84zM670 1087h318q104 0 161 -58t44 -147q-10 -72 -65 -120.5t-141 -58.5l129 -285q3 -6 12 -8l69 -6l-6 -46h-129q-10 0 -13 10l-152 326h-109l-37 -266q-3 -16 13 -17l74 -6l-6 -47 h-265l6 40q2 8 9 8l52 5q22 2 26 24l81 580q3 15 -13 16l-54 5q-12 0 -10 12zM834 1017l-36 -257h145q64 0 106 34.5t51 98.5q9 62 -23 95t-96 33h-86z" />
<glyph unicode="&#xaf;" horiz-adv-x="757" d="M841 1231h-577l14 100h577z" />
<glyph unicode="&#xb0;" horiz-adv-x="684" d="M550 1523q107 0 171.5 -76.5t49.5 -182.5q-14 -101 -95 -172.5t-184 -71.5q-107 0 -171.5 77t-49.5 183q14 100 95 171.5t184 71.5zM552 1443q-69 0 -126 -51.5t-67 -127.5q-10 -70 28.5 -117t102.5 -47q69 0 126 52t67 128q10 70 -28.5 116.5t-102.5 46.5z" />
<glyph unicode="&#xb1;" horiz-adv-x="1040" d="M686 766h372l-17 -117h-371l-49 -351h-117l50 351h-372l16 117h372l49 351h117zM945 -35h-859l16 117h860z" />
<glyph unicode="&#xb2;" horiz-adv-x="610" d="M510 1528q67 0 118.5 -25t72.5 -69q23 -48 17.5 -106t-48.5 -133.5t-125 -169.5q-84 -94 -253 -247l264 1q19 0 24 19l18 84h71l-25 -178h-510l9 62q0 2 3 8q183 158 304 301q184 210 152 316q-19 57 -97 59q-52 2 -97.5 -26.5t-69.5 -82.5l-103 22q30 78 109 121.5 t166 43.5z" />
<glyph unicode="&#xb3;" horiz-adv-x="647" d="M507 1528q107 1 175.5 -58t54.5 -159q-8 -59 -49 -105t-110 -72q65 -24 96.5 -80t21.5 -131q-11 -77 -60.5 -130.5t-113.5 -76.5t-136 -23q-130 0 -228 69l38 61q85 -50 177 -50q83 0 139.5 41.5t69.5 130.5q10 74 -26.5 112t-116.5 38h-94l10 78l89 -1q74 0 122.5 38.5 t58.5 108.5q9 66 -26 99t-99 33q-66 0 -133 -42q-8 -3 -9 -10l-22 -102h-75l23 161l4 8q100 62 219 62z" />
<glyph unicode="&#xb4;" horiz-adv-x="555" d="M380 1171h-126l253 305h166z" />
<glyph unicode="&#xb6;" horiz-adv-x="1179" d="M1276 1324l-131 -12q-27 -3 -31 -29l-203 -1445h-137l208 1479h-206l-208 -1479h-294l14 103q1 8 10 8l124 11q27 4 31 30l97 667q-165 16 -250 122.5t-62 269.5q24 170 149 275.5t312 109.5h592z" />
<glyph unicode="&#xb7;" horiz-adv-x="348" d="M268 717q37 0 59 -27.5t17 -63.5q-5 -30 -30 -52.5t-57 -22.5q-37 0 -59 28t-17 64q5 30 30 52t57 22z" />
<glyph unicode="&#xb8;" horiz-adv-x="522" d="M307 11l-63 -119q22 -2 38 -7q56 -14 88 -57t22 -102q-11 -62 -70 -106.5t-139 -44.5q-87 2 -143 51l26 65q48 -39 105 -37q44 1 76.5 26t42.5 68q7 47 -20.5 70t-73.5 26q-29 1 -53 -4l85 192z" />
<glyph unicode="&#xb9;" horiz-adv-x="471" d="M505 1515l-101 -719q-3 -19 16 -21l75 -5l-9 -66h-320l8 58q2 9 10 9l82 7q20 2 23 21l81 577q1 9 -3.5 11.5t-12.5 -2.5l-102 -60l-29 71l188 119h94z" />
<glyph unicode="&#xba;" horiz-adv-x="811" d="M602 1446q145 0 220 -93t55 -240q-20 -141 -116.5 -229t-236.5 -88q-145 0 -219.5 93t-54.5 240q20 141 116 229t236 88zM606 1382q-104 0 -177.5 -72.5t-90.5 -196.5q-16 -118 33.5 -185t148.5 -67q104 0 177.5 72t90.5 196q16 118 -33.5 185.5t-148.5 67.5z" />
<glyph unicode="&#xbb;" horiz-adv-x="1015" d="M547 514l-326 -359h-139l321 362l-218 357h135zM998 514l-326 -359h-139l321 362l-218 357h134z" />
<glyph unicode="&#xbc;" horiz-adv-x="1564" d="M485 -35h-134l952 1503h133zM558 1434l-101 -720q-3 -19 16 -21l75 -5l-10 -66h-319l8 58q2 9 10 9l82 7q19 2 22 21l81 577q1 9 -3.5 11.5t-12.5 -2.5l-101 -60l-29 71l188 120h94zM1073 271h232l56 321q1 9 10 9h76l-46 -330h111l-10 -72h-111l-16 -114q-2 -15 14 -17 l78 -6l-9 -62h-308l8 54q2 9 9 9l79 7q20 2 23 21l15 108h-340l7 53l329 559h111z" />
<glyph unicode="&#xbd;" horiz-adv-x="1648" d="M485 -35h-134l952 1503h133zM558 1433l-101 -719q-3 -19 16 -21l75 -6l-10 -65h-319l8 58q2 9 10 9l82 7q19 2 22 21l81 577q1 9 -3.5 11.5t-12.5 -2.5l-101 -60l-29 71l188 119h94zM1424 824q67 0 118.5 -25t72.5 -69q23 -48 17.5 -106t-48.5 -134t-125 -170 q-79 -89 -253 -246l264 1q18 0 23 18l19 84h71l-25 -177h-510l8 61l4 8q180 156 304 302q184 210 152 316q-19 57 -97 59q-52 2 -97.5 -26.5t-69.5 -82.5l-103 22q30 78 109 121.5t166 43.5z" />
<glyph unicode="&#xbe;" horiz-adv-x="1636" d="M548 -35h-133l951 1503h133zM538 1446q107 1 175.5 -58t54.5 -159q-8 -59 -49.5 -105t-110.5 -72q65 -24 97 -80t22 -131q-11 -77 -60.5 -130.5t-114 -76.5t-136.5 -23q-130 0 -228 69l38 61q85 -50 177 -50q83 0 140 41.5t70 130.5q10 74 -26.5 112t-116.5 38h-95l11 78 l89 -1q74 0 122 38.5t58 108.5q9 66 -26 99t-98 33q-66 0 -133 -42q-8 -3 -9 -10l-23 -102h-75l24 161q0 2 3 8q100 62 220 62zM1144 271h232l56 321q2 9 11 9h76l-47 -330h111l-10 -72h-111l-16 -114q-2 -15 14 -17l78 -6l-9 -62h-308l8 54q2 9 9 9l80 7q19 2 22 21l15 108 h-339l6 53l329 559h111z" />
<glyph unicode="&#xbf;" horiz-adv-x="905" d="M864 1047q37 0 59 -27.5t17 -63.5q-5 -30 -30 -52.5t-57 -22.5q-37 0 -59 28t-17 64q5 30 30 52t57 22zM871 602l-15 -129q-7 -65 -34 -109.5t-92.5 -92t-192.5 -111.5q-84 -41 -133 -68t-86 -51.5t-54.5 -48.5t-26.5 -48.5t-14 -61.5q-12 -86 51.5 -137t186.5 -51 q116 0 212 43l45 190h82l-35 -262q-133 -85 -314 -85q-184 0 -289.5 87t-85.5 229q11 79 42 130t105 103.5t225 129.5q166 83 216.5 126.5t62.5 115.5l17 101h127z" />
<glyph unicode="&#xc0;" horiz-adv-x="1579" d="M1088 1581h-121l-207 304h161zM1422 100l116 -10l-12 -90h-470l11 80q1 8 10 9l141 12q18 2 30 14t6 30l-80 287h-677l-181 -328l179 -15l-13 -89h-429l11 82q1 8 10 9l94 8q16 2 24 18l724 1312l140 7zM558 548h589l-192 722z" />
<glyph unicode="&#xc1;" horiz-adv-x="1579" d="M1058 1581h-125l253 305h166zM1422 100l116 -10l-12 -90h-470l11 80q1 8 10 9l141 12q18 2 30 14t6 30l-80 287h-677l-181 -328l179 -15l-13 -89h-429l11 82q1 8 10 9l94 8q16 2 24 18l724 1312l140 7zM558 548h589l-192 722z" />
<glyph unicode="&#xc2;" horiz-adv-x="1579" d="M1312 1581h-120l-145 227l-212 -227h-125l258 305h171zM1422 100l116 -10l-12 -90h-470l11 80q1 8 10 9l141 12q18 2 30 14t6 30l-80 287h-677l-181 -328l179 -15l-13 -89h-429l11 82q1 8 10 9l94 8q16 2 24 18l724 1312l140 7zM558 548h589l-192 722z" />
<glyph unicode="&#xc3;" horiz-adv-x="1579" d="M1233 1785l89 -27q-18 -68 -60 -107t-98 -44q-60 -5 -135 34l-37 18.5t-35.5 18t-28 11t-26.5 3.5q-40 -3 -79 -91l-88 32q48 140 138 148q12 1 26.5 -1.5t24.5 -5t28 -9.5t24.5 -10t28 -12.5t24.5 -11.5q73 -34 114 -29q51 6 90 83zM1422 100l116 -10l-13 -90h-469 l11 80q1 8 10 9l141 12q18 2 30 14t6 30l-80 287h-677l-181 -328l179 -15l-13 -89h-429l11 82q1 8 10 9l94 8q15 2 23 18l725 1312l140 7zM558 548h589l-192 722z" />
<glyph unicode="&#xc4;" horiz-adv-x="1579" d="M869 1790q35 0 56.5 -26t16.5 -60q-4 -28 -28 -49t-54 -21q-35 0 -56 25.5t-16 60.5q4 28 27.5 49t53.5 21zM1201 1790q35 0 56 -25.5t16 -60.5q-4 -28 -27.5 -49t-53.5 -21q-35 0 -56.5 26t-16.5 60q4 28 28 49t54 21zM1422 100l116 -10l-12 -90h-470l11 80q1 8 10 9 l141 12q18 2 30 14t6 30l-80 287h-677l-181 -328l179 -15l-13 -89h-429l11 82q1 8 10 9l94 8q16 2 24 18l724 1312l140 7zM558 548h589l-192 722z" />
<glyph unicode="&#xc5;" horiz-adv-x="1579" d="M1056 1936q90 0 143.5 -63.5t40.5 -152.5q-11 -82 -78.5 -141t-151.5 -59q-89 0 -143 64t-41 153q11 82 78.5 140.5t151.5 58.5zM1058 1862q-53 0 -97 -40.5t-53 -101.5q-7 -54 22.5 -89.5t77.5 -35.5q53 0 96.5 40.5t52.5 101.5q7 54 -22 89.5t-77 35.5zM1422 100 l116 -10l-12 -90h-470l11 80q1 8 10 9l141 12q18 2 30 14t6 30l-80 287h-677l-181 -328l179 -15l-13 -89h-429l11 82q1 8 10 9l94 8q16 2 24 18l724 1312l140 7zM558 548h589l-192 722z" />
<glyph unicode="&#xc6;" horiz-adv-x="1654" d="M918 1434h827q6 0 10.5 -5t3.5 -13l-40 -282h-87l11 163q1 10 -4.5 15t-16.5 5h-516l-75 -533h470l-15 -111h-470l-79 -557h549q12 0 21 9t11 20l35 155h88l-41 -291q-2 -9 -12 -9h-977l12 82q1 9 10 9l129 10q26 2 31 30l42 301h-338l-181 -328l162 -13l-13 -91h-412 l11 82q2 9 10 9l94 8q15 2 24 18zM558 548h294l102 721z" />
<glyph unicode="&#xc7;" horiz-adv-x="1329" d="M1001 1452q242 0 400 -132q7 -3 5 -10l-36 -254h-87l12 182q1 6 -3 19q-127 79 -295 79q-247 0 -421.5 -169t-215.5 -459q-40 -284 85.5 -447.5t371.5 -163.5q224 0 416 140l44 -103q-200 -153 -470 -153q-55 0 -109 8l-51 -97q22 -2 38 -7q56 -14 88 -57t22 -102 q-11 -62 -70 -106.5t-139 -44.5q-87 2 -143 51l26 65q50 -39 105 -37q44 1 77 26t42 68q7 47 -20.5 70t-73.5 26q-29 1 -53 -4l74 164q-227 58 -338 251.5t-72 469.5q46 324 264 525.5t527 201.5z" />
<glyph unicode="&#xc8;" horiz-adv-x="1196" d="M948 1581h-120l-208 304h161zM339 1434h932q7 0 11.5 -5t3.5 -13l-40 -282h-88l11 163q1 20 -20 20h-516l-75 -533h470l-16 -111h-470l-78 -557h548q10 0 20.5 9t12.5 20l34 155h88l-41 -291q-1 -9 -11 -9h-977l11 82q1 8 10 9l129 10q11 1 20.5 10t11.5 20l166 1180 q3 21 -18 22l-126 10q-15 2 -13 17z" />
<glyph unicode="&#xc9;" horiz-adv-x="1196" d="M918 1581h-125l253 305h166zM339 1434h932q7 0 11.5 -5t3.5 -13l-40 -282h-88l11 163q1 20 -20 20h-516l-75 -533h470l-16 -111h-470l-78 -557h548q10 0 20.5 9t12.5 20l34 155h88l-41 -291q-1 -9 -11 -9h-977l11 82q1 8 10 9l129 10q11 1 20.5 10t11.5 20l166 1180 q3 21 -18 22l-126 10q-15 2 -13 17z" />
<glyph unicode="&#xca;" horiz-adv-x="1196" d="M1172 1581h-120l-145 227l-211 -227h-126l259 305h170zM339 1434h932q7 0 11.5 -5t3.5 -13l-40 -282h-88l11 163q1 20 -20 20h-516l-75 -533h470l-16 -111h-470l-78 -557h548q10 0 20.5 9t12.5 20l34 155h88l-41 -291q-1 -9 -11 -9h-977l11 82q1 8 10 9l129 10 q11 1 20.5 10t11.5 20l166 1180q3 21 -18 22l-126 10q-15 2 -13 17z" />
<glyph unicode="&#xcb;" horiz-adv-x="1196" d="M729 1790q35 0 56.5 -26t16.5 -60q-4 -28 -28 -49t-54 -21q-35 0 -56 25.5t-16 60.5q4 28 27.5 49t53.5 21zM1061 1790q35 0 56.5 -26t16.5 -60q-4 -28 -28 -49t-54 -21q-35 0 -56.5 26t-16.5 60q4 28 28 49t54 21zM339 1434h932q7 0 11.5 -5t3.5 -13l-40 -282h-88 l11 163q1 20 -20 20h-516l-75 -533h470l-15 -111h-471l-78 -557h548q10 0 20.5 9t12.5 20l34 155h88l-40 -291q-1 -9 -12 -9h-977l11 82q1 8 10 9l130 10q10 1 19.5 10t11.5 20l166 1180q3 21 -18 22l-126 10q-15 2 -13 17z" />
<glyph unicode="&#xcc;" horiz-adv-x="753" d="M675 1581h-120l-208 304h161zM805 1344l-141 -12q-27 -3 -31 -30l-166 -1179q-3 -21 18 -22l143 -12l-12 -89h-478l11 82q1 8 10 9l132 11q11 1 20.5 10t10.5 19l166 1179q3 21 -18 23l-128 10q-14 2 -13 17l10 74h478z" />
<glyph unicode="&#xcd;" horiz-adv-x="753" d="M645 1581h-125l253 305h166zM805 1344l-141 -12q-27 -3 -31 -30l-166 -1179q-3 -21 18 -22l143 -12l-12 -89h-478l11 82q1 8 10 9l132 11q11 1 20.5 10t10.5 19l166 1179q3 21 -18 23l-128 10q-14 2 -13 17l10 74h478z" />
<glyph unicode="&#xce;" horiz-adv-x="753" d="M899 1581h-120l-145 227l-211 -227h-126l259 305h170zM805 1344l-141 -12q-27 -3 -31 -30l-166 -1179q-3 -21 18 -22l143 -12l-12 -89h-478l11 82q1 8 10 9l132 11q11 1 20.5 10t10.5 19l166 1179q3 21 -18 23l-128 10q-14 2 -13 17l10 74h478z" />
<glyph unicode="&#xcf;" horiz-adv-x="753" d="M456 1790q35 0 56.5 -26t16.5 -60q-4 -28 -28 -49t-54 -21q-35 0 -56 25.5t-16 60.5q4 28 27.5 49t53.5 21zM788 1790q35 0 56.5 -26t16.5 -60q-4 -28 -28 -49t-54 -21q-35 0 -56.5 26t-16.5 60q4 28 28 49t54 21zM805 1344l-141 -12q-27 -3 -31 -30l-166 -1179 q-3 -21 18 -22l143 -12l-12 -89h-478l11 82q1 8 10 9l132 11q11 1 20.5 10t10.5 19l166 1179q3 21 -18 23l-128 10q-14 2 -13 17l10 74h478z" />
<glyph unicode="&#xd0;" horiz-adv-x="1544" d="M339 1434h603q314 0 478 -199t118 -527q-46 -323 -261.5 -515.5t-529.5 -192.5h-609l11 82q1 8 10 9l129 10q11 1 20.5 10t11.5 20l74 528h-211l16 116h211l76 536q3 21 -18 22l-126 10q-5 1 -9.5 6.5t-3.5 10.5zM1388 725q39 280 -84 436t-371 156h-169l-133 -10 l-74 -532h287l-16 -116h-288l-75 -532l131 -11h161q249 0 420 161.5t211 447.5z" />
<glyph unicode="&#xd1;" horiz-adv-x="1736" d="M1312 1785l88 -27q-18 -68 -60 -107t-97 -44q-60 -5 -135 34l-37 18.5t-35.5 18t-28 11t-26.5 3.5q-40 -3 -79 -91l-89 32q47 140 138 148q10 1 21 0t23.5 -4.5t21.5 -6.5t24.5 -9t22 -9t23.5 -11t21 -10q73 -34 114 -29q51 6 90 83zM1797 1344l-138 -12q-28 -3 -32 -30 l-183 -1302h-134l-714 1191l-151 -1067q-3 -21 18 -22l154 -13l-13 -89h-476l11 82q1 8 10 9l130 10q11 1 20.5 9t10.5 21l166 1179q3 22 -17 23l-127 10q-5 1 -9.5 6.5t-3.5 10.5l10 74h289l722 -1204l153 1079q3 21 -18 22l-139 12q-5 1 -9.5 6.5t-3.5 10.5l10 74h477z " />
<glyph unicode="&#xd2;" horiz-adv-x="1599" d="M1098 1581l-121 -1l-207 305h161zM998 1452q208 0 354.5 -94t209.5 -263t32 -387q-46 -325 -263.5 -526t-526.5 -201q-208 0 -354.5 94t-210 263t-32.5 387q46 324 264 525.5t527 201.5zM994 1336q-249 0 -423 -169.5t-214 -458.5q-39 -282 83.5 -446.5t366.5 -164.5 q248 0 422.5 170t214.5 458q40 282 -83 446.5t-367 164.5z" />
<glyph unicode="&#xd3;" horiz-adv-x="1599" d="M1068 1581h-126l253 305h166zM998 1452q208 0 354.5 -94t209.5 -263t32 -387q-46 -325 -263.5 -526t-526.5 -201q-208 0 -354.5 94t-210 263t-32.5 387q46 324 264 525.5t527 201.5zM994 1336q-248 0 -422.5 -170t-214.5 -458q-40 -282 83 -446.5t367 -164.5 q248 0 422.5 170t214.5 458q40 282 -83 446.5t-367 164.5z" />
<glyph unicode="&#xd4;" horiz-adv-x="1599" d="M1322 1581h-121l-145 227l-211 -227h-125l258 305h171zM998 1452q208 0 354.5 -94t209.5 -263t32 -387q-46 -325 -263.5 -526t-526.5 -201q-208 0 -354.5 94t-210 263t-32.5 387q46 324 264 525.5t527 201.5zM994 1336q-248 0 -422.5 -170t-214.5 -458 q-40 -282 83 -446.5t367 -164.5q248 0 422.5 170t214.5 458q40 282 -83 446.5t-367 164.5z" />
<glyph unicode="&#xd5;" horiz-adv-x="1599" d="M1243 1785l88 -27q-18 -68 -60 -107t-97 -44q-60 -5 -135 34l-37 18.5t-35.5 18t-28 11t-26.5 3.5q-40 -3 -79 -91l-89 32q47 140 138 148q10 1 21 0t23.5 -4.5t21.5 -6.5t24.5 -9t22 -9t23.5 -11t21 -10q73 -34 114 -29q51 6 90 83zM998 1452q208 0 354.5 -94 t209.5 -263t32 -387q-46 -325 -263.5 -526t-526.5 -201q-208 0 -354.5 94t-210 263t-32.5 387q46 324 264 525.5t527 201.5zM994 1336q-248 0 -422.5 -170t-214.5 -458q-40 -282 83 -446.5t367 -164.5q248 0 422.5 170t214.5 458q40 282 -83 446.5t-367 164.5z" />
<glyph unicode="&#xd6;" horiz-adv-x="1599" d="M879 1790q35 0 56 -25.5t16 -60.5q-4 -28 -27.5 -49t-53.5 -21q-35 0 -56.5 26t-16.5 60q4 28 28 49t54 21zM1211 1790q35 0 56 -25.5t16 -60.5q-4 -28 -27.5 -49t-53.5 -21q-35 0 -56.5 26t-16.5 60q4 28 28 49t54 21zM998 1452q208 0 354.5 -94t209.5 -263t32 -387 q-46 -325 -263.5 -526t-526.5 -201q-208 0 -354.5 94t-210 263t-32.5 387q46 324 264 525.5t527 201.5zM994 1336q-249 0 -423 -169.5t-214 -458.5q-39 -282 83.5 -446.5t366.5 -164.5q248 0 422.5 170t214.5 458q40 282 -83 446.5t-367 164.5z" />
<glyph unicode="&#xd7;" horiz-adv-x="872" d="M901 858l-299 -263l225 -263l-91 -82l-226 263l-300 -263l-72 82l299 263l-226 263l92 82l226 -263l299 263z" />
<glyph unicode="&#xd8;" horiz-adv-x="1599" d="M1358 1536l-67 -145q175 -83 256 -262.5t47 -420.5q-46 -325 -263.5 -526t-526.5 -201q-87 0 -160 16l-46 -99h-155l67 144q-175 83 -256 262.5t-47 420.5q46 324 264 525.5t527 201.5q86 0 159 -16l47 100h154zM357 708q-28 -198 26.5 -341t179.5 -212l543 1170 q-55 11 -112 11q-248 0 -422.5 -170t-214.5 -458zM1444 725q28 198 -26 341t-179 212l-544 -1171q50 -10 112 -10q248 0 422.5 170t214.5 458z" />
<glyph unicode="&#xd9;" horiz-adv-x="1701" d="M1149 1581h-120l-208 304h161zM1763 1343l-140 -12q-27 -3 -31 -30l-105 -748q-36 -259 -207.5 -416t-418.5 -157q-252 0 -382.5 160.5t-94.5 420.5l105 748q3 21 -17 22l-130 11q-5 1 -9.5 6.5t-3.5 10.5l10 73h496l-13 -89l-155 -14q-27 -3 -31 -30l-105 -746 q-30 -215 63 -336t277 -121q191 0 329 125.5t168 339.5l105 746q3 21 -18 22l-169 14l13 89h477z" />
<glyph unicode="&#xda;" horiz-adv-x="1701" d="M1119 1581h-125l253 305h166zM1763 1343l-140 -12q-27 -3 -31 -30l-105 -748q-36 -259 -207.5 -416t-418.5 -157q-252 0 -382.5 160.5t-94.5 420.5l105 748q3 21 -17 22l-130 11q-5 1 -9.5 6.5t-3.5 10.5l10 73h496l-13 -89l-155 -14q-27 -3 -31 -30l-105 -746 q-30 -215 63 -336t277 -121q191 0 329 125.5t168 339.5l105 746q3 21 -18 22l-169 14l13 89h477z" />
<glyph unicode="&#xdb;" horiz-adv-x="1701" d="M1373 1581h-120l-145 227l-211 -227h-126l259 305h170zM1763 1343l-140 -12q-27 -3 -31 -30l-105 -748q-36 -259 -207.5 -416t-418.5 -157q-252 0 -382.5 160.5t-94.5 420.5l105 748q3 21 -17 22l-130 11q-5 1 -9.5 6.5t-3.5 10.5l10 73h496l-13 -89l-155 -14 q-27 -3 -31 -30l-105 -746q-30 -215 63 -336t277 -121q191 0 329 125.5t168 339.5l105 746q3 21 -18 22l-169 14l13 89h477z" />
<glyph unicode="&#xdc;" horiz-adv-x="1701" d="M930 1790q35 0 56.5 -26t16.5 -60q-4 -28 -28 -49t-54 -21q-35 0 -56 25.5t-16 60.5q4 28 27.5 49t53.5 21zM1262 1790q35 0 56.5 -26t16.5 -60q-4 -28 -28 -49t-54 -21q-35 0 -56.5 26t-16.5 60q4 28 28 49t54 21zM1763 1343l-140 -12q-27 -3 -31 -30l-105 -748 q-36 -259 -207.5 -416t-418.5 -157q-252 0 -382.5 160.5t-94.5 420.5l105 748q3 21 -17 22l-130 11q-5 1 -9.5 6.5t-3.5 10.5l10 73h496l-13 -89l-155 -14q-27 -3 -31 -30l-105 -746q-30 -215 63 -336t277 -121q191 0 329 125.5t168 339.5l105 746q3 21 -18 22l-169 14 l13 89h477z" />
<glyph unicode="&#xdd;" horiz-adv-x="1411" d="M973 1581h-125l253 305h165zM1547 1344l-106 -9l-579 -825l-56 -387q-3 -21 18 -22l143 -12l-12 -89h-478l11 82q1 8 10 9l132 11q27 2 31 29l53 365l-352 830q-3 8 -15 9l-90 8q-14 2 -13 17l10 74h220l339 -800l459 656q12 16 8.5 29t-21.5 14l-139 12q-14 2 -13 17 l10 72h442z" />
<glyph unicode="&#xde;" horiz-adv-x="1300" d="M620 1224h307q198 0 303.5 -111t79.5 -291q-25 -174 -158 -280.5t-330 -106.5h-313l-44 -310q-3 -21 18 -22l161 -14l-13 -89h-493l11 82q1 8 10 9l129 10q11 1 20.5 9t11.5 21l170 1209q3 21 -18 22l-126 10q-15 2 -13 17l10 73h310zM603 1108l-78 -556h304 q139 0 230 75t109 205q18 128 -51 202t-208 74h-306z" />
<glyph unicode="&#xdf;" horiz-adv-x="1351" d="M929 1536q201 0 302.5 -92t82.5 -245q-5 -41 -18.5 -73.5t-43 -65t-52 -52t-74.5 -61.5q-75 -63 -83 -134q-9 -78 62 -133q18 -13 52 -36l33 -22.5t30 -21.5t28.5 -22.5t24 -22.5t22 -25t17 -26.5t13.5 -30.5t7.5 -33t3 -38t-3.5 -42q-24 -170 -172 -273.5t-368 -103.5 q-108 0 -196 30l35 269h87l-10 -159q-2 -13 11 -15q46 -9 103 -7q151 3 249.5 75t114.5 196q7 50 -12.5 89t-45.5 61.5t-92 68.5q-34 24 -53 38q-102 77 -86 198q15 101 96 170q6 5 29 23t28.5 22t23.5 19t22.5 20t17.5 18.5t17 20.5t12.5 19.5t11.5 23t7 24t6 27.5 q14 97 -49.5 152.5t-189.5 55.5q-134 0 -220.5 -67.5t-102.5 -181.5l-165 -1173h-296l12 82q1 8 10 9l113 9q11 1 20.5 9t10.5 21l148 1054q23 161 148 256.5t322 95.5z" />
<glyph unicode="&#xe0;" horiz-adv-x="1284" d="M821 1171h-121l-207 305h161zM756 1044q93 1 179.5 -20.5t188.5 -71.5q9 -3 7 -12l-97 -693q-23 -165 129 -168l8 -1l-11 -78h-73q-96 0 -144 45.5t-42 129.5l5 34q-91 -110 -200.5 -169.5t-213.5 -59.5q-170 0 -261.5 140t-54.5 402q23 167 107.5 286.5t205.5 176.5 t267 59zM765 945q-177 -2 -301.5 -114.5t-154.5 -324.5q-29 -204 38 -312t189 -107q90 0 189.5 62.5t185.5 182.5l85 566q-115 49 -231 47z" />
<glyph unicode="&#xe1;" horiz-adv-x="1284" d="M791 1171h-125l253 305h165zM756 1044q93 1 179.5 -20.5t188.5 -71.5q9 -3 7 -12l-97 -693q-23 -165 129 -168l8 -1l-11 -78h-73q-96 0 -144 45.5t-42 129.5l5 34q-91 -110 -200.5 -169.5t-213.5 -59.5q-81 0 -146.5 33t-110.5 100.5t-61 169.5t2 239q23 167 107.5 286.5 t205.5 176.5t267 59zM765 945q-177 -2 -301.5 -114.5t-154.5 -324.5q-29 -204 38 -312t189 -107q90 0 189.5 62.5t185.5 182.5l85 566q-115 49 -231 47z" />
<glyph unicode="&#xe2;" horiz-adv-x="1284" d="M1045 1171h-120l-145 228l-212 -228h-125l258 305h171zM756 1044q93 1 179.5 -20.5t188.5 -71.5q9 -3 7 -12l-97 -693q-23 -165 129 -168l8 -1l-11 -78h-73q-96 0 -144 45.5t-42 129.5l5 34q-91 -110 -200.5 -169.5t-213.5 -59.5q-81 0 -146.5 33t-110.5 100.5t-61 169.5 t2 239q23 167 107.5 286.5t205.5 176.5t267 59zM765 945q-177 -2 -301.5 -114.5t-154.5 -324.5q-29 -204 38 -312t189 -107q90 0 189.5 62.5t185.5 182.5l85 566q-115 49 -231 47z" />
<glyph unicode="&#xe3;" horiz-adv-x="1284" d="M966 1376l88 -27q-18 -68 -60 -107.5t-97 -44.5q-59 -5 -135 35l-37 18.5t-35.5 18t-28 11t-26.5 3.5q-40 -3 -79 -91l-88 32q48 140 137 148q12 1 26 -1.5t25 -5t28 -9.5l25.5 -10.5t28 -12.5t24.5 -12q72 -33 114 -28q51 6 90 83zM756 1044q93 1 179.5 -20.5 t188.5 -71.5q9 -3 7 -12l-97 -693q-23 -165 129 -168l8 -1l-11 -78h-73q-96 0 -144 45.5t-42 129.5l5 34q-91 -110 -200.5 -169.5t-213.5 -59.5q-170 0 -261.5 140t-54.5 402q23 167 107.5 286.5t205.5 176.5t267 59zM765 945q-177 -2 -301.5 -114.5t-154.5 -324.5 q-29 -204 38 -312t189 -107q90 0 189.5 62.5t185.5 182.5l85 566q-115 49 -231 47z" />
<glyph unicode="&#xe4;" horiz-adv-x="1284" d="M602 1381q35 0 56.5 -26t16.5 -61q-4 -28 -28 -49t-54 -21q-35 0 -56 26t-16 61q4 28 27.5 49t53.5 21zM934 1381q35 0 56 -26t16 -61q-4 -28 -27.5 -49t-53.5 -21q-35 0 -56.5 26t-16.5 61q4 28 28 49t54 21zM756 1044q93 1 179.5 -20.5t188.5 -71.5q9 -3 7 -12 l-97 -693q-23 -165 129 -168l8 -1l-11 -78h-73q-96 0 -144 45.5t-42 129.5l5 34q-91 -110 -200.5 -169.5t-213.5 -59.5q-81 0 -146.5 33t-110.5 100.5t-61 169.5t2 239q23 167 107.5 286.5t205.5 176.5t267 59zM765 945q-177 -2 -301.5 -114.5t-154.5 -324.5 q-29 -204 38 -312t189 -107q90 0 189.5 62.5t185.5 182.5l85 566q-115 49 -231 47z" />
<glyph unicode="&#xe5;" horiz-adv-x="1284" d="M789 1527q90 0 143.5 -63.5t40.5 -152.5q-11 -82 -78.5 -141t-151.5 -59q-90 0 -143.5 63.5t-40.5 152.5q11 82 78.5 141t151.5 59zM791 1452q-53 0 -97 -40.5t-53 -101.5q-7 -54 22.5 -89.5t77.5 -35.5q53 0 96.5 40.5t52.5 101.5q7 54 -22 89.5t-77 35.5zM756 1044 q93 1 179.5 -20.5t188.5 -71.5q9 -3 7 -12l-97 -693q-23 -165 129 -168l8 -1l-11 -78h-73q-96 0 -144 45.5t-42 129.5l5 34q-91 -110 -200.5 -169.5t-213.5 -59.5q-81 0 -146.5 33t-110.5 100.5t-61 169.5t2 239q23 167 107.5 286.5t205.5 176.5t267 59zM765 945 q-177 -2 -301.5 -114.5t-154.5 -324.5q-29 -204 38 -312t189 -107q90 0 189.5 62.5t185.5 182.5l85 566q-115 49 -231 47z" />
<glyph unicode="&#xe6;" horiz-adv-x="1937" d="M1561 1044q184 0 285.5 -93t96.5 -237q-8 -258 -426 -333q-139 -24 -371 -32q13 -129 90 -199.5t201 -70.5q199 0 355 132l40 -92q-73 -65 -177 -102.5t-225 -37.5q-154 0 -258 76t-141 207q-257 -281 -513 -283q-68 0 -126.5 21t-105.5 64t-76.5 108.5t-39.5 152.5 t6 197q23 167 107.5 286.5t205.5 176.5t267 59q179 1 369 -92q8 -2 6 -10l-23 -156q73 123 190.5 190.5t262.5 67.5zM1554 953q-155 0 -261.5 -111.5t-133.5 -291.5q-8 -51 -8 -106q203 5 333 29q319 58 327 252q2 99 -67 163.5t-190 64.5zM765 945q-177 -2 -301.5 -115 t-154.5 -325q-14 -107 -3 -186t44 -130.5t80.5 -76.5t105.5 -25q90 0 189.5 62.5t185.5 182.5l85 566q-115 49 -231 47z" />
<glyph unicode="&#xe7;" horiz-adv-x="1024" d="M755 1044q171 0 287 -90q8 -4 6 -10l-34 -240h-87l11 181q0 13 -9 17q-72 44 -175 44q-172 0 -294.5 -119.5t-150.5 -322.5q-28 -198 57 -312t255 -114q149 0 286 91l37 -94q-137 -94 -322 -95q-44 0 -79 4l-48 -92q22 -2 38 -7q56 -14 88 -57t22 -102 q-11 -62 -70 -106.5t-139 -44.5q-87 2 -143 51l26 65q50 -39 105 -37q44 1 76.5 26t41.5 68q7 47 -20.5 70t-73.5 26q-28 1 -52 -4l71 161q-162 45 -239.5 184t-49.5 336q33 233 191 378t388 145z" />
<glyph unicode="&#xe8;" horiz-adv-x="1101" d="M819 1171h-121l-207 305h161zM725 1044q184 0 285.5 -93t96.5 -237q-8 -258 -426 -333q-138 -24 -371 -32q13 -129 90 -199.5t201 -70.5q200 0 356 132l40 -92q-73 -64 -177 -101.5t-225 -37.5q-224 0 -338.5 150.5t-80.5 390.5q33 236 181 379.5t368 143.5zM719 953 q-155 0 -262 -111.5t-134 -291.5q-8 -51 -8 -106q204 5 334 29q319 58 327 253q2 99 -67 163t-190 64z" />
<glyph unicode="&#xe9;" horiz-adv-x="1101" d="M789 1171h-125l253 305h165zM725 1044q184 0 285.5 -93t96.5 -237q-8 -258 -426 -333q-138 -24 -371 -32q13 -129 90 -199.5t201 -70.5q200 0 356 132l40 -92q-73 -64 -177 -101.5t-225 -37.5q-224 0 -338.5 150.5t-80.5 390.5q33 236 181 379.5t368 143.5zM719 953 q-155 0 -262 -111.5t-134 -291.5q-8 -51 -8 -106q204 5 334 29q319 58 327 252q2 99 -67 163.5t-190 64.5z" />
<glyph unicode="&#xea;" horiz-adv-x="1101" d="M1043 1171h-120l-145 228l-212 -228h-125l258 305h171zM725 1044q184 0 285.5 -93t96.5 -237q-8 -258 -426 -333q-138 -24 -371 -32q13 -129 90 -199.5t201 -70.5q200 0 356 132l40 -92q-73 -64 -177 -101.5t-225 -37.5q-224 0 -338.5 150.5t-80.5 390.5 q33 236 181 379.5t368 143.5zM719 953q-155 0 -262 -111.5t-134 -291.5q-8 -51 -8 -106q204 5 334 29q319 58 327 252q2 99 -67 163.5t-190 64.5z" />
<glyph unicode="&#xeb;" horiz-adv-x="1101" d="M600 1381q35 0 56.5 -26t16.5 -61q-4 -28 -28 -49t-54 -21q-35 0 -56 26t-16 61q4 28 27.5 49t53.5 21zM932 1381q35 0 56 -26t16 -61q-4 -28 -27.5 -49t-53.5 -21q-35 0 -56.5 26t-16.5 61q4 28 28 49t54 21zM725 1044q184 0 285.5 -93t96.5 -237q-8 -258 -426 -333 q-138 -24 -371 -32q13 -129 90 -199.5t201 -70.5q200 0 356 132l40 -92q-73 -64 -177 -101.5t-225 -37.5q-224 0 -338.5 150.5t-80.5 390.5q33 236 181 379.5t368 143.5zM719 953q-155 0 -262 -111.5t-134 -291.5q-8 -51 -8 -106q204 5 334 29q319 58 327 253q2 99 -67 163 t-190 64z" />
<glyph unicode="&#xec;" horiz-adv-x="718" d="M583 1171h-121l-207 305h161zM281 1021l266 14q7 0 11.5 -6t3.5 -12l-106 -755q-24 -177 133 -183h14l-11 -79h-40q-128 0 -187.5 69.5t-41.5 197.5l91 643q3 22 -19 23l-125 6z" />
<glyph unicode="&#xed;" horiz-adv-x="718" d="M553 1171h-125l253 305h165zM281 1021l266 14q7 0 11.5 -6t3.5 -12l-106 -755q-24 -177 133 -183h14l-11 -79h-40q-128 0 -187.5 69.5t-41.5 197.5l91 643q3 22 -19 23l-125 6z" />
<glyph unicode="&#xee;" horiz-adv-x="718" d="M807 1171h-120l-145 228l-212 -228h-125l258 305h171zM281 1021l266 14q7 0 11.5 -6t3.5 -12l-106 -755q-24 -177 133 -183h14l-11 -79h-40q-128 0 -187.5 69.5t-41.5 197.5l91 643q3 22 -19 23l-125 6z" />
<glyph unicode="&#xef;" horiz-adv-x="718" d="M364 1381q35 0 56.5 -26t16.5 -61q-4 -28 -28 -49t-54 -21q-35 0 -56 26t-16 61q4 28 27.5 49t53.5 21zM696 1381q35 0 56 -26t16 -61q-4 -28 -27.5 -49t-53.5 -21q-35 0 -56.5 26t-16.5 61q4 28 28 49t54 21zM281 1021l266 14q7 0 11.5 -5.5t3.5 -11.5l-106 -756 q-24 -177 133 -183h14l-11 -79h-40q-128 0 -187.5 69.5t-41.5 197.5l91 643q3 22 -19 23l-125 6z" />
<glyph unicode="&#xf0;" horiz-adv-x="1069" d="M1116 1373l-217 -101q27 -32 59 -85q120 -196 104 -451q-20 -321 -167.5 -526.5t-376.5 -223.5q-186 -15 -291.5 104t-92.5 325q12 194 132.5 320t308.5 142q122 9 210.5 -37.5t129.5 -137.5q9 58 3 117q-4 231 -145 383l-6 8l-285 -134l-43 70l270 127 q-139 132 -348 155l26 104q270 -21 454 -197l232 109zM516 97q136 10 238.5 124.5t145.5 305.5l-5 36q-19 111 -93.5 165.5t-190.5 44.5q-145 -11 -240 -111.5t-105 -259.5q-9 -153 59.5 -234.5t190.5 -70.5z" />
<glyph unicode="&#xf1;" horiz-adv-x="1433" d="M1101 1376l89 -27q-18 -68 -60.5 -107.5t-97.5 -44.5q-59 -5 -135 35l-37 18.5t-35.5 18t-28 11t-26.5 3.5q-40 -3 -79 -91l-88 32q48 140 138 148q14 1 29 -1t35 -9.5t28.5 -11t34.5 -16t29 -13.5q72 -33 114 -28q51 6 90 83zM980 1044q152 0 228 -84.5t52 -254.5 l-63 -443q-24 -178 132 -183l8 -1l-11 -78h-33q-128 0 -187 69.5t-41 197.5l60 425q19 132 -32.5 192.5t-156.5 60.5q-109 0 -223.5 -64t-207.5 -186l-99 -695h-133l128 910q3 22 -19 23l-125 6l11 82l266 14q18 0 15 -18l-31 -204q205 231 462 231z" />
<glyph unicode="&#xf2;" d="M856 1171h-121l-208 305h161zM755 1044q234 0 355.5 -150t87.5 -390q-33 -233 -191.5 -378.5t-388.5 -145.5q-234 0 -355 150.5t-87 390.5q33 233 191 378t388 145zM754 946q-172 0 -294.5 -119.5t-150.5 -322.5q-27 -197 58 -311t252 -114q172 0 295 119.5t151 322.5 q27 197 -58 311t-253 114z" />
<glyph unicode="&#xf3;" d="M826 1171h-126l253 305h166zM755 1044q234 0 355.5 -150t87.5 -390q-33 -233 -191.5 -378.5t-388.5 -145.5q-234 0 -355 150.5t-87 390.5q33 233 191 378t388 145zM754 946q-172 0 -294.5 -119.5t-150.5 -322.5q-27 -197 58 -311t252 -114q172 0 295 119.5t151 322.5 q27 197 -58 311t-253 114z" />
<glyph unicode="&#xf4;" d="M1079 1171h-120l-145 228l-211 -228h-126l259 305h171zM755 1044q234 0 355.5 -150t87.5 -390q-33 -233 -191.5 -379t-388.5 -146q-234 0 -355 151t-87 391q33 233 191 378t388 145zM754 946q-172 0 -294.5 -119.5t-150.5 -322.5q-27 -197 58 -311t252 -114 q172 0 295 119.5t151 322.5q27 197 -58 311t-253 114z" />
<glyph unicode="&#xf5;" d="M1000 1376l89 -27q-18 -68 -60.5 -107.5t-97.5 -44.5q-59 -5 -135 35l-37 18.5t-35.5 18t-28 11t-26.5 3.5q-40 -3 -79 -91l-88 32q48 140 138 148q12 1 26 -1.5t25 -5t28 -9.5l25.5 -10.5t28 -12.5t24.5 -12q71 -33 113 -28q51 6 90 83zM755 1044q234 0 355.5 -150 t87.5 -390q-33 -233 -191.5 -379t-388.5 -146q-234 0 -355 151t-87 391q33 233 191 378t388 145zM754 946q-172 0 -294.5 -119.5t-150.5 -322.5q-27 -197 58 -311t252 -114q172 0 295 119.5t151 322.5q27 197 -58 311t-253 114z" />
<glyph unicode="&#xf6;" d="M637 1381q35 0 56 -26t16 -61q-4 -28 -27.5 -49t-53.5 -21q-35 0 -56.5 26t-16.5 61q4 28 28 49t54 21zM968 1381q35 0 56.5 -26t16.5 -61q-4 -28 -28 -49t-54 -21q-35 0 -56 26t-16 61q4 28 27.5 49t53.5 21zM755 1044q234 0 355.5 -150t87.5 -390 q-33 -233 -191.5 -378.5t-388.5 -145.5q-234 0 -355 150.5t-87 390.5q33 233 191 378t388 145zM754 946q-172 0 -294.5 -119.5t-150.5 -322.5q-27 -197 58 -311t252 -114q172 0 295 119.5t151 322.5q27 197 -58 311t-253 114z" />
<glyph unicode="&#xf7;" horiz-adv-x="1132" d="M724 1160q37 0 59 -27.5t17 -63.5q-5 -30 -30 -52.5t-57 -22.5q-37 0 -59 27.5t-17 63.5q5 30 30 52.5t57 22.5zM1133 654h-950l16 116h950zM621 429q37 0 59 -27.5t17 -63.5q-5 -30 -29.5 -52t-56.5 -22q-38 0 -60 27.5t-17 63.5q5 30 30 52t57 22z" />
<glyph unicode="&#xf8;" d="M1032 1126l-58 -126q130 -60 189.5 -191t34.5 -305q-33 -233 -191.5 -379t-388.5 -146q-57 0 -114 11l-43 -92h-120l59 126q-129 60 -189 191.5t-35 305.5q33 233 191 378t388 145q63 0 114 -10l43 92h120zM309 504q-19 -136 17.5 -234.5t119.5 -147.5l380 818 q-34 6 -72 6q-172 0 -294.5 -119.5t-150.5 -322.5zM1065 520q19 136 -17.5 234.5t-119.5 147.5l-380 -817q34 -6 71 -6q172 0 295 119.5t151 321.5z" />
<glyph unicode="&#xf9;" horiz-adv-x="1415" d="M949 1171h-121l-207 305h161zM1304 1024l-110 -787q-21 -153 101 -156h25l-11 -81h-98q-85 2 -125 50t-32 136l4 23q-104 -116 -222 -173t-239 -56q-152 0 -227.5 84.5t-51.5 254.5l82 587q3 21 -18 22l-143 11l12 85h282q17 0 14 -18l-95 -674q-19 -132 32.5 -192.5 t156.5 -60.5q109 0 223.5 64t207.5 186l99 695h133z" />
<glyph unicode="&#xfa;" horiz-adv-x="1415" d="M919 1171h-125l252 305h166zM1304 1024l-110 -787q-21 -153 101 -156h25l-11 -81h-98q-85 2 -125 50t-32 136l4 23q-104 -116 -222 -173t-239 -56q-152 0 -227.5 84.5t-51.5 254.5l82 587q3 21 -18 22l-143 11l12 85h282q17 0 14 -18l-95 -674q-19 -132 32.5 -192.5 t156.5 -60.5q109 0 223.5 64t207.5 186l99 695h133z" />
<glyph unicode="&#xfb;" horiz-adv-x="1415" d="M1173 1171h-121l-145 228l-211 -228h-125l258 305h171zM1304 1024l-110 -787q-21 -153 101 -156h25l-11 -81h-98q-85 2 -125 50t-32 136l4 23q-104 -116 -222 -173t-239 -56q-152 0 -227.5 84.5t-51.5 254.5l82 587q3 21 -18 22l-143 11l12 85h282q17 0 14 -18l-95 -674 q-19 -132 32.5 -192.5t156.5 -60.5q109 0 223.5 64t207.5 186l99 695h133z" />
<glyph unicode="&#xfc;" horiz-adv-x="1415" d="M730 1381q35 0 56 -26t16 -61q-4 -28 -27.5 -49t-53.5 -21q-35 0 -56 26t-16 61q4 28 27.5 49t53.5 21zM1062 1381q35 0 56 -26t16 -61q-4 -28 -27.5 -49t-53.5 -21q-35 0 -56.5 26t-16.5 61q4 28 28 49t54 21zM1304 1024l-110 -787q-21 -153 101 -156h25l-11 -81h-98 q-85 2 -125 50t-32 136l4 23q-104 -116 -222 -173t-239 -56q-152 0 -227.5 84.5t-51.5 254.5l82 587q3 21 -18 22l-143 11l12 85h282q17 0 14 -18l-95 -674q-19 -132 32.5 -192.5t156.5 -60.5q109 0 223.5 64t207.5 186l99 695h133z" />
<glyph unicode="&#xfd;" horiz-adv-x="1140" d="M782 1171h-125l253 305h165zM585 134l354 658q59 109 135 170t154 62h22l-7 -79q-47 -1 -106.5 -57t-110.5 -152l-491 -910q-58 -109 -148.5 -169.5t-193.5 -61.5l-87 -1l11 78l45 5q84 3 161.5 58.5t128.5 151.5l62 113h-23l-228 921q-2 9 -16 11l-65 7q-14 2 -13 17 l10 68h197z" />
<glyph unicode="&#xfe;" horiz-adv-x="1273" d="M352 1523l265 15q18 0 15 -18l-89 -624q77 72 167.5 110t178.5 38q87 0 158.5 -34t122 -99.5t70.5 -170.5t1 -238q-32 -229 -157.5 -375t-305.5 -147q-101 0 -187.5 53t-143.5 155l-69 -476q-3 -22 18 -23l146 -11l-12 -84h-445l11 76q1 8 10 9l109 10q11 2 20.5 10 t10.5 20l238 1694q3 21 -18 22l-126 7zM845 937q-170 0 -316 -166l-69 -466q45 -114 119 -170.5t160 -56.5q130 1 235 117.5t134 322.5q28 201 -50 310t-213 109z" />
<glyph unicode="&#xff;" horiz-adv-x="1140" d="M593 1381q35 0 56.5 -26t16.5 -61q-4 -28 -28 -49t-54 -21q-35 0 -56 26t-16 61q4 28 27.5 49t53.5 21zM925 1381q35 0 56 -26t16 -61q-4 -28 -27.5 -49t-53.5 -21q-35 0 -56.5 26t-16.5 61q4 28 28 49t54 21zM1250 1024l-7 -79q-47 -2 -106.5 -57.5t-110.5 -151.5 l-491 -910q-58 -109 -148.5 -169.5t-193.5 -61.5l-87 -1l11 78l45 5q84 3 161.5 58.5t128.5 151.5l62 113h-23l-228 921q-2 9 -16 11l-65 7q-14 2 -12 17l9 68h197l209 -890l354 658q59 109 135 170t154 62h22z" />
<glyph unicode="&#x152;" horiz-adv-x="2236" d="M998 1452q189 0 319 -88.5t180 -243.5l43 314h772q16 0 14 -18l-39 -282h-88l11 163q1 20 -20 20h-516l-75 -533h470l-16 -111h-470l-78 -557h548q11 0 20.5 8t12.5 21l34 155h88l-41 -291q-1 -9 -11 -9h-811l43 308q-94 -155 -246 -241t-338 -86q-208 0 -354.5 94 t-210 263t-32.5 387q46 324 264 525.5t527 201.5zM994 1336q-248 0 -422.5 -170t-214.5 -458q-40 -282 83 -446.5t367 -164.5q248 0 422.5 170t214.5 458q40 282 -83 446.5t-367 164.5z" />
<glyph unicode="&#x153;" horiz-adv-x="2058" d="M1651 1044q118 0 201 -36.5t128 -105.5t60 -161.5t1 -209.5l-3 -19q-2 -19 -21 -19l-772 -12q-21 -187 59 -294.5t234 -107.5q200 0 356 132l40 -92q-73 -65 -177 -102.5t-225 -37.5q-164 0 -269.5 87t-133.5 235q-73 -151 -207 -236.5t-304 -85.5q-234 0 -355 151 t-87 391q33 233 191 378t388 145q172 0 283.5 -85.5t141.5 -232.5q69 150 192.5 234t278.5 84zM1647 947q-146 0 -250.5 -101.5t-138.5 -278.5l636 1q6 0 11.5 6t5.5 14q32 359 -264 359zM754 946q-172 0 -294.5 -119.5t-150.5 -322.5q-27 -197 58 -311t252 -114 q172 0 295 119.5t151 322.5q27 197 -58 311t-253 114z" />
<glyph unicode="&#x178;" horiz-adv-x="1411" d="M784 1790q35 0 56.5 -26t16.5 -60q-4 -28 -28 -49t-54 -21q-35 0 -56 25.5t-16 60.5q4 28 27.5 49t53.5 21zM1116 1790q35 0 56 -25.5t16 -60.5q-4 -28 -27.5 -49t-53.5 -21q-35 0 -56.5 26t-16.5 60q4 28 28 49t54 21zM1547 1344l-106 -9l-579 -825l-56 -387 q-3 -21 18 -22l143 -12l-12 -89h-478l12 82q1 8 10 9l131 11q27 2 31 29l53 365l-352 830q-3 8 -15 9l-90 8q-14 2 -13 17l10 74h220l339 -800l459 656q12 16 8.5 29t-21.5 14l-139 12q-14 2 -13 17l10 72h442z" />
<glyph unicode="&#x2c6;" horiz-adv-x="784" d="M856 1171h-120l-145 228l-211 -228h-126l259 305h171z" />
<glyph unicode="&#x2dc;" horiz-adv-x="743" d="M757 1376l88 -27q-18 -68 -60 -107.5t-97 -44.5q-59 -5 -135 35l-37 18.5t-35.5 18t-28 11t-26.5 3.5q-40 -3 -79 -91l-88 32q48 140 137 148q12 1 26 -1.5t25 -5t28 -9.5l25.5 -10.5t28 -12.5t24.5 -12q72 -33 114 -28q51 6 90 83z" />
<glyph unicode="&#x2000;" horiz-adv-x="968" vert-adv-y="0" />
<glyph unicode="&#x2001;" horiz-adv-x="1936" vert-adv-y="0" />
<glyph unicode="&#x2002;" horiz-adv-x="968" vert-adv-y="0" />
<glyph unicode="&#x2003;" horiz-adv-x="1936" vert-adv-y="0" />
<glyph unicode="&#x2004;" horiz-adv-x="645" vert-adv-y="0" />
<glyph unicode="&#x2005;" horiz-adv-x="484" vert-adv-y="0" />
<glyph unicode="&#x2006;" horiz-adv-x="322" vert-adv-y="0" />
<glyph unicode="&#x2007;" horiz-adv-x="322" vert-adv-y="0" />
<glyph unicode="&#x2008;" horiz-adv-x="242" vert-adv-y="0" />
<glyph unicode="&#x2009;" horiz-adv-x="387" vert-adv-y="0" />
<glyph unicode="&#x200a;" horiz-adv-x="107" vert-adv-y="0" />
<glyph unicode="&#x2010;" horiz-adv-x="862" d="M836 452h-682l17 116h681z" />
<glyph unicode="&#x2011;" horiz-adv-x="862" d="M836 452h-682l17 116h681z" />
<glyph unicode="&#x2012;" horiz-adv-x="862" d="M836 452h-682l17 116h681z" />
<glyph unicode="&#x2013;" horiz-adv-x="985" d="M957 452h-803l17 116h803z" />
<glyph unicode="&#x2014;" horiz-adv-x="1413" d="M1385 452h-1231l17 116h1231z" />
<glyph unicode="&#x2018;" horiz-adv-x="346" d="M442 1496l54 -41q-74 -91 -107 -187q-24 -62 -14 -93l5 -1q24 -8 37.5 -31t9.5 -51q-5 -30 -30 -52t-57 -22q-66 -1 -83.5 65t16.5 157q54 146 169 256z" />
<glyph unicode="&#x2019;" horiz-adv-x="346" d="M360 1493q66 1 83 -65.5t-17 -157.5q-54 -146 -168 -255l-55 41q74 91 107 187q24 62 14 92l-4 1q-24 8 -37.5 31t-9.5 51q5 30 30 52.5t57 22.5z" />
<glyph unicode="&#x201a;" horiz-adv-x="346" d="M171 153q66 1 83.5 -66t-16.5 -157q-53 -145 -169 -256l-54 42q74 90 107 186q24 64 14 94h-5q-24 8 -37.5 31t-9.5 51q5 30 30 52.5t57 22.5z" />
<glyph unicode="&#x201c;" horiz-adv-x="659" d="M442 1496l54 -41q-74 -91 -107 -187q-24 -62 -14 -93l5 -1q24 -8 37.5 -31t9.5 -51q-5 -30 -30 -52t-57 -22q-66 -1 -83.5 65t16.5 157q54 146 169 256zM755 1496l55 -42q-75 -91 -107 -186q-24 -62 -14 -93l4 -1q24 -8 37.5 -31t9.5 -51q-5 -30 -30 -52t-57 -22 q-66 -1 -83 65t17 157q55 147 168 256z" />
<glyph unicode="&#x201d;" horiz-adv-x="661" d="M360 1493q66 1 83 -65.5t-17 -157.5q-54 -146 -168 -255l-55 41q74 91 107 187q24 62 14 92l-4 1q-24 8 -37.5 31t-9.5 51q5 30 30 52.5t57 22.5zM673 1493q66 1 83.5 -65.5t-16.5 -157.5q-54 -144 -169 -255l-54 41q74 91 107 187q24 62 14 92l-5 1q-24 8 -37.5 31 t-9.5 51q5 30 30 52.5t57 22.5z" />
<glyph unicode="&#x201e;" horiz-adv-x="659" d="M171 153q66 1 83.5 -66t-16.5 -157q-53 -145 -169 -256l-54 42q74 90 107 186q24 64 14 94h-5q-24 8 -37.5 31t-9.5 51q5 30 30 52.5t57 22.5zM485 153q65 1 82.5 -66t-16.5 -157q-54 -146 -168 -256l-54 42q72 88 106 186q25 65 15 94h-5q-24 8 -37.5 31t-9.5 51 q5 30 30 52.5t57 22.5z" />
<glyph unicode="&#x2022;" horiz-adv-x="569" d="M387 777q82 0 132.5 -59.5t38.5 -142.5q-10 -77 -72 -131t-140 -54q-83 0 -133.5 59.5t-38.5 142.5q10 77 72.5 131t140.5 54z" />
<glyph unicode="&#x2026;" horiz-adv-x="1036" d="M188 153q38 0 60 -27.5t17 -63.5q-5 -30 -30 -52.5t-57 -22.5q-37 0 -59 27.5t-17 63.5q5 30 29.5 52.5t56.5 22.5zM532 153q37 0 59.5 -27.5t17.5 -63.5q-5 -30 -30 -52.5t-57 -22.5q-38 0 -60 27.5t-17 63.5q5 30 30 52.5t57 22.5zM877 153q38 0 60 -27.5t17 -63.5 q-5 -30 -30 -52.5t-57 -22.5q-37 0 -59.5 27.5t-17.5 63.5q5 30 30 52.5t57 22.5z" />
<glyph unicode="&#x202f;" horiz-adv-x="387" vert-adv-y="0" />
<glyph unicode="&#x2039;" horiz-adv-x="565" d="M307 511l218 -356h-135l-227 359l326 360h139z" />
<glyph unicode="&#x203a;" horiz-adv-x="565" d="M547 514l-326 -359h-139l321 362l-218 357h135z" />
<glyph unicode="&#x205f;" horiz-adv-x="484" vert-adv-y="0" />
<glyph unicode="&#x20ac;" horiz-adv-x="1454" d="M1526 1320q7 -3 5 -10l-36 -254h-87l12 182q1 6 -3 19q-127 79 -295 79q-202 0 -358.5 -116t-231.5 -322h664l-13 -93h-679q-10 -40 -19 -97q-9 -64 -9 -123h560l-13 -93h-541q25 -188 146 -291.5t314 -103.5q224 0 416 140l44 -103q-200 -153 -470 -153q-254 0 -413 138 t-188 373h-177l13 93h159q0 78 9 140q6 42 15 80h-152l13 93h165q84 254 284.5 404t465.5 150q242 0 400 -132z" />
<glyph unicode="&#x2122;" horiz-adv-x="1935" d="M302 1434h649q5 0 8 -4t2 -8l-23 -161h-73l6 81q2 16 -15 16h-187l-86 -616q-2 -16 13 -17l71 -7l-8 -58h-281l7 50q1 8 9 9l63 8q20 3 22 20l85 611h-181q-9 0 -16 -6t-9 -14l-17 -77h-73l23 164q1 9 11 9zM1463 834l310 600h196l-9 -61l-61 -5q-10 -1 -17 -8t-7 -17 l-3 -617l73 -6l-8 -60h-284l8 60l84 8q9 1 16.5 7.5t7.5 16.5l5 500l-305 -592h-71l-141 596l-146 -527l104 -9l-8 -60h-276l7 53q2 9 10 9l54 4q16 2 20 18l165 601q3 10 -1.5 16.5t-14.5 7.5l-48 4q-11 0 -9 12l6 49h199z" />
<glyph unicode="&#x25fc;" horiz-adv-x="1024" d="M0 1024h1024v-1024h-1024v1024z" />
<glyph unicode="&#xfb03;" horiz-adv-x="2418" d="M1667 1535q153 0 273 -85l-46 -79q-104 67 -211 65q-102 0 -178.5 -61t-92.5 -173l-25 -178h861q7 0 11.5 -5t3.5 -13l-104 -744q-24 -177 133 -183h14l-11 -79h-40q-128 0 -187.5 69.5t-41.5 197.5l90 637q3 21 -19 22l-342 18l-382 -20l-124 -887q-28 -199 -102 -302 t-190 -104h-24l7 80q56 2 105.5 91.5t71.5 244.5l123 879l-344 18l-374 -20l-125 -887q-28 -199 -101.5 -302t-189.5 -104h-25l8 80q56 2 105.5 91.5t71.5 244.5l123 879l-120 6q-16 1 -14 17l11 75h137l27 194q11 79 48 141t90 99.5t116 57t132 19.5q152 0 272 -85l-46 -79 q-104 67 -210 65q-102 0 -178.5 -61t-92.5 -173l-25 -178h718l28 194q15 105 74 178.5t138.5 106t172.5 32.5z" />
<glyph unicode="&#xfb04;" horiz-adv-x="2402" d="M1826 1508l494 27q18 0 15 -17l-176 -1256q-24 -177 133 -183h14l-11 -79h-40q-128 0 -187.5 69.5t-41.5 197.5l161 1144q3 22 -19 22l-316 2l-33 -26q-71 29 -136 27q-102 0 -178.5 -61t-92.5 -173l-25 -178h297l-12 -84l-299 -16l-124 -887q-28 -199 -102 -302 t-190 -104h-24l7 80q56 2 105.5 91.5t71.5 244.5l123 879l-344 18l-374 -20l-125 -887q-28 -199 -101.5 -302t-189.5 -104h-25l8 80q56 2 105.5 91.5t71.5 244.5l123 878l-120 7q-16 2 -14 17l11 75h137l27 194q11 79 48 141t90 99.5t116 57t132 19.5q152 0 272 -85l-46 -79 q-104 67 -210 65q-102 0 -178.5 -61t-92.5 -173l-25 -178h718l28 194q15 105 74 178.5t138.5 106t172.5 32.5q80 0 159 -27z" />
</font>
</defs>
</svg>
