<svg width="740" height="32" viewBox="0 0 740 32" fill="none" xmlns="http://www.w3.org/2000/svg">
<rect width="740" height="32" fill="white"/>
<path d="M306.427 30.1883C312.287 30.1883 317.037 25.4379 317.037 19.578C317.037 13.7181 312.287 8.96777 306.427 8.96777C300.567 8.96777 295.817 13.7181 295.817 19.578V30.1883H306.427Z" fill="#C74289"/>
<path d="M314.395 22.2205C308.535 22.2205 303.784 17.4701 303.784 11.6102C303.784 5.75037 308.535 1 314.395 1C320.255 1 325.005 5.75037 325.005 11.6102V22.2205H314.395Z" fill="#7461E7"/>
<path fill-rule="evenodd" clip-rule="evenodd" d="M303.779 11.6144C303.779 17.4743 308.53 22.2246 314.39 22.2246H316.7C316.917 21.3798 317.032 20.4943 317.032 19.5819C317.032 13.722 312.281 8.97168 306.421 8.97168C305.605 8.97168 304.81 9.06392 304.046 9.23854C303.872 10.0024 303.779 10.7976 303.779 11.6144Z" fill="#003A9B"/>
<path d="M3.25131 3.21513V29.8449H0V2.51842H2.5546C3.01907 2.51842 3.25131 2.75066 3.25131 3.21513Z" fill="#2D2D2D"/>
<path d="M9.51988 29.8449V10.0274H11.8035C12.268 10.0274 12.5002 10.2467 12.5002 10.6854L12.5777 13.9367C13.2486 12.5949 14.2291 11.5369 15.5193 10.7628C16.8095 9.96289 18.2804 9.56293 19.9318 9.56293C22.3058 9.56293 24.1379 10.2725 25.4281 11.6918C26.7183 13.111 27.3634 15.1624 27.3634 17.846V29.8449H24.1895V18.3105C24.1895 14.3109 22.5122 12.3111 19.1577 12.3111C17.2482 12.3111 15.6871 12.8917 14.4743 14.0528C13.2873 15.214 12.6938 16.801 12.6938 18.8137V29.8449H9.51988Z" fill="#2D2D2D"/>
<path d="M40.42 30.3094C38.7686 30.3094 37.2977 29.9223 36.0075 29.1482C34.7173 28.3483 33.6981 27.2 32.9498 25.7034C32.2272 24.1809 31.866 22.3488 31.866 20.2071C31.866 18.0396 32.2918 16.1688 33.1433 14.5947C34.0206 12.9949 35.1947 11.7563 36.6655 10.8789C38.1364 10.0016 39.762 9.56293 41.5425 9.56293C43.9165 9.56293 45.9034 10.1693 47.5032 11.3821V1.125H49.9804C50.4449 1.125 50.6771 1.35724 50.6771 1.82171V29.8449H48.5096C48.0451 29.8449 47.8129 29.6256 47.8129 29.1869L47.6581 26.1678C46.9872 27.458 46.0066 28.4773 44.7164 29.2256C43.4262 29.9481 41.9941 30.3094 40.42 30.3094ZM35.156 20.091C35.156 22.6456 35.7366 24.5293 36.8978 25.7421C38.059 26.9291 39.4653 27.5226 41.1167 27.5226C42.2263 27.5226 43.2585 27.3161 44.2132 26.9033C45.1938 26.4646 45.9808 25.7937 46.5743 24.8905C47.1936 23.9874 47.5032 22.8391 47.5032 21.4457V14.2464C45.955 12.9562 44.0842 12.3111 41.8909 12.3111C40.6007 12.3111 39.4395 12.6336 38.4073 13.2787C37.401 13.898 36.601 14.7882 36.0075 15.9494C35.4399 17.1106 35.156 18.4911 35.156 20.091Z" fill="#2D2D2D"/>
<path d="M55.4525 20.091C55.4525 17.8976 55.8783 16.0268 56.7298 14.4786C57.5813 12.9046 58.7167 11.6918 60.1359 10.8402C61.5552 9.98869 63.1292 9.56293 64.8581 9.56293C67.6707 9.56293 69.8125 10.4274 71.2833 12.1562C72.7799 13.8851 73.5283 16.2462 73.5283 19.2394C73.5283 19.5749 73.5153 19.9104 73.4895 20.2458C73.4895 20.5555 73.4637 20.8264 73.4121 21.0586H58.7038C58.9619 23.2262 59.7618 24.8647 61.1036 25.9743C62.4712 27.0839 64.1485 27.6387 66.1354 27.6387C68.5868 27.6387 70.7414 27.0968 72.5993 26.013V28.8386C70.6124 29.8191 68.2642 30.3094 65.5548 30.3094C63.6711 30.3094 61.9551 29.9094 60.4069 29.1095C58.8845 28.2838 57.6717 27.1097 56.7685 25.5872C55.8912 24.0648 55.4525 22.2327 55.4525 20.091ZM64.7807 12.1562C63.155 12.1562 61.7616 12.7368 60.6004 13.898C59.465 15.0592 58.8199 16.6977 58.6651 18.8137H70.3156C70.0834 14.3754 68.2384 12.1562 64.7807 12.1562Z" fill="#2D2D2D"/>
<path d="M77.1113 20.091C77.1113 17.8976 77.537 16.0268 78.3886 14.4786C79.2401 12.9046 80.3755 11.6918 81.7947 10.8402C83.2139 9.98869 84.788 9.56293 86.5169 9.56293C89.3295 9.56293 91.4712 10.4274 92.9421 12.1562C94.4387 13.8851 95.187 16.2462 95.187 19.2394C95.187 19.5749 95.1741 19.9104 95.1483 20.2458C95.1483 20.5555 95.1225 20.8264 95.0709 21.0586H80.3626C80.6206 23.2262 81.4206 24.8647 82.7624 25.9743C84.13 27.0839 85.8072 27.6387 87.7942 27.6387C90.2455 27.6387 92.4002 27.0968 94.2581 26.013V28.8386C92.2712 29.8191 89.923 30.3094 87.2136 30.3094C85.3299 30.3094 83.6139 29.9094 82.0657 29.1095C80.5432 28.2838 79.3304 27.1097 78.4273 25.5872C77.55 24.0648 77.1113 22.2327 77.1113 20.091ZM86.4394 12.1562C84.8138 12.1562 83.4204 12.7368 82.2592 13.898C81.1238 15.0592 80.4787 16.6977 80.3239 18.8137H91.9744C91.7422 14.3754 89.8972 12.1562 86.4394 12.1562Z" fill="#2D2D2D"/>
<path d="M107.324 30.3094C105.673 30.3094 104.202 29.9223 102.912 29.1482C101.621 28.3483 100.602 27.2 99.8538 25.7034C99.1313 24.1809 98.77 22.3488 98.77 20.2071C98.77 18.0396 99.1958 16.1688 100.047 14.5947C100.925 12.9949 102.099 11.7563 103.57 10.8789C105.04 10.0016 106.666 9.56293 108.447 9.56293C110.821 9.56293 112.807 10.1693 114.407 11.3821V1.125H116.885C117.349 1.125 117.581 1.35724 117.581 1.82171V29.8449H115.414C114.949 29.8449 114.717 29.6256 114.717 29.1869L114.562 26.1678C113.891 27.458 112.911 28.4773 111.62 29.2256C110.33 29.9481 108.898 30.3094 107.324 30.3094ZM102.06 20.091C102.06 22.6456 102.641 24.5293 103.802 25.7421C104.963 26.9291 106.369 27.5226 108.021 27.5226C109.13 27.5226 110.163 27.3161 111.117 26.9033C112.098 26.4646 112.885 25.7937 113.478 24.8905C114.098 23.9874 114.407 22.8391 114.407 21.4457V14.2464C112.859 12.9562 110.988 12.3111 108.795 12.3111C107.505 12.3111 106.344 12.6336 105.311 13.2787C104.305 13.898 103.505 14.7882 102.912 15.9494C102.344 17.1106 102.06 18.4911 102.06 20.091Z" fill="#2D2D2D"/>
<path d="M142.971 30.3097C140.01 30.3097 137.42 29.7282 135.199 28.565C132.979 27.4018 131.26 25.7628 130.044 23.648C128.828 21.5067 128.22 18.9821 128.22 16.0742C128.22 13.1399 128.828 10.5492 130.044 8.30222C131.287 6.05521 133.005 4.29725 135.199 3.02835C137.393 1.75945 139.905 1.125 142.733 1.125C144.452 1.125 146.024 1.31005 147.452 1.68014C148.906 2.05024 150.201 2.56573 151.338 3.22662V8.34188C150.333 7.65456 149.144 7.05976 147.769 6.55748C146.395 6.05521 144.848 5.80407 143.13 5.80407C141.279 5.80407 139.667 6.21382 138.292 7.03332C136.944 7.82638 135.9 8.96311 135.16 10.4435C134.419 11.8974 134.049 13.629 134.049 15.6381C134.049 17.6736 134.446 19.4448 135.239 20.9516C136.032 22.432 137.129 23.5819 138.53 24.4014C139.931 25.2209 141.557 25.6307 143.407 25.6307C144.994 25.6307 146.487 25.3795 147.888 24.8772C149.289 24.375 150.439 23.7934 151.338 23.1325V28.2081C150.254 28.8426 148.998 29.3448 147.571 29.7149C146.143 30.1115 144.61 30.3097 142.971 30.3097Z" fill="#2D2D2D"/>
<path d="M165.45 30.1908C163.44 30.1908 161.616 29.7678 159.977 28.9219C158.365 28.0759 157.07 26.8731 156.091 25.3134C155.14 23.7273 154.664 21.8372 154.664 19.643C154.664 17.3431 155.166 15.3737 156.171 13.7347C157.175 12.0957 158.51 10.84 160.176 9.96766C161.868 9.06885 163.744 8.61945 165.806 8.61945C167.816 8.61945 169.626 9.04242 171.239 9.88835C172.878 10.7343 174.173 11.9503 175.125 13.5364C176.077 15.0961 176.552 16.9731 176.552 19.1672C176.552 21.4671 176.05 23.4497 175.046 25.1152C174.068 26.7542 172.733 28.0098 171.041 28.8822C169.375 29.7546 167.512 30.1908 165.45 30.1908ZM165.727 25.6703C167.208 25.6703 168.437 25.1284 169.415 24.0445C170.393 22.9342 170.882 21.4142 170.882 19.4844C170.882 17.396 170.38 15.8231 169.375 14.7657C168.371 13.7083 167.075 13.1796 165.489 13.1796C164.035 13.1796 162.806 13.7215 161.801 14.8053C160.823 15.8892 160.334 17.396 160.334 19.3258C160.334 21.4142 160.837 23.0003 161.841 24.0842C162.846 25.1416 164.141 25.6703 165.727 25.6703Z" fill="#2D2D2D"/>
<path d="M194.877 29.7149V17.8586C194.877 14.7393 193.608 13.1796 191.07 13.1796C189.696 13.1796 188.519 13.5893 187.541 14.4088C186.563 15.2283 186.074 16.4708 186.074 18.1362V29.7149H180.522V9.09529H184.765C185.347 9.09529 185.651 9.38608 185.677 9.96766L185.796 12.5848C186.457 11.3687 187.396 10.4038 188.612 9.69009C189.854 8.97633 191.242 8.61945 192.775 8.61945C195.26 8.61945 197.15 9.35964 198.446 10.84C199.767 12.3204 200.428 14.4352 200.428 17.1845V29.7149H194.877Z" fill="#2D2D2D"/>
<path d="M219.776 29.7149V17.8586C219.776 14.7393 218.507 13.1796 215.97 13.1796C214.595 13.1796 213.419 13.5893 212.44 14.4088C211.462 15.2283 210.973 16.4708 210.973 18.1362V29.7149H205.422V9.09529H209.665C210.246 9.09529 210.55 9.38608 210.577 9.96766L210.696 12.5848C211.357 11.3687 212.295 10.4038 213.511 9.69009C214.754 8.97633 216.141 8.61945 217.675 8.61945C220.16 8.61945 222.05 9.35964 223.345 10.84C224.667 12.3204 225.328 14.4352 225.328 17.1845V29.7149H219.776Z" fill="#2D2D2D"/>
<path d="M229.052 19.5637C229.052 17.3167 229.515 15.3737 230.44 13.7347C231.365 12.0957 232.608 10.84 234.168 9.96766C235.754 9.06885 237.485 8.61945 239.362 8.61945C242.402 8.61945 244.742 9.50504 246.381 11.2762C248.02 13.0474 248.839 15.4927 248.839 18.612C248.839 19.0879 248.826 19.5505 248.8 19.9999C248.773 20.4493 248.734 20.8326 248.681 21.1499H234.723C235.066 22.736 235.807 23.9256 236.943 24.7186C238.08 25.4853 239.547 25.8686 241.345 25.8686C242.587 25.8686 243.724 25.7496 244.755 25.5117C245.812 25.2473 246.87 24.864 247.927 24.3618V28.8029C246.791 29.2788 245.601 29.6224 244.358 29.8339C243.116 30.0718 241.741 30.1908 240.235 30.1908C238.146 30.1908 236.256 29.781 234.564 28.9615C232.872 28.142 231.524 26.9392 230.52 25.3531C229.541 23.767 229.052 21.8372 229.052 19.5637ZM234.564 17.8983H243.327C243.169 16.1271 242.746 14.8318 242.059 14.0123C241.398 13.1663 240.446 12.7434 239.204 12.7434C238.014 12.7434 236.983 13.1796 236.111 14.0519C235.265 14.9243 234.749 16.2064 234.564 17.8983Z" fill="#2D2D2D"/>
<path d="M263.561 13.1399C261.711 13.1399 260.217 13.6686 259.08 14.726C257.97 15.7835 257.415 17.2903 257.415 19.2465C257.415 21.2556 258.023 22.8285 259.239 23.9652C260.481 25.1019 262.054 25.6703 263.958 25.6703C265.808 25.6703 267.553 25.1813 269.192 24.2031V28.8822C267.341 29.7546 265.2 30.1908 262.768 30.1908C260.706 30.1908 258.842 29.7678 257.177 28.9219C255.512 28.0759 254.19 26.8599 253.212 25.2738C252.234 23.6877 251.744 21.7843 251.744 19.5637C251.744 17.2638 252.22 15.3076 253.172 13.6951C254.124 12.0561 255.445 10.8004 257.137 9.928C258.829 9.05563 260.772 8.61945 262.966 8.61945C264.156 8.61945 265.253 8.73841 266.258 8.97633C267.262 9.21425 268.24 9.55791 269.192 10.0073V14.726C268.24 14.1973 267.315 13.8008 266.416 13.5364C265.517 13.2721 264.566 13.1399 263.561 13.1399Z" fill="#2D2D2D"/>
<path d="M280.916 30.1908C278.801 30.1908 277.176 29.6753 276.039 28.6443C274.902 27.5869 274.334 26.014 274.334 23.9256V13.4571H271.043V9.09529H274.334V3.70246H278.973C279.581 3.70246 279.885 4.00646 279.885 4.61448V9.09529H285.199V13.4571H279.885V22.9342C279.885 23.9652 280.11 24.679 280.559 25.0755C281.009 25.472 281.656 25.6703 282.502 25.6703C283.005 25.6703 283.467 25.6307 283.89 25.5514C284.313 25.472 284.749 25.3663 285.199 25.2341V29.6753C284.564 29.8603 283.917 29.9925 283.256 30.0718C282.621 30.1511 281.841 30.1908 280.916 30.1908Z" fill="#2D2D2D"/>
</svg>
