<?xml version="1.0" encoding="UTF-8"?>
<svg width="25px" height="21px" viewBox="0 0 25 21" version="1.1" xmlns="http://www.w3.org/2000/svg" xmlns:xlink="http://www.w3.org/1999/xlink">
    <!-- Generator: Sketch 46.2 (44496) - http://www.bohemiancoding.com/sketch -->
    <title>Shape</title>
    <desc>Created with Sketch.</desc>
    <defs></defs>
    <g id="Page-1" stroke="none" stroke-width="1" fill="none" fill-rule="evenodd">
        <g id="Artboard" transform="translate(-148.000000, -122.000000)" fill-rule="nonzero" fill="#383838">
            <g id="icons" transform="translate(25.000000, 120.000000)">
                <g id="003-twitter-logo-silhouette" transform="translate(123.000000, 2.000000)">
                    <path d="M25,2.42066993 C24.0798611,2.82839052 23.0925654,3.10490196 22.0552288,3.22834967 C23.1144199,2.5940768 23.9252042,1.58803105 24.3094771,0.392933007 C23.3159314,0.980310458 22.2192402,1.4068219 21.0506944,1.63803105 C20.114951,0.639787582 18.7839461,0.0180147059 17.3076389,0.0180147059 C14.4753676,0.0180147059 12.1789216,2.31446078 12.1789216,5.14517974 C12.1789216,5.54665033 12.2242239,5.93876634 12.3117239,6.31372549 C8.05004085,6.0996732 4.27107843,4.05788399 1.74187092,0.955310458 C1.2997549,1.71143791 1.04824346,2.59248366 1.04824346,3.53296569 C1.04824346,5.3123366 1.95433007,6.88235294 3.32908497,7.80089869 C2.48860294,7.77279412 1.69812092,7.54158497 1.0060866,7.15727124 L1.0060866,7.22132353 C1.0060866,9.70522876 2.7745098,11.778268 5.11936275,12.2500817 C4.68974673,12.3656863 4.23672386,12.4297386 3.76805556,12.4297386 C3.43688725,12.4297386 3.11662582,12.3969363 2.80261438,12.3344363 C3.45559641,14.3731209 5.34901961,15.8556373 7.59236111,15.8962827 C5.8379902,17.2710376 3.62589869,18.0880719 1.22324346,18.0880719 C0.809272876,18.0880719 0.401511438,18.0630719 4.08496732e-05,18.0177696 C2.26993464,19.4753268 4.96474673,20.3251634 7.86107026,20.3251634 C17.2952206,20.3251634 22.4520833,12.5109886 22.4520833,5.73415033 L22.4348856,5.07022059 C23.4424837,4.35155229 24.3141748,3.44861111 25,2.42066993 Z" id="Shape"></path>
                </g>
            </g>
        </g>
    </g>
</svg>