<?xml version="1.0" encoding="UTF-8"?>
<svg width="26px" height="19px" viewBox="0 0 26 19" version="1.1" xmlns="http://www.w3.org/2000/svg" xmlns:xlink="http://www.w3.org/1999/xlink">
    <!-- Generator: Sketch 46.2 (44496) - http://www.bohemiancoding.com/sketch -->
    <title>004-mail-black-envelope-symbol</title>
    <desc>Created with Sketch.</desc>
    <defs></defs>
    <g id="Page-1" stroke="none" stroke-width="1" fill="none" fill-rule="evenodd">
        <g id="Artboard" transform="translate(-86.000000, -123.000000)" fill-rule="nonzero" fill="#383838">
            <g id="icons" transform="translate(25.000000, 120.000000)">
                <g id="004-mail-black-envelope-symbol" transform="translate(61.500000, 3.000000)">
                    <path d="M24.9594136,15.6330247 C24.9594136,16.1801955 24.8055041,16.6874486 24.5589506,17.1337449 L16.6782407,8.31635802 L24.4735082,1.49619342 C24.776749,1.9774177 24.9594136,2.54269547 24.9594136,3.15354938 L24.9594136,15.6330247 Z M12.4797325,9.91733539 L23.3265947,0.42659465 C22.8814815,0.182921811 22.3802469,0.0334876543 21.8395576,0.0334876543 L3.11990741,0.0334876543 C2.57854938,0.0334876543 2.07716049,0.182921811 1.63384774,0.42659465 L12.4797325,9.91733539 Z M15.5037551,9.34315844 L12.9930041,11.5414095 C12.846142,11.6693416 12.6632716,11.7332305 12.4797325,11.7332305 C12.2960905,11.7332305 12.1132202,11.6693416 11.966358,11.5414095 L9.45504115,9.34305556 L1.47463992,18.2731481 C1.95298354,18.573251 2.51358025,18.753035 3.11985597,18.753035 L21.8395576,18.753035 C22.4457305,18.753035 23.0065844,18.573251 23.4847737,18.2731481 L15.5037551,9.34315844 Z M0.48600823,1.49614198 C0.18281893,1.97736626 0,2.54264403 0,3.15354938 L0,15.6330761 C0,16.1802469 0.1531893,16.6875 0.400668724,17.1337963 L8.28045267,8.31486626 L0.48600823,1.49614198 Z" id="Shape"></path>
                </g>
            </g>
        </g>
    </g>
</svg>