<?xml version="1.0" encoding="UTF-8"?>
<svg width="25px" height="25px" viewBox="0 0 25 25" version="1.1" xmlns="http://www.w3.org/2000/svg" xmlns:xlink="http://www.w3.org/1999/xlink">
    <!-- Generator: Sketch 46.2 (44496) - http://www.bohemiancoding.com/sketch -->
    <title>Shape</title>
    <desc>Created with Sketch.</desc>
    <defs></defs>
    <g id="Page-1" stroke="none" stroke-width="1" fill="none" fill-rule="evenodd">
        <g id="Artboard" transform="translate(-25.000000, -120.000000)" fill-rule="nonzero" fill="#383838">
            <g id="icons" transform="translate(25.000000, 120.000000)">
                <g id="005-call-answer">
                    <path d="M23.9493947,19.3611346 L20.1659628,15.5772804 C19.4123733,14.8267173 18.1644144,14.8495214 17.3845721,15.6296453 L15.4784628,17.5353322 C15.3580377,17.4689611 15.2333896,17.399634 15.1023367,17.3260839 C13.8986486,16.6591357 12.2511965,15.7450028 10.5175957,14.0101351 C8.77885698,12.2716075 7.8638795,10.6216216 7.1948902,9.41715935 C7.12429617,9.28955518 7.05665822,9.1665259 6.98986486,9.04969032 L8.26914414,7.77231137 L8.89808559,7.14259572 C9.67912444,6.36134572 9.7006616,5.11373874 8.94883164,4.36099381 L5.16539977,0.576717342 C4.41356982,-0.174971847 3.16504786,-0.152167793 2.38400901,0.629082207 L1.31770833,1.70150619 L1.34684685,1.73043356 C0.989301802,2.18665541 0.690526464,2.71283784 0.468186937,3.28026464 C0.263231982,3.82038288 0.135627815,4.33579673 0.0772804054,4.85226633 C-0.422297297,8.99387669 1.47029842,12.7789977 6.60655968,17.9153294 C13.706433,25.01471 19.4279983,24.4783925 19.6748311,24.45221 C20.2124155,24.3879505 20.7276182,24.2595017 21.2511965,24.0561655 C21.8136965,23.8364302 22.339527,23.5380771 22.7954673,23.1813063 L22.8187641,23.2019989 L23.8990006,22.1442145 C24.6784206,21.3631053 24.7008727,20.115076 23.9493947,19.3611346 Z" id="Shape"></path>
                </g>
            </g>
        </g>
    </g>
</svg>