<svg width="601" height="600" viewBox="0 0 601 600" fill="none" xmlns="http://www.w3.org/2000/svg">
<path d="M218.186 600C338.687 600 436.372 502.329 436.372 381.846C436.372 261.363 338.687 163.692 218.186 163.692C97.686 163.692 0.0010376 261.363 0.0010376 381.846V600H218.186Z" fill="#C74289"/>
<path d="M381.816 436.308C261.315 436.308 163.63 338.637 163.63 218.154C163.63 97.6708 261.315 0 381.816 0C502.316 0 600.001 97.6708 600.001 218.154V436.308H381.816Z" fill="#7461E7"/>
<path fill-rule="evenodd" clip-rule="evenodd" d="M163.618 218.178C163.618 338.661 261.303 436.332 381.804 436.332H429.503C433.977 418.924 436.357 400.675 436.357 381.87C436.357 261.387 338.672 163.716 218.171 163.716C201.308 163.716 184.892 165.629 169.127 169.25C165.522 184.979 163.618 201.356 163.618 218.178Z" fill="#003A9B"/>
</svg>
