<?xml version="1.0" standalone="no"?>
<!DOCTYPE svg PUBLIC "-//W3C//DTD SVG 20010904//EN"
 "http://www.w3.org/TR/2001/REC-SVG-20010904/DTD/svg10.dtd">
<svg version="1.0" xmlns="http://www.w3.org/2000/svg"
 width="514.000000pt" height="514.000000pt" viewBox="0 0 514.000000 514.000000"
 preserveAspectRatio="xMidYMid meet">
<metadata>
Created by potrace 1.11, written by Peter Selinger 2001-2013
</metadata>
<g transform="translate(0.000000,514.000000) scale(0.100000,-0.100000)"
fill="#000000" stroke="none">
<path d="M121 5090 c-11 -8 -8 -140 3 -141 6 0 45 -2 86 -3 139 -5 287 -30
405 -68 44 -14 157 -70 178 -88 81 -66 132 -149 143 -232 3 -24 6 -306 5 -628
0 -322 0 -1183 -1 -1915 -1 -1462 1 -1408 -62 -1533 -66 -132 -207 -220 -413
-256 -16 -3 -39 -8 -50 -10 -11 -2 -42 -7 -68 -10 -27 -4 -57 -9 -66 -11 -10
-2 -40 -6 -67 -10 -78 -10 -83 -11 -91 -19 -4 -4 -8 -34 -9 -67 -1 -54 1 -59
20 -59 12 0 817 -1 1790 -3 1263 -1 1779 1 1801 9 47 16 68 40 111 124 21 41
42 77 46 78 5 2 8 8 8 14 0 11 79 171 246 495 57 111 104 204 104 207 0 3 -29
4 -65 2 -56 -2 -68 -6 -83 -27 -13 -19 -82 -98 -126 -145 -6 -6 -27 -30 -46
-54 -122 -148 -284 -260 -455 -314 -81 -25 -104 -30 -185 -42 -49 -7 -1081 -7
-1117 0 -13 3 -25 1 -28 -4 -3 -5 -11 -7 -18 -4 -7 2 -78 6 -157 7 l-145 2 -3
1071 -2 1072 22 4 c13 2 253 3 533 1 281 -1 713 -3 960 -3 459 -2 554 -8 690
-45 89 -24 176 -55 210 -75 17 -10 32 -18 35 -17 9 2 128 -71 188 -114 80 -59
161 -147 208 -227 40 -67 89 -180 98 -224 2 -13 9 -45 16 -73 20 -87 32 -209
33 -325 0 -80 -11 -248 -17 -259 -2 -3 -7 -22 -10 -41 -7 -49 -52 -183 -77
-233 -37 -72 -110 -170 -173 -230 -58 -56 -213 -167 -232 -167 -13 0 -23 -18
-112 -193 -105 -207 -101 -188 -32 -167 121 36 319 128 328 151 2 5 9 9 15 9
20 0 154 110 225 184 67 71 126 149 173 232 27 47 71 135 74 149 1 6 8 24 14
40 7 17 14 37 16 45 2 8 9 35 16 60 21 77 28 110 45 245 10 77 12 350 3 410
-14 89 -15 94 -34 169 -19 77 -65 192 -97 246 -11 19 -29 49 -39 67 -19 34
-27 44 -110 142 -99 117 -255 241 -430 342 -85 49 -89 53 -72 69 10 10 21 16
25 14 3 -2 8 -1 10 4 1 4 41 35 88 69 138 99 200 157 286 268 46 59 107 162
133 225 12 30 26 64 31 75 13 29 39 123 46 170 3 22 7 42 9 45 5 7 18 176 18
225 0 50 -12 236 -18 263 -2 11 -6 37 -9 58 -12 76 -48 206 -76 274 -29 71
-94 192 -114 213 -6 7 -23 28 -37 47 -83 110 -214 215 -354 284 -84 42 -185
82 -229 91 -10 3 -33 9 -50 14 -34 11 -87 22 -126 27 -14 1 -25 3 -25 4 0 1
-9 3 -20 4 -11 2 -40 7 -65 11 -48 9 -3667 14 -3679 5z m3109 -254 c256 -4
479 -8 495 -10 122 -13 161 -19 168 -23 4 -2 20 -7 35 -9 15 -3 67 -19 116
-36 354 -122 571 -384 613 -738 9 -77 9 -253 0 -330 -6 -52 -9 -69 -23 -145
-10 -49 -73 -203 -111 -267 -81 -138 -219 -265 -369 -341 -71 -36 -177 -75
-224 -84 -14 -2 -41 -8 -60 -13 -19 -5 -71 -13 -115 -17 -108 -10 -1931 -10
-1941 0 -13 13 -13 1899 0 1938 19 57 51 71 173 76 59 3 109 6 110 7 3 3 690
-2 1133 -8z"/>
</g>
</svg>
